<?xml version="1.0" encoding="UTF-8"?>
<svg id="Layer_2" data-name="Layer 2" xmlns="http://www.w3.org/2000/svg" xmlns:xlink="http://www.w3.org/1999/xlink" viewBox="0 0 1951.44 1041.14">
  <defs>
    <style>
      .cls-1 {
        fill: url(#linear-gradient);
      }

      .cls-1, .cls-2 {
        stroke-width: 0px;
      }

      .cls-2 {
        fill: #fff7ed;
      }
    </style>
    <linearGradient id="linear-gradient" x1=".29" y1="318.56" x2="1951.15" y2="318.56" gradientUnits="userSpaceOnUse">
      <stop offset="0" stop-color="#a02165"/>
      <stop offset=".25" stop-color="#a7346b"/>
      <stop offset=".76" stop-color="#bb667a"/>
      <stop offset=".98" stop-color="#c57e82"/>
    </linearGradient>
  </defs>
  <g id="Background">
    <g>
      <path class="cls-1" d="m.29,18.76C215.12-14.16,266.23-3.81,423.38,50.21c113.53,39.03,220.29,102.92,337.92,123.66,170.88,30.13,342.22-38.55,514.81-53.67,230.06-20.16,457.38,55.23,675.04,137.71v379.21H.29v-268.22s0-350.14,0-350.14Z"/>
      <path class="cls-2" d="m1528.36,201.2c-113.53,39.03-220.29,102.92-337.92,123.66-170.88,30.13-342.22-38.55-514.81-53.67C445.36,251.01,217.84,326.55,0,409.13v613.25c214.83,32.92,265.94,22.57,423.08-31.45,113.53-39.03,220.29-102.92,337.92-123.66,170.88-30.13,342.22,38.55,514.81,53.67,230.26,20.18,457.79-55.36,675.63-137.93V169.75c-214.83-32.92-265.94-22.57-423.08,31.45Z"/>
    </g>
  </g>
</svg>