<?xml version="1.0" encoding="UTF-8"?>
<svg id="Layer_2" data-name="Layer 2" xmlns="http://www.w3.org/2000/svg" viewBox="0 0 318.98 56.63">
  <defs>
    <style>
      .cls-1 {
        fill: #c32026;
      }

      .cls-1, .cls-2 {
        stroke-width: 0px;
      }

      .cls-2 {
        fill: #fff;
      }
    </style>
  </defs>
  <g id="Background">
    <g>
      <g>
        <g>
          <path class="cls-2" d="m210.49,49.51c-.26-.25-.58-.39-.67-.84-.12-.59.04-1.03.31-1.5.04-.07.05-.17.06-.25.04-.25-.01-.54.3-.7.06-.03.04-.22.08-.32.05-.11.13-.21.2-.31.02-.03.08-.04.08-.07.12-.41.23-.82.36-1.23.04-.13.13-.24.2-.35.02-.03.08-.06.07-.08-.1-.48.26-.83.39-1.24.13-.43.38-.83.56-1.24.04-.09.03-.2.07-.29.06-.13.18-.25.21-.39.04-.2.04-.42.03-.63,0-.07-.14-.12-.17-.19-.15-.41-.22-.86-.44-1.23-.18-.32-.29-.62-.31-.98-.5-.13-.1-.78-.55-.96-.05-.02-.04-.22-.06-.33-.03-.18.07-.44-.24-.48,0,0-.02-.02-.02-.03.05-.39-.24-.64-.35-.97-.08-.23.04-.56-.32-.66-.02,0-.02-.07-.04-.11-.08-.24-.17-.48-.25-.72-.14-.42-.15-.97-.43-1.23-.38-.35-.05-.93-.54-1.16-.04-.02-.04-.14-.04-.21-.02-.19.05-.41-.24-.49-.05-.01-.07-.2-.09-.32-.03-.23.03-.5-.28-.61-.03-.01-.03-.09-.05-.14-.08-.2-.17-.39-.24-.6-.15-.43-.2-.91-.45-1.27-.24-.36-.17-.79-.36-1.06-.16-.22-.17-.42-.26-.63-.15-.39-.37-.76-.57-1.13,0-.01-.02-.02-.02-.03-.13-.34-.26-.69-.37-1.03-.07-.21.08-.52-.29-.57-.02,0-.03-.12-.03-.18,0-.3,0-.6,0-.89,0-.28.18-.38.38-.55.58-.49,1.25-.25,1.87-.28.92-.04,1.84.03,2.76-.02.42-.02.61.25.86.44.22.16.33.41.38.71.05.32.32.59.48.89.06.11.07.25.1.37.04.19-.07.47.27.51,0,0,.02.02.02.03-.08.39.25.64.33.97.06.24,0,.45.27.68.26.23.32.69.42,1.07.12.44.27.85.55,1.22.07.09.06.24.09.37.04.2-.08.49.27.55.02,0,.03.11.04.18.02.21-.04.44.24.54.04.01.05.16.06.25.04.24-.06.53.28.66.04.02.03.16.06.25.04.16-.03.36.24.43.08.02.07.3.13.45.03.07.14.11.21.16.13-.23.27-.47.4-.7.06-.11.14-.21.18-.32.06-.15.1-.3.14-.46.04-.19-.05-.43.24-.5.03,0,.05-.08.06-.13.02-.24-.04-.52.28-.63-.06-.48.29-.84.38-1.27.04-.2.41-1.01.57-1.25.07-.1.05-.25.09-.37.06-.17.15-.33.23-.49.04-.09.08-.18.1-.27.04-.18-.08-.43.25-.46.02,0,.04-.14.05-.21.06-.27-.12-.64.3-.78.03,0,.02-.12.03-.18.03-.18-.04-.4.24-.46.02,0,.04-.06.05-.1.12-.44.23-.88.38-1.31.05-.15.19-.32.33-.39.27-.13.42-.43.83-.41,1.33.06,2.67.03,4,.03.12,0,.3,0,.36.07.23.31.82.35.68.95-.1.43.06.88-.3,1.3-.24.29-.2.8-.4,1.15-.2.37-.2.84-.58,1.12-.07.05-.04.22-.06.33-.04.22.09.52-.27.59,0,0-.02.02-.02.03-.12.39-.22.78-.35,1.17-.05.15-.15.28-.23.42-.02.03-.05.06-.06.09-.12.42-.24.84-.36,1.26-.03.1-.11.18-.16.27-.05.08-.11.16-.14.25-.08.26.08.61-.32.74-.04.01,0,.2-.04.29-.05.12-.13.23-.19.35-.04.07-.08.15-.1.23-.06.26.1.61-.3.74-.03,0-.02.12-.03.18-.03.19.04.43-.24.51-.02,0-.04.06-.05.1-.12.42-.24.84-.36,1.27-.02.06-.04.12-.07.17-.09.17-.2.33-.26.5-.07.18.05.46-.27.52-.04,0-.04.16-.06.24-.05.25.08.56-.28.69-.04.01-.02.17-.03.26-.02.17.04.38-.23.42-.04,0-.06.13-.07.2-.06.28.07.63-.31.79-.03.01,0,.13-.03.18-.07.16-.15.32-.22.48-.04.1-.07.22-.09.33-.05.23.02.49-.28.61-.05.02-.03.19-.07.28-.05.12-.15.22-.2.34-.06.15-.09.3-.13.46-.05.19.09.46-.24.53-.04.01-.05.18-.07.28-.04.24.07.54-.28.65-.03,0-.03.12-.04.18-.03.19.04.43-.24.5-.02,0-.04.04-.04.06-.12.42-.24.83-.36,1.25-.02.07,0,.2-.04.22-.36.18-.28.52-.32.81,0,.04,0,.11-.02.11-.41.14-.16.61-.34.78-.31.28-.09.8-.52,1-.05.02-.02.2-.05.29-.07.2-.15.39-.23.58-.03.07-.08.13-.09.2-.01.4-.24.65-.56.86-.08.05-.09.19-.13.3-1.63,0-3.26,0-4.9-.01Z"/>
          <path class="cls-2" d="m196.8,42.33c-.17-.15-.29-.23-.37-.34-.06-.07-.11-.17-.12-.26-.03-.33-.05-.67-.05-1.01,0-5.04,0-10.07,0-15.11,0-.13,0-.25,0-.39-.34-.03-.61-.05-.61.38,0,.08-.1.17-.16.24-.03.04-.11.06-.11.08.01.45-.33.66-.58.96-.21.25-.28.61-.43.91-.14.29-.28.58-.46.84-.19.28-.48.48-.54.87-.03.2-.25.37-.4.55-.03.04-.11.04-.13.07-.14.31-.26.63-.42.93-.12.22-.29.41-.44.62-.07.09-.17.18-.2.28-.05.15,0,.35-.25.35-.02,0-.05.03-.05.05,0,.59-.5.94-.71,1.43-.18.43-.56.78-.85,1.17-.03.04-.06.08-.07.13-.24.63-.41.75-1.08.75-.17,0-.35-.04-.5,0-.52.14-.82-.34-1.25-.43-.03,0-.04-.06-.06-.09-.14-.32-.28-.64-.43-.94-.09-.17-.2-.41-.35-.46-.25-.08-.18-.26-.26-.41-.11-.23-.28-.44-.42-.65-.03-.04-.1-.05-.12-.09-.16-.32-.29-.66-.46-.98-.05-.1-.19-.15-.25-.25-.2-.33-.27-.74-.63-.97-.05-.03-.01-.18-.05-.26-.05-.11-.13-.2-.2-.3-.03-.04-.1-.06-.1-.1,0-.46-.48-.66-.58-.99-.17-.55-.69-.86-.78-1.44-.04-.22-.27-.41-.36-.65-.15-.18-.32-.35-.44-.55-.18-.3-.32-.62-.48-.93-.04-.08-.1-.15-.15-.22-.05.08-.12.15-.14.24-.02.15-.01.31-.01.47,0,4.95,0,9.89.01,14.84,0,.47-.16.84-.35,1.21-.07.13-.25.19-.39.28.01.03.03.06.04.09-1.75,0-3.49,0-5.24-.02-.07,0-.16-.05-.21-.1-.1-.09-.18-.19-.24-.3-.11-.19-.23-.38-.33-.58-.04-.09-.05-.2-.05-.3,0-8.64,0-17.27,0-25.91,0-.12.13-.24.18-.36.06-.18.11-.36.14-.5.94-.68,2-.38,3.02-.41.98-.03,1.97.02,2.95-.01.39-.01.57.26.81.44.22.16.38.39.57.6.02.03.05.07.05.1,0,.44.36.67.56.99.19.3.3.65.47.97.15.27.39.5.5.79.12.28.51.4.45.78,0,.06.1.14.16.21.03.03.12.06.11.08-.06.64.64.86.77,1.44.07.34.42.68.63,1.03.12.19.2.37.28.58.07.18.23.33.35.5.1.15.18.31.28.46.19.27.39.53.57.8.09.13.17.27.22.42.12.36.47.6.53,1.01.03.18.2.34.31.51.11.19.22.38.34.56.03.05.18.07.22.04.12-.11.24-.23.32-.37.15-.25.2-.68.4-.76.42-.17.13-.75.58-.82,0,0,.02-.02.02-.03,0-.59.52-.92.71-1.42.11-.29.4-.51.57-.79.15-.25.2-.64.41-.75.35-.2.15-.66.53-.82.15-.06.24-.28.33-.45.15-.31.27-.63.42-.94.13-.26.29-.51.45-.76.19-.29.43-.54.56-.89.09-.24.27-.51.43-.75.17-.26.34-.54.51-.8.18-.29.37-.57.56-.86.13-.2.23-.43.4-.58.19-.17.31-.44.66-.44,1.8.02,3.6.01,5.4.02.37,0,.53.31.77.52.55.47.3,1.08.3,1.62.02,8.3,0,16.6.02,24.9,0,.52-.17.85-.53,1.22-.24.25-.43.24-.67.24-1.63,0-3.26,0-4.79,0Z"/>
          <path class="cls-2" d="m232.11,28.94c-.37-.1-.64-.34-.87-.67-.12-.18-.35-.28-.51-.44-.12-.12-.23-.26-.31-.41-.16-.29-.3-.59-.46-.89-.05-.1-.13-.19-.19-.29-.02-.03-.08-.04-.09-.07-.12-.38-.26-.76-.36-1.15-.08-.29.07-.64-.26-.87-.07-.05-.07-.24-.07-.37,0-.92-.01-1.84.01-2.76,0-.2.14-.39.21-.59.01-.03.07-.07.06-.09-.11-.53.24-.94.35-1.42.04-.16.17-.31.26-.46.02-.04.07-.08.07-.13.03-.42.25-.7.6-.9.03-.02.05-.09.05-.14.02-.39.32-.57.57-.79.16-.14.27-.35.41-.51.14-.15.29-.29.44-.43.1-.09.21-.19.33-.25.3-.16.61-.28.9-.44.32-.17.62-.37.93-.56.07-.04.16-.06.24-.08.16-.04.38.03.42-.23,0-.02.06-.05.09-.06.58-.12,1.15-.24,1.73-.33.21-.04.44.01.66-.02.16-.03.3-.13.45-.19.09-.04.19-.08.28-.08,1.05,0,2.1,0,3.15,0,.08,0,.19,0,.22.04.28.37.68.21,1.03.26.29.04.63-.07.84.27.03.05.19.03.3.04.25.04.56-.08.68.27,0,.02.05.03.07.03.66.02,1.08.63,1.72.7.24.44.86.39,1.09.86.09.18.35.28.51.42.15.13.29.28.43.43.17.19.33.39.5.59.02.03.07.04.09.07.15.31.22.71.46.92.3.27.11.78.54.94.02,0,.03.04.03.06.11.59.23,1.18.32,1.78.03.21.02.47-.09.63-.22.32-.53.47-.96.46-1.37-.03-2.75,0-4.12-.03-.23,0-.49.09-.72-.26-.15-.22-.23-.41-.34-.62-.08-.14-.15-.28-.24-.41-.15-.22-.29-.45-.45-.65-.17-.2-.36-.38-.55-.56-.06-.05-.16-.05-.23-.1-.13-.08-.24-.17-.36-.25-.02-.01-.03-.05-.04-.06-.4-.12-.79-.3-1.19-.33-.79-.05-1.58-.02-2.37,0-.11,0-.2.13-.31.17-.13.05-.28.13-.41.12-.42-.04-.59.33-.87.5-.21.12-.39.31-.54.5-.16.22-.35.47-.39.73-.07.46-.02.93-.04,1.39-.02.49.15.85.58,1.12.18.11.29.34.45.5.05.06.16.05.23.1.13.08.26.16.38.25.03.02.05.06.08.07.45.12.9.24,1.35.37.17.05.32.15.49.21.1.04.21.06.32.09.38.08.78-.11,1.14.27.14.15.55.04.83.07.24.03.55-.11.69.25.02.05.22.03.33.05.45.08.96-.16,1.32.31.05.06.22.01.34.03.31.05.66-.05.87.3.01.02.04.03.07.03.37.11.75.19,1.1.35.3.13.55.36.83.54.05.03.11.07.16.08.37.04.56.3.77.57.21.26.52.44.76.69.2.2.32.56.54.63.43.14.13.71.56.79.03,0,.01.17.05.25.06.13.15.25.21.38.05.1.08.2.1.31.07.36-.07.77.29,1.06.08.06.06.27.06.41,0,.96.02,1.92,0,2.87,0,.19-.16.38-.21.57-.06.23-.07.48-.12.72-.04.19.09.47-.25.52-.02,0-.06.06-.06.09.08.42-.17.74-.34,1.08-.12.23-.27.43-.37.67-.17.18-.36.34-.51.54-.27.35-.51.73-.79,1.08-.11.13-.27.23-.42.32-.25.15-.62.21-.73.42-.19.35-.72.15-.8.59,0,.03-.17.01-.25.05-.12.05-.23.13-.34.2-.03.02-.05.07-.08.08-.46.12-.93.22-1.38.35-.17.05-.32.16-.48.21-.17.05-.34.08-.52.1-.41.06-.85-.1-1.2.25-.06.06-.22.03-.34.03-1.24,0-2.49.02-3.73,0-.39,0-.78.05-1.17-.22-.24-.17-.65-.06-.99-.12-.15-.02-.28-.13-.43-.19-.09-.04-.18-.08-.27-.1-.27-.06-.63.12-.79-.29-.01-.04-.17-.02-.26-.03-.17-.02-.39.05-.41-.23,0-.02-.04-.05-.05-.05-.41.1-.62-.3-.95-.39-.21-.06-.37-.25-.56-.38-.29-.2-.59-.39-.87-.6-.12-.09-.24-.2-.33-.32-.15-.2-.26-.42-.4-.63-.15-.22-.3-.42-.46-.64-.07-.1-.14-.2-.22-.29-.27-.29-.22-.77-.58-1.02-.05-.03-.04-.14-.05-.22-.06-.28.12-.64-.29-.8-.03-.01-.02-.12-.02-.18,0-.54,0-1.09,0-1.56.18-.16.3-.3.45-.38.13-.07.29-.11.44-.11,1.53,0,3.06.02,4.58,0,.37,0,.51.29.65.46.31.38.45.9.74,1.3.16.22.3.51.66.57.21.04.39.24.58.36.13.08.25.15.38.23.11.06.22.13.33.18.11.05.23.13.35.13,1.25.01,2.51.02,3.76,0,.11,0,.23-.13.34-.21.04-.03.07-.08.11-.08.6-.04.9-.47,1.23-.88.14-.17.35-.3.53-.45.02-.02.05-.04.05-.05-.08-.48.26-.86.32-1.31.01-.08-.07-.18-.11-.26-.05-.1-.15-.2-.15-.29.05-.68-.47-.95-.89-1.31-.38-.32-.85-.44-1.26-.68-.38-.22-.79-.12-1.09-.31-.47-.3-1.03-.15-1.45-.36-.55-.28-1.19-.06-1.63-.33-.53-.32-1.16-.04-1.52-.34-.42-.35-1.01,0-1.32-.51-.04-.07-.25-.02-.37-.06-.19-.07-.37-.17-.55-.25-.06-.03-.12-.05-.18-.06-.21-.03-.48.05-.54-.29,0-.04-.19-.04-.28-.09-.25-.16-.5-.34-.75-.51Z"/>
          <path class="cls-2" d="m306.06,41.19c0,2.46,0,4.77,0,7.09,0,.58-.56,1.14-1.15,1.14-1.36,0-2.72,0-4.08,0-.98,0-1.29-.3-1.29-1.28,0-4.01,0-8.03,0-12.04,0-4.28,0-8.57,0-12.85,0-.21.01-.41,0-.62-.02-.4.3-.57.53-.79.13-.13.4-.2.44-.35.1-.32.34-.24.53-.24,2.94,0,5.88,0,8.82.03.15,0,.29.13.44.19.09.04.19.08.28.09.3.02.6.02.89.04.16.01.39-.06.42.22,0,.02.03.04.05.05.36.12.73.21,1.07.36.38.17.73.42,1.11.58.44.18.63.69,1.15.78.18.03.32.31.48.47.16.16.34.32.5.49.15.15.32.29.41.48.15.34.32.63.65.81.04.02.05.11.06.17.03.18,0,.4.26.46.04,0,.05.13.06.21.04.17-.05.41.25.44.02,0,.05.03.05.05.01.27,0,.56.31.7-.03.68.49,1.23.42,1.95-.04.39.18.8.21,1.21.04.49.04.99,0,1.47-.06.64-.17,1.28-.29,1.91-.07.35-.13.76-.35,1-.22.24-.17.6-.32.72-.23.19-.18.5-.3.6-.39.31-.39.85-.84,1.12-.31.19-.49.58-.76.85-.27.26-.59.48-.88.72-.26.2-.51.42-.77.61-.06.05-.18.02-.26.06-.12.06-.22.15-.34.22-.06.04-.13.07-.2.08-.19.04-.44-.05-.47.26,0,.02-.04.04-.06.04-.56-.16-.97.34-1.49.35-1.49.01-2.98.03-4.46.07-.36,0-.71.08-1.08.13Zm5.72-12.08c-.11-.14-.22-.28-.34-.4-.19-.18-.38-.36-.59-.51-.25-.17-.5-.42-.77-.45-.99-.11-1.95-.47-2.97-.32-.15.02-.31,0-.47,0-.57-.01-.58,0-.58.57,0,2.16,0,4.32,0,6.48,0,.11.01.23.02.34,1.25,0,2.48,0,3.7,0,.05,0,.13-.01.14-.04.12-.41.58-.33.85-.52.35-.25.7-.43.82-.87.01-.05.07-.1.11-.14.23-.25.5-.46.51-.86,0-.31-.13-.67.24-.91.07-.05.08-.39.01-.43-.33-.21-.21-.52-.25-.79-.02-.18.02-.49-.05-.51-.35-.12-.24-.4-.37-.63Z"/>
          <path class="cls-2" d="m260.06,42.03c-.15.14-.24.24-.35.31-.1.06-.23.12-.34.12-1.57,0-3.13,0-4.7-.01-.13,0-.25-.13-.37-.19-.11-.06-.21-.11-.36-.19V14.76c.65-.69,1.46-.45,2.21-.47.98-.02,1.97,0,2.95,0,.23,0,.46-.02.67.23.15.18.26.35.38.55.35.61.19,1.25.2,1.87.03,1.26.02,2.51,0,3.77,0,.29.06.42.38.4.49-.03.98,0,1.47-.03.18-.01.36-.15.54-.18.16-.03.35-.03.51,0,.18.04.36.17.54.18.5.04,1.01.02,1.51.05.09,0,.19.11.28.17.04.03.07.1.1.1.5-.12.86.26,1.29.36.09.02.17.1.25.16.03.02.03.08.06.09.32.15.66.27.97.44.2.11.39.25.57.4.19.16.36.35.53.53.15.16.3.33.45.5.12.14.21.35.36.4.38.13.16.68.58.75,0,.34.47.49.37.9-.02.09.11.22.18.34.03.04.09.07.09.11.12.61.23,1.23.36,1.85.06.27.15.53.21.79.03.14.05.28.05.42.02,3.95.04,7.9.06,11.85,0,.43-.29.64-.54.94-.4.47-.86.25-1.28.27-1.19.03-2.38,0-3.57,0-.15,0-.35,0-.43-.08-.27-.31-.71-.4-.7-1.02.05-3.86.03-7.72.02-11.57,0-.23.13-.54-.24-.64-.01,0-.03-.05-.03-.07.12-.44-.3-.65-.42-1-.06-.17-.26-.36-.43-.42-.44-.14-.8-.53-1.33-.42-.14.03-.29.03-.43,0-.48-.12-.8.3-1.23.36-.16.02-.26.32-.4.49-.12.15-.23.36-.39.42-.27.1-.22.29-.23.46-.04.72-.08,1.45-.08,2.17-.01,2.23.03,4.45-.02,6.68-.03,1.41.28,2.85-.29,4.18Z"/>
          <path class="cls-2" d="m294.69,38.57c-.21.21-.4.4-.59.59-.29.29-.58.57-.86.86-.16.17-.3.37-.48.52-.18.16-.4.28-.61.41-.21.13-.5.2-.6.38-.14.24-.32.24-.53.3-.07.02-.13.08-.19.14-.03.03-.03.12-.06.13-.37.12-.74.23-1.1.35-.15.05-.29.15-.44.21-.08.04-.16.07-.24.08-.29.06-.65-.1-.86.27-.03.05-.19.04-.3.04-1.24,0-2.48.03-3.73.02-.28,0-.62.09-.82-.27-.04-.07-.24-.04-.37-.06-.23-.03-.49.07-.62-.25-.02-.06-.21-.05-.33-.07-.21-.05-.52.11-.57-.27,0,0-.02-.02-.03-.02-.42.11-.59-.32-.93-.41-.24-.07-.43-.31-.65-.47-.07-.05-.14-.09-.22-.12-.3-.11-.53-.31-.73-.57-.12-.16-.34-.26-.5-.39-.13-.11-.32-.2-.37-.35-.14-.41-.55-.56-.79-.89-.27-.38-.4-.87-.83-1.16-.19-.13-.29-.44-.37-.69-.08-.24-.2-.44-.29-.65-.21-.48-.29-1.02-.41-1.54-.05-.21.05-.46-.22-.61-.06-.03-.07-.21-.07-.32,0-1.13,0-2.25.01-3.38,0-.14.14-.28.18-.43.05-.18.07-.37.1-.55.03-.19-.09-.43.23-.54.09-.03.05-.36.1-.54.04-.14.13-.26.2-.39.03-.06.08-.12.09-.19.04-.19-.02-.43.27-.48-.06-.41.31-.61.45-.93.11-.25.34-.44.51-.66.12-.15.25-.29.37-.44.32-.38.62-.78.97-1.12.28-.27.7-.41.94-.7.32-.4.83-.47,1.17-.85.22-.25.73-.22,1.01-.44.38-.3.88-.2,1.24-.51.15-.13.45-.07.67-.11.33-.06.73.16.96-.26.03-.05.2-.03.3-.03.72,0,1.45,0,2.17.01.12,0,.24.12.36.18.09.04.18.09.27.1.26.02.52.01.78.04.21.02.49-.09.57.24,0,.02.04.02.07.03.42.13.85.25,1.27.39.09.03.17.11.25.17.04.03.07.11.09.11.42-.1.61.32.96.4.22.05.39.32.59.49.15.13.29.32.46.36.56.14.8.61,1.15.98.17.18.38.33.6.5.02.38.25.65.58.87.04.02.08.08.08.12.03.4.35.61.57.89,0,.01.02.02.03.03.14.39.28.77.4,1.16.05.16-.04.37.23.43.05.01.07.2.09.31.06.35-.12.76.28,1.02.04.03.02.15.02.23,0,1.31,0,2.61,0,3.92,0,.11-.13.22-.17.34-.05.18-.08.36-.11.55-.04.25.07.55-.26.71-.05.03-.04.19-.06.29-.03.16.07.39-.23.4-.03,0-.07.05-.07.08-.04.25-.17.46-.27.69-.18.37-.36.67-.67.93-.1.09-.08.31-.11.43Zm-8.87-1.86s0,0,0,0c.28,0,.57,0,.85,0,.06,0,.17.01.19-.01.18-.39.6-.19.83-.35.25-.17.49-.29.79-.33.02,0,.04-.03.06-.05.24-.28.45-.61.73-.83.3-.24.57-.45.6-.86,0-.05.08-.08.12-.13.06-.08.15-.16.18-.25.07-.28-.1-.66.32-.8.02,0,.02-.07.02-.11-.14-.71.35-1.51-.31-2.16.11-.39-.21-.62-.35-.91-.12-.24-.27-.48-.45-.67-.24-.26-.55-.45-.79-.7-.24-.26-.45-.53-.84-.57-.05,0-.13-.01-.14-.04-.15-.34-.47-.24-.74-.3-.33-.07-.67-.15-1-.2-.08-.01-.17.03-.25.06-.12.04-.25.12-.36.11-.64-.1-1.13.34-1.7.46-.19.04-.37.18-.51.33-.26.27-.46.61-.74.84-.29.24-.55.47-.56.87,0,.05-.03.13-.06.13-.34.09-.25.37-.27.6-.02.18.02.43-.08.52-.41.36-.2.81-.23,1.22,0,.08.05.16.09.23.07.14.18.26.2.4.06.34.02.66.32.98.36.38.54.89.95,1.28.25.24.57.31.81.57.23.24.69.26,1.05.38.04.01.11.05.12.08.02.29.25.21.41.22.25.01.49,0,.74,0Z"/>
        </g>
        <g id="RVLVhf">
          <g>
            <path class="cls-2" d="m118.05,25.41c0,5.17,0,10.02,0,14.87,0,.37.01.75,0,1.12-.03.74-.42,1.11-1.17,1.11-1.22,0-2.44-.01-3.67,0-.87,0-1.31-.37-1.31-1.29.01-8.56.01-17.12,0-25.68,0-.92.45-1.3,1.3-1.3,1.22,0,2.45-.08,3.66.05.48.05,1.05.47,1.36.88,3.78,5.07,7.52,10.16,11.28,15.25.2.27.41.54.83.78,0-.34,0-.69,0-1.03,0-4.72,0-9.44,0-14.17,0-1.49.3-1.76,1.82-1.72.95.03,1.9.02,2.85,0,1.15-.01,1.48.27,1.49,1.41.02,1.94,0,3.87,0,5.81,0,6.42,0,12.84,0,19.26,0,1.64-.15,1.78-1.82,1.76-.64,0-1.3-.09-1.93.01-1.51.23-2.41-.43-3.27-1.64-3.48-4.87-7.07-9.66-10.61-14.47-.2-.27-.41-.52-.8-1.03Z"/>
            <path class="cls-2" d="m147.57,25.4c2.24,0,4.41.01,6.58.02,1.43,0,2.85,0,4.28.01,1.56,0,1.74.19,1.76,1.78.01.88,0,1.77,0,2.65-.02,1.52-.23,1.72-1.71,1.72-3.23,0-6.46-.01-9.68-.02h-1.2v4.88c.38,0,.74,0,1.1,0,3.3,0,6.59.01,9.89.03,1.31,0,1.58.25,1.61,1.52.02,1.12,0,2.24,0,3.36-.01.87-.44,1.28-1.34,1.28-5.37-.03-10.73-.02-16.1-.04-1.06,0-1.4-.34-1.4-1.42,0-8.46,0-16.93,0-25.39,0-1.13.36-1.46,1.47-1.46,5.36.01,10.72.04,16.08.05.85,0,1.26.43,1.28,1.24.02,1.19.03,2.38,0,3.57-.03,1.06-.36,1.37-1.44,1.37-3.33,0-6.66-.01-9.99-.02-.37,0-.74,0-1.18,0v4.88Z"/>
            <path class="cls-2" d="m84.02,36.27c3.75,0,7.35.02,10.95.03,1.51,0,1.68.18,1.69,1.71,0,.98,0,1.97,0,2.95,0,1.24-.25,1.5-1.49,1.5-3.8,0-7.6-.01-11.4-.03-1.53,0-3.05-.04-4.58-.02-.9.01-1.3-.37-1.3-1.28,0-8.56,0-17.12,0-25.68,0-.89.38-1.31,1.29-1.28,1.15.03,2.31-.03,3.46,0,1.21.04,1.4.26,1.4,1.49,0,6.42,0,12.84,0,19.26,0,.4,0,.8,0,1.33Z"/>
            <path class="cls-2" d="m100.89,28.35c0-4.24,0-8.49,0-12.73,0-1.09.3-1.38,1.39-1.4,1.19-.02,2.37,0,3.56.01.85.01,1.2.48,1.19,1.31,0,4.69,0,9.37.01,14.06,0,3.8,0,7.61-.02,11.41,0,1.21-.3,1.48-1.5,1.48-1.09,0-2.17.02-3.26,0-1.12-.02-1.37-.29-1.38-1.4,0-4.24,0-8.49,0-12.73Z"/>
          </g>
        </g>
      </g>
      <g>
        <rect class="cls-2" width="60.39" height="56.63" rx="4.59" ry="4.59"/>
        <g>
          <g>
            <path class="cls-1" d="m35.5,28.31c-.13-.13-.29-.2-.34-.43-.06-.3.02-.53.16-.76.02-.04.02-.09.03-.13.02-.13,0-.27.15-.35.03-.02.02-.11.04-.16.02-.06.06-.11.1-.16.01-.01.04-.02.04-.04.06-.21.12-.42.18-.63.02-.06.07-.12.1-.18,0-.02.04-.03.04-.04-.05-.25.13-.42.2-.63.07-.22.19-.42.29-.63.02-.05.02-.1.04-.15.03-.07.09-.13.1-.2.02-.1.02-.21.01-.32,0-.03-.07-.06-.09-.1-.08-.21-.11-.44-.22-.63-.09-.16-.15-.32-.16-.5-.26-.06-.05-.4-.28-.49-.03-.01-.02-.11-.03-.17-.02-.09.04-.22-.12-.25,0,0-.01,0-.01-.01.03-.2-.12-.33-.18-.49-.04-.12.02-.28-.16-.33-.01,0-.01-.04-.02-.05-.04-.12-.09-.24-.13-.37-.07-.21-.08-.5-.22-.63-.19-.18-.03-.47-.27-.59-.02,0-.02-.07-.02-.11-.01-.1.02-.21-.12-.25-.03,0-.04-.1-.05-.16-.02-.12.01-.26-.14-.31-.01,0-.02-.05-.03-.07-.04-.1-.08-.2-.12-.3-.07-.22-.1-.46-.23-.65-.12-.18-.09-.4-.18-.54-.08-.11-.09-.21-.13-.32-.08-.2-.19-.39-.29-.58,0,0-.01,0-.01-.02-.06-.18-.13-.35-.19-.53-.03-.11.04-.26-.15-.29-.01,0-.02-.06-.02-.09,0-.15,0-.3,0-.45,0-.14.09-.2.2-.28.3-.25.63-.13.95-.14.47-.02.94.02,1.4-.01.21-.01.31.13.44.22.11.08.17.21.19.36.03.16.16.3.24.46.03.06.04.13.05.19.02.1-.04.24.14.26,0,0,.01.01.01.02-.04.2.12.33.17.5.03.12,0,.23.14.35.13.12.16.35.21.54.06.22.14.43.28.62.04.05.03.12.04.19.02.1-.04.25.14.28.01,0,.02.06.02.09,0,.11-.02.23.12.27.02,0,.02.08.03.13.02.12-.03.27.14.33.02,0,.02.08.03.13.02.08-.01.18.12.22.04.01.03.15.07.23.02.04.07.05.11.08.07-.12.14-.24.2-.36.03-.05.07-.11.09-.16.03-.07.05-.15.07-.23.02-.09-.03-.22.12-.25.01,0,.03-.04.03-.07.01-.12-.02-.26.14-.32-.03-.24.15-.43.19-.65.02-.1.21-.51.29-.64.03-.05.02-.13.05-.19.03-.09.08-.17.11-.25.02-.04.04-.09.05-.14.02-.09-.04-.22.13-.24.01,0,.02-.07.03-.11.03-.14-.06-.32.15-.4.01,0,0-.06.01-.09.01-.09-.02-.21.12-.24.01,0,.02-.03.02-.05.06-.22.12-.45.19-.67.03-.08.1-.16.17-.2.14-.07.21-.22.42-.21.68.03,1.36.01,2.04.02.06,0,.15,0,.18.03.12.16.42.18.35.48-.05.22.03.45-.15.66-.12.15-.1.41-.2.59-.1.19-.1.43-.3.57-.03.02-.02.11-.03.17-.02.11.05.26-.14.3,0,0,0,0,0,.02-.06.2-.11.4-.18.6-.03.08-.08.14-.12.21,0,.02-.03.03-.03.04-.06.21-.12.43-.19.64-.02.05-.06.09-.08.14-.02.04-.05.08-.07.13-.04.13.04.31-.16.38-.02,0,0,.1-.02.15-.02.06-.07.12-.1.18-.02.04-.04.08-.05.12-.03.13.05.31-.15.38-.01,0,0,.06-.01.09-.01.1.02.22-.12.26-.01,0-.02.03-.03.05-.06.21-.12.43-.18.64,0,.03-.02.06-.03.09-.04.09-.1.17-.13.26-.04.09.02.23-.14.27-.02,0-.02.08-.03.12-.02.13.04.29-.14.35-.02,0-.01.09-.02.13-.01.08.02.19-.11.21-.02,0-.03.06-.04.1-.03.14.04.32-.16.4-.02,0,0,.06-.02.09-.03.08-.08.16-.11.25-.02.05-.03.11-.05.17-.02.11.01.25-.14.31-.03.01-.02.1-.04.14-.03.06-.08.11-.1.17-.03.07-.05.15-.07.23-.02.1.05.23-.12.27-.02,0-.03.09-.04.14-.02.12.04.27-.14.33-.01,0-.01.06-.02.09-.02.1.02.22-.12.25,0,0-.02.02-.02.03-.06.21-.12.42-.19.64-.01.04,0,.1-.02.11-.18.09-.14.26-.16.41,0,.02,0,.05,0,.06-.21.07-.08.31-.17.4-.16.14-.05.41-.27.51-.03.01-.01.1-.03.15-.03.1-.08.2-.12.3-.01.03-.04.07-.04.1,0,.2-.12.33-.29.44-.04.02-.04.1-.07.15-.83,0-1.66,0-2.49,0Z"/>
            <path class="cls-1" d="m28.53,24.66c-.09-.08-.15-.12-.19-.17-.03-.04-.06-.08-.06-.13-.01-.17-.03-.34-.03-.51,0-2.57,0-5.13,0-7.7,0-.06,0-.13,0-.2-.17-.01-.31-.03-.31.2,0,.04-.05.09-.08.12-.01.02-.06.03-.06.04,0,.23-.17.34-.29.49-.11.13-.14.31-.22.46-.07.15-.14.29-.24.43-.1.14-.24.25-.27.44-.02.1-.13.19-.2.28-.01.02-.06.02-.07.04-.07.16-.13.32-.21.48-.06.11-.15.21-.22.32-.03.05-.09.09-.1.14-.02.08,0,.18-.13.18,0,0-.02.02-.02.03,0,.3-.26.48-.36.73-.09.22-.28.4-.43.6-.02.02-.03.04-.04.07-.12.32-.21.38-.55.38-.09,0-.18-.02-.26,0-.27.07-.42-.17-.63-.22-.01,0-.02-.03-.03-.05-.07-.16-.14-.32-.22-.48-.05-.09-.1-.21-.18-.24-.13-.04-.09-.13-.13-.21-.06-.12-.14-.22-.22-.33-.01-.02-.05-.03-.06-.05-.08-.17-.15-.33-.23-.5-.03-.05-.1-.08-.13-.13-.1-.17-.14-.38-.32-.5-.02-.02,0-.09-.02-.13-.02-.05-.06-.1-.1-.15-.01-.02-.05-.03-.05-.05,0-.23-.24-.34-.29-.5-.08-.28-.35-.44-.4-.73-.02-.11-.14-.21-.18-.33-.08-.09-.16-.18-.23-.28-.09-.15-.16-.31-.25-.47-.02-.04-.05-.07-.08-.11-.02.04-.06.08-.07.12-.01.08,0,.16,0,.24,0,2.52,0,5.04,0,7.56,0,.24-.08.43-.18.62-.03.06-.13.1-.2.14,0,.02.01.03.02.05-.89,0-1.78,0-2.67,0-.04,0-.08-.03-.11-.05-.05-.04-.09-.1-.12-.15-.06-.1-.12-.19-.17-.3-.02-.04-.02-.1-.02-.15,0-4.4,0-8.8,0-13.19,0-.06.07-.12.09-.19.03-.09.05-.18.07-.25.48-.34,1.02-.19,1.54-.21.5-.02,1,.01,1.5,0,.2,0,.29.13.41.22.11.08.2.2.29.3.01.01.02.03.02.05,0,.22.18.34.29.5.1.15.15.33.24.49.08.14.2.26.26.4.06.14.26.2.23.4,0,.03.05.07.08.11.02.02.06.03.06.04-.03.32.33.44.39.73.04.17.21.35.32.53.06.1.1.19.14.29.03.09.12.17.18.26.05.08.09.16.14.23.09.14.2.27.29.41.04.07.08.14.11.21.06.19.24.3.27.51.01.09.1.17.16.26.06.1.11.2.18.29.02.02.09.04.11.02.06-.05.12-.12.16-.19.07-.13.1-.34.21-.39.21-.09.07-.38.3-.42,0,0,0-.01,0-.02,0-.3.26-.47.36-.72.06-.15.2-.26.29-.4.08-.12.1-.32.21-.38.18-.1.08-.34.27-.42.08-.03.12-.14.17-.23.08-.16.14-.32.22-.48.07-.13.15-.26.23-.39.1-.15.22-.27.28-.46.04-.12.14-.26.22-.38.09-.13.17-.27.26-.41.09-.15.19-.29.28-.44.07-.1.12-.22.2-.3.1-.09.16-.23.33-.22.92,0,1.83,0,2.75.01.19,0,.27.16.39.26.28.24.15.55.15.82,0,4.23,0,8.45.01,12.68,0,.26-.09.43-.27.62-.12.13-.22.12-.34.12-.83,0-1.66,0-2.44,0Z"/>
          </g>
          <g>
            <path class="cls-1" d="m8.95,36.22c-.19-.05-.32-.17-.44-.34-.06-.09-.18-.14-.26-.22-.06-.06-.12-.13-.16-.21-.08-.15-.15-.3-.23-.45-.03-.05-.06-.1-.1-.15-.01-.01-.04-.02-.04-.04-.06-.19-.13-.39-.18-.59-.04-.15.04-.32-.13-.44-.04-.03-.03-.12-.03-.19,0-.47,0-.94,0-1.4,0-.1.07-.2.11-.3,0-.02.03-.03.03-.05-.05-.27.12-.48.18-.72.02-.08.09-.16.13-.23.01-.02.03-.04.04-.07.01-.21.13-.36.3-.46.02,0,.02-.05.02-.07,0-.2.16-.29.29-.4.08-.07.14-.18.21-.26.07-.08.15-.15.22-.22.05-.05.11-.09.17-.13.15-.08.31-.14.46-.23.16-.09.32-.19.48-.28.04-.02.08-.03.12-.04.08-.02.19.02.21-.12,0-.01.03-.03.05-.03.29-.06.59-.12.88-.17.11-.02.23,0,.34-.01.08-.01.15-.07.23-.1.05-.02.1-.04.14-.04.53,0,1.07,0,1.6,0,.04,0,.1,0,.11.02.14.19.35.11.53.13.15.02.32-.04.43.14.02.03.1.01.15.02.13.02.28-.04.35.14,0,0,.02.01.04.01.34.01.55.32.87.36.12.23.44.2.56.44.05.09.18.14.26.22.08.07.15.14.22.22.09.1.17.2.26.3.01.01.04.02.04.03.08.16.11.36.23.47.15.14.06.4.28.48,0,0,.01.02.02.03.06.3.12.6.16.91.01.11.01.24-.04.32-.11.16-.27.24-.49.24-.7-.02-1.4,0-2.1-.02-.12,0-.25.05-.36-.13-.07-.11-.12-.21-.18-.32-.04-.07-.08-.14-.12-.21-.07-.11-.15-.23-.23-.33-.08-.1-.18-.2-.28-.29-.03-.03-.08-.03-.12-.05-.06-.04-.12-.08-.18-.13,0,0-.01-.03-.02-.03-.2-.06-.4-.15-.61-.17-.4-.03-.8-.01-1.21,0-.05,0-.1.07-.16.09-.07.03-.14.07-.21.06-.21-.02-.3.17-.44.25-.1.06-.2.16-.27.25-.08.11-.18.24-.2.37-.03.23-.01.47-.02.71-.01.25.08.43.29.57.09.06.15.17.23.25.03.03.08.03.12.05.07.04.13.08.19.13.02.01.03.03.04.04.23.06.46.12.69.19.09.03.16.08.25.11.05.02.11.03.16.04.19.04.4-.06.58.14.07.08.28.02.42.04.12.01.28-.06.35.13.01.03.11.02.17.02.23.04.49-.08.67.16.02.03.11,0,.17.02.16.02.34-.02.44.15,0,0,.02.01.03.02.19.06.38.1.56.18.15.07.28.18.42.27.03.02.05.04.08.04.19.02.28.15.39.29.11.13.27.23.39.35.1.1.16.29.28.32.22.07.07.36.29.4.01,0,0,.09.02.13.03.07.08.13.11.19.02.05.04.1.05.16.03.18-.04.39.15.54.04.03.03.14.03.21,0,.49,0,.98,0,1.46,0,.1-.08.19-.11.29-.03.12-.04.24-.06.37-.02.1.04.24-.13.27-.01,0-.03.03-.03.05.04.21-.09.38-.17.55-.06.11-.14.22-.19.34-.09.09-.18.18-.26.27-.14.18-.26.37-.4.55-.05.07-.14.12-.21.16-.13.08-.32.11-.37.22-.1.18-.37.08-.41.3,0,.02-.09,0-.13.02-.06.03-.12.07-.17.1-.02,0-.02.04-.04.04-.23.06-.47.11-.71.18-.09.02-.16.08-.25.11-.08.03-.17.04-.26.05-.21.03-.43-.05-.61.13-.03.03-.11.02-.17.02-.63,0-1.27,0-1.9,0-.2,0-.4.03-.59-.11-.12-.08-.33-.03-.5-.06-.08-.01-.14-.07-.22-.1-.04-.02-.09-.04-.14-.05-.14-.03-.32.06-.4-.15,0-.02-.09-.01-.13-.02-.08-.01-.2.03-.21-.12,0,0-.02-.03-.02-.03-.21.05-.31-.15-.49-.2-.1-.03-.19-.13-.29-.19-.15-.1-.3-.2-.44-.31-.06-.05-.12-.1-.17-.16-.08-.1-.13-.21-.2-.32-.07-.11-.15-.22-.23-.32-.04-.05-.07-.1-.11-.15-.14-.15-.11-.39-.3-.52-.02-.02-.02-.07-.03-.11-.03-.14.06-.33-.15-.41-.01,0-.01-.06-.01-.09,0-.28,0-.55,0-.8.09-.08.15-.15.23-.19.07-.04.15-.05.23-.05.78,0,1.56.01,2.33,0,.19,0,.26.15.33.23.16.19.23.46.37.66.08.11.15.26.33.29.11.02.2.12.29.18.06.04.13.08.2.12.06.03.11.07.17.09.06.03.12.06.18.06.64,0,1.28,0,1.92,0,.06,0,.12-.07.17-.11.02-.01.04-.04.06-.04.3-.02.46-.24.63-.45.07-.09.18-.15.27-.23,0,0,.03-.02.03-.02-.04-.25.13-.44.16-.67,0-.04-.03-.09-.06-.13-.02-.05-.08-.1-.08-.15.02-.34-.24-.48-.45-.66-.19-.16-.44-.23-.64-.34-.19-.11-.4-.06-.55-.16-.24-.15-.53-.07-.74-.18-.28-.14-.61-.03-.83-.17-.27-.16-.59-.02-.77-.17-.21-.18-.52,0-.67-.26-.02-.03-.13,0-.19-.03-.1-.03-.19-.08-.28-.13-.03-.01-.06-.03-.09-.03-.11-.02-.24.03-.28-.15,0-.02-.1-.02-.14-.05-.13-.08-.25-.17-.38-.26Z"/>
            <path class="cls-1" d="m46.61,42.46c0,1.25,0,2.43,0,3.61,0,.29-.29.58-.58.58-.69,0-1.38,0-2.08,0-.5,0-.65-.15-.65-.65,0-2.04,0-4.09,0-6.13,0-2.18,0-4.36,0-6.55,0-.11,0-.21,0-.32,0-.2.15-.29.27-.4.07-.07.2-.1.22-.18.05-.17.17-.12.27-.12,1.5,0,2.99,0,4.49.01.07,0,.15.06.22.1.05.02.1.04.14.05.15.01.3,0,.45.02.08,0,.2-.03.21.11,0,0,.02.02.03.02.18.06.37.11.55.19.19.09.37.22.57.29.22.09.32.35.59.39.09.02.16.16.24.24.08.08.17.16.25.25.07.08.17.15.21.24.08.17.16.32.33.41.02.01.03.06.03.09.02.09,0,.2.13.23.02,0,.02.07.03.1.02.09-.02.21.13.23,0,0,.02.02.02.03,0,.14,0,.28.16.35-.02.35.25.63.21.99-.02.2.09.41.11.62.02.25.02.5,0,.75-.03.33-.09.65-.15.97-.03.18-.07.39-.18.51-.11.12-.09.3-.16.37-.12.1-.09.26-.15.31-.2.16-.2.43-.43.57-.16.1-.25.3-.39.43-.14.13-.3.24-.45.36-.13.1-.26.21-.39.31-.03.02-.09,0-.13.03-.06.03-.11.08-.17.11-.03.02-.07.03-.1.04-.1.02-.22-.02-.24.13,0,0-.02.02-.03.02-.29-.08-.49.18-.76.18-.76,0-1.52.02-2.27.03-.18,0-.36.04-.55.07Zm2.91-6.15c-.06-.07-.11-.14-.18-.21-.1-.09-.19-.18-.3-.26-.12-.09-.26-.22-.39-.23-.5-.06-.99-.24-1.51-.16-.08.01-.16,0-.24,0-.29,0-.29,0-.29.29,0,1.1,0,2.2,0,3.3,0,.06,0,.12,0,.17.64,0,1.26,0,1.89,0,.02,0,.07,0,.07-.02.06-.21.29-.17.43-.27.18-.13.36-.22.42-.45,0-.03.03-.05.05-.07.12-.13.25-.23.26-.44,0-.16-.07-.34.12-.47.04-.02.04-.2,0-.22-.17-.1-.11-.26-.13-.4-.01-.09,0-.25-.03-.26-.18-.06-.12-.21-.19-.32Z"/>
            <path class="cls-1" d="m23.18,42.89c-.08.07-.12.12-.18.16-.05.03-.11.06-.17.06-.8,0-1.6,0-2.39,0-.06,0-.13-.06-.19-.1-.05-.03-.11-.06-.18-.1v-13.91c.33-.35.74-.23,1.13-.24.5-.01,1,0,1.5,0,.12,0,.23,0,.34.12.08.09.13.18.19.28.18.31.1.64.1.95.01.64,0,1.28,0,1.92,0,.15.03.22.2.2.25-.02.5,0,.75-.02.09,0,.18-.07.28-.09.08-.02.18-.02.26,0,.09.02.18.09.27.09.26.02.51.01.77.03.05,0,.09.05.14.09.02.01.04.05.05.05.25-.06.44.13.66.18.05.01.09.05.13.08.01.01.01.04.03.05.16.08.34.14.5.22.1.05.2.13.29.2.1.08.18.18.27.27.08.08.15.17.23.25.06.07.11.18.18.2.19.07.08.35.29.38,0,.18.24.25.19.46-.01.05.06.11.09.17.01.02.04.04.05.06.06.31.12.63.18.94.03.14.08.27.11.4.02.07.03.14.03.21.01,2.01.02,4.02.03,6.03,0,.22-.15.33-.27.48-.2.24-.44.13-.65.14-.61.02-1.21,0-1.82,0-.08,0-.18,0-.22-.04-.14-.16-.36-.2-.36-.52.03-1.96.01-3.93,0-5.89,0-.12.07-.27-.12-.33,0,0-.02-.03-.01-.04.06-.22-.16-.33-.21-.51-.03-.09-.13-.18-.22-.21-.23-.07-.41-.27-.68-.21-.07.01-.15.02-.22,0-.25-.06-.41.15-.63.18-.08.01-.13.16-.2.25-.06.08-.12.18-.2.21-.14.05-.11.15-.12.24-.02.37-.04.74-.04,1.11,0,1.13.02,2.27,0,3.4-.02.72.14,1.45-.15,2.13Z"/>
            <path class="cls-1" d="m40.82,41.13c-.11.11-.2.2-.3.3-.15.15-.29.29-.44.44-.08.09-.15.19-.24.27-.09.08-.2.14-.31.21-.1.06-.25.1-.31.19-.07.12-.17.12-.27.15-.04,0-.07.04-.09.07-.02.02-.02.06-.03.06-.19.06-.38.12-.56.18-.08.03-.15.07-.22.11-.04.02-.08.03-.12.04-.15.03-.33-.05-.44.14-.02.03-.1.02-.15.02-.63,0-1.26.01-1.9,0-.14,0-.32.05-.42-.14-.02-.03-.12-.02-.19-.03-.12-.01-.25.04-.32-.12-.01-.03-.11-.02-.17-.04-.11-.02-.26.06-.29-.14,0,0-.01-.01-.02,0-.21.06-.3-.16-.47-.21-.12-.04-.22-.16-.33-.24-.03-.03-.07-.04-.11-.06-.15-.06-.27-.16-.37-.29-.06-.08-.17-.13-.26-.2-.07-.05-.16-.1-.19-.18-.07-.21-.28-.29-.4-.46-.14-.19-.2-.44-.42-.59-.1-.07-.15-.23-.19-.35-.04-.12-.1-.22-.15-.33-.11-.24-.15-.52-.21-.79-.02-.11.03-.24-.11-.31-.03-.02-.03-.11-.03-.17,0-.57,0-1.15,0-1.72,0-.07.07-.14.09-.22.03-.09.03-.19.05-.28.02-.1-.05-.22.11-.28.04-.02.02-.18.05-.28.02-.07.07-.13.1-.2.02-.03.04-.06.05-.1.02-.1-.01-.22.14-.25-.03-.21.16-.31.23-.47.05-.13.17-.22.26-.33.06-.08.13-.15.19-.22.16-.19.31-.4.49-.57.14-.14.36-.21.48-.36.16-.2.42-.24.6-.44.11-.13.37-.11.51-.22.19-.15.45-.1.63-.26.07-.06.23-.03.34-.05.17-.03.37.08.49-.13.01-.03.1-.02.15-.02.37,0,.74,0,1.11,0,.06,0,.12.06.18.09.04.02.09.05.14.05.13.01.26,0,.39.02.11.01.25-.05.29.12,0,0,.02.01.03.02.22.07.43.13.65.2.05.02.09.06.13.09.02.01.04.06.05.05.21-.05.31.16.49.21.11.03.2.16.3.25.08.07.15.16.24.18.29.07.41.31.58.5.09.09.2.17.3.26.01.19.13.33.3.44.02.01.04.04.04.06.02.2.18.31.29.46,0,0,.01,0,.01.01.07.2.14.39.21.59.03.08-.02.19.12.22.03,0,.03.1.04.16.03.18-.06.39.14.52.02.01.01.08.01.11,0,.67,0,1.33,0,2,0,.06-.07.11-.09.17-.03.09-.04.18-.06.28-.02.13.04.28-.13.36-.03.01-.02.1-.03.15-.01.08.03.2-.12.2-.01,0-.03.02-.04.04-.02.13-.08.24-.14.35-.09.19-.18.34-.34.47-.05.04-.04.16-.05.22Zm-4.52-.95s0,0,0,0c.14,0,.29,0,.43,0,.03,0,.09,0,.1,0,.09-.2.3-.1.43-.18.13-.09.25-.15.4-.17.01,0,.02-.01.03-.02.12-.14.23-.31.37-.42.15-.12.29-.23.31-.44,0-.02.04-.04.06-.07.03-.04.08-.08.09-.13.04-.14-.05-.33.16-.41,0,0,.01-.04,0-.06-.07-.36.18-.77-.16-1.1.06-.2-.11-.31-.18-.46-.06-.12-.14-.24-.23-.34-.12-.13-.28-.23-.4-.36-.12-.13-.23-.27-.43-.29-.03,0-.07,0-.07-.02-.08-.17-.24-.12-.37-.15-.17-.03-.34-.07-.51-.1-.04,0-.08.02-.13.03-.06.02-.12.06-.18.05-.32-.05-.57.17-.87.23-.09.02-.19.09-.26.17-.13.14-.23.31-.38.43-.15.12-.28.24-.29.44,0,.02-.01.06-.03.07-.17.04-.13.19-.14.3-.01.09.01.22-.04.27-.21.18-.1.41-.12.62,0,.04.03.08.04.12.03.07.09.13.1.21.03.17.01.34.16.5.18.19.27.45.48.65.13.12.29.16.41.29.12.12.35.13.53.19.02,0,.06.02.06.04.01.15.13.11.21.11.12,0,.25,0,.38,0Z"/>
          </g>
        </g>
      </g>
    </g>
  </g>
</svg>