<?xml version="1.0" encoding="UTF-8"?>
<svg id="Layer_2" data-name="Layer 2" xmlns="http://www.w3.org/2000/svg" xmlns:xlink="http://www.w3.org/1999/xlink" viewBox="0 0 798.97 1557.68">
  <defs>
    <style>
      .cls-1 {
        fill: #84828e;
      }

      .cls-1, .cls-2, .cls-3, .cls-4, .cls-5, .cls-6, .cls-7, .cls-8, .cls-9, .cls-10, .cls-11, .cls-12, .cls-13 {
        stroke-width: 0px;
      }

      .cls-2, .cls-11 {
        fill: #535257;
      }

      .cls-3 {
        fill: none;
      }

      .cls-4 {
        fill: #412216;
      }

      .cls-5, .cls-6 {
        fill: #fff;
      }

      .cls-14 {
        clip-path: url(#clippath);
      }

      .cls-6 {
        opacity: .55;
      }

      .cls-7 {
        fill: #a1a5a8;
      }

      .cls-8 {
        fill: #c5e8f3;
      }

      .cls-9 {
        fill: #54c7db;
      }

      .cls-10 {
        fill: #1aabd2;
      }

      .cls-11 {
        opacity: .43;
      }

      .cls-12 {
        fill: #14723c;
      }

      .cls-13 {
        fill: #49bd9e;
        opacity: .35;
      }
    </style>
    <clipPath id="clippath">
      <rect class="cls-3" width="798.97" height="1557.68"/>
    </clipPath>
  </defs>
  <g id="Background">
    <g class="cls-14">
      <path class="cls-9" d="m-95.52,1509.56c21.47.72,42.85,1.11,62.65,1.11,142.07,0,534.89,17.25,397.83-12.16-136.98-29.42,194.86-18.29,374.45-13.2,179.6,5.09-117.66-63.92-49.69-67.02,59.86-2.62-22.1-14.63,17.09-19.95,5.33-.72,12.96-1.27,23.53-1.67,103.99-4.21,89.28-33.15-40.63-43.41l-602.86-15.82-255.76,122.99c-197.4,26.63-59.47,44.6,73.38,49.13Z"/>
      <path class="cls-9" d="m-20.97,991.21h717.48v218.59c0,91.19-74.04,165.23-165.23,165.23H-20.97v-383.82h0Z"/>
      <g>
        <path class="cls-7" d="m51.8,123.38h81.66v781.49H18.98V156.21c0-18.12,14.71-32.83,32.83-32.83Z"/>
        <g>
          <path class="cls-9" d="m388.58,1111.09c-293.2,0-297.71-13.54-270.62-26.73,27.09-13.1-28.24-19.03-131.11-19.03s-9.03-17.79,60.29-17.79,90.03-23.46-27.53-27.97c-25.32-.97-44.09-3.36-57.01-6.37-47.1-11.07-18.06-31.78,45.86-31.78h521.06c115.17,0,121.99,16.64,92.16,28.15-11.42,4.6-28.33,8.32-46.56,10-65.24,6.2-108.97,21.34-33.82,22.84,75.16,1.59-130.66,17.88,25.32,22.93,155.98,5.05,115.26,45.77-178.03,45.77Z"/>
          <path class="cls-10" d="m621.67,1009.55c-85.25-26.03-128.01,25.14-173.16,29.74-49.75,5.13,57.1-22.04-45.24-24.26-102.25-2.3,10.8-18.68-62.15-14.7-72.86,3.98-10.18,16.91-93.75,14.7-83.66-2.3,16.38-19.21-54.27-18.68-70.64.62-23.19,20.36-78.52,16.38-55.42-3.9-20.36-12.92-71.79-15.23-43.64-1.86-48.6-2.12-80.2,15.67-47.1-11.07-18.06-31.78,45.86-31.78h521.06c115.17,0,121.99,16.64,92.16,28.15Z"/>
          <path class="cls-4" d="m442.97,209.34c-15.1,91.79,4.65,174.28,6.97,228.89,2.32,54.61-4.65,74-24.4,90.74l29.92,110.4s3.78-49.51,13.07-87.27c9.29-37.76-13.94-105.73-13.07-169.63s-20.04-90.95,0-194.19l-12.49,21.08Z"/>
          <path class="cls-4" d="m442.39,322.04c-28.47-19.17-31.08-32.82-36.6-109.21,0,0,3.78,49.38,11.04,66.81,7.26,17.43,15.1,30.79,25.56,28.76,10.46-2.03,0,13.65,0,13.65Z"/>
          <path class="cls-4" d="m443.56,273.25c33.98,12.2,60.42.29,54.03-33.69-6.39-33.99,10.75-67.39,10.75-67.39,0,0-13.94,34.28-8.13,58.38,5.81,24.11,5.04,36.92-10.84,47.36-15.88,10.44-39.6,6.39-45.8,2.89v-7.55Z"/>
          <path class="cls-12" d="m571.12,135.45c1.06.71,2.04,1.42,2.92,2.12,4.96,3.9,7.7,8.32,7.7,13.01,0,9.91-12.39,18.59-31.25,23.72-1.33.35-2.66.71-4.07,1.06,6.64,4.43,10.8,9.56,11.6,15.14.09.71.18,1.42.18,2.12,0,15.58-25.85,28.51-59.58,30.72.53,1.24.97,2.66.97,3.98v.18c0,13.63-28.15,24.7-62.94,24.7s-62.85-11.07-62.85-24.7c0-8.59,11.15-16.11,28.06-20.54,6.2-1.59,13.28-2.83,20.8-3.54-2.83-3.36-4.43-6.99-4.43-10.8,0-2.04.44-4.07,1.33-6.02-27.97-1.77-49.66-6.37-56.83-12.04-1.68-1.33-2.57-2.74-2.57-4.16,0-6.91,21.07-12.92,51.17-15.49-14.61-1.95-24.88-4.96-27.18-8.41-.35-.53-.53-1.06-.53-1.59,0-1.77,1.86-3.36,5.22-4.87-29.75-2.83-49.04-7.35-49.04-12.48,0-2.12,3.28-4.07,9.21-5.93,5.13-1.59,12.22-3.01,20.98-4.34-.62-1.06-1.06-2.12-1.06-3.19,0-12.13,40.19-21.95,89.76-21.95s89.68,9.83,89.68,21.95c0,.62-.18,1.33-.35,1.95,24.43,2.83,39.84,6.91,39.84,11.51,0,2.83-6.11,5.58-16.73,7.88Z"/>
          <path class="cls-1" d="m529.51,981.4H8.45s-1.15-12.92.89-30.98c.97-9.21,2.83-19.83,6.11-30.72,9.56-32.22-9.65-59.22,12.22-77.99,21.78-18.77,12.57-62.76,19.12-120.75,3.98-35.59,6.2-59.84,6.64-81.62.27-13.63-.09-26.2-1.24-39.92-2.74-35.5,11.15-28.33,14.87-49.22,3.72-20.89,7.61-7.44,30.28-39.57,10.8-15.31,16.02-50.46,17.44-92.07v-.09c.71-45.86-1.59-99.5-6.99-143.59-.53-3.72-.97-7.26-1.33-10.8v-.09c-8.06-75.42,3.36-99.5,1.33-130.75-1.51-23.11,34.97-22.04,69.23-19.39,3.19.18,6.37.44,9.56.71,10.71.8,20.8,1.68,28.86,1.68,0,0,25.5,1.42,41.96-10.71.09-.09.18-.09.27-.18,16.47-12.22,36.21-8.23,30.9,4.25-.53,1.24-.89,2.3-1.33,3.36-3.28,9.03-.27,8.32,8.41,6.82,9.56-1.86,29.57-7.97,47.45,25.67,17.88,33.55,6.11,53.56,13.99,78.79,7.52,24.52,12.31,45.77,9.29,66.84-.09.71-.18,1.33-.27,2.04-2.66,18.77-3.72,36.83,4.25,50.9,1.24,2.39,2.66,4.6,4.52,6.64,12.66,14.87,19.56,7.88,30.98,24.43,11.24,16.55,22.66,39.22,18.24,77.99-4.34,38.77,26.56,53.12,27.53,101.01.8,47.98,10.36,80.2,28.77,119.42,5.58,12.04,7.97,19.92,8.94,26.38v.09c2.57,14.43-1.24,21.95,12.31,54.18,19.65,46.56-2.21,107.56,14.43,137.66,16.55,30.01,13.46,89.59,13.46,89.59Z"/>
          <path class="cls-11" d="m507.03,981.4H8.45s-1.15-12.92.89-30.98c53.2-11.42,31.87-93.66,46.74-116.5,16.11-24.52-12.75-82.24,25.41-102.51,38.15-20.36,9.38-72.95,69.49-98.35,60.2-25.41,52.58-128.81,7.61-216.98-44.88-88.17-4.46-109.27,20.95-162.74,24.08-50.37-4.57-86.11,7.03-138.78,10.71.8,20.8,1.68,28.86,1.68,0,0,25.5,1.42,41.96-10.71-9.74,56.13,34.08,67.72,18.24,166.43-17.79,111.1,74.54,128.01,39.84,172.09-34.79,44.09-21.25,113.58,10.98,133.94,32.22,20.27,29.66,101.72,72.06,124.56,42.4,22.93,27.09,122.87,77.11,167.84,34.79,31.25,34.7,82.68,31.43,111.01Z"/>
          <path class="cls-9" d="m491.18,981.4H46.78c0-41.87,17.44-128.98,26.73-178.38,9.29-49.31,33.11-44.71,39.48-76.04,6.37-31.43,16.29-43.55,31.34-58.16,15.14-14.52,0-13.28,25.05-32.49,3.63-2.83,9.65-7.17,15.4-17.26,6.2-10.8,12.22-28.15,14.78-57.28,1.68-19.65,1.77-44.62-.62-76.49-6.46-86.22-3.9-233.35-1.68-313.82.62-25.58,1.33-44.35,1.59-52.5.09-2.48,1.95-4.6,4.51-4.96l31.43-4.43c3.01-.44,5.67,1.68,6.02,4.6.89,7.88,2.66,24.08,4.96,45.86,0,.09.09.09.09.09,12.48,115.26,42.14,387.56,46.65,422.71,5.75,44.79,34.88,21.51,47.01,60.99,12.22,39.57,0,17.44,43.02,67.37,43.02,50.02,20.89,106.94,62.76,146.42,41.78,39.48,45.86,123.76,45.86,123.76Z"/>
          <path class="cls-10" d="m482.5,981.4H78.12c33.55-134.38,67.01-111.37,75.42-153.41,8.5-42.4,14.43-87.29,26.29-136.42,5.05-21.07,4.16-47.98,4.96-72.5,6.2-10.8,12.22-28.15,14.78-57.28,4.34-4.69,10.09-7.97,17.53-9.29,46.65-8.41,83.04,77.99,105.97,94.1,22.84,16.11,30.54,87.29,49.13,106.85,18.68,19.48,39.04,78.79,64.45,116.06,19.83,29.12,38.6,87.55,45.86,111.9Z"/>
          <path class="cls-2" d="m357.57,793.72s-25.3,10.47-56.43,20.11c-44.96,13.83-102.12,26.12-113.77,3.19-19.75-38.95-4.1-90.1,7.01-126.05.36-1.18.73-2.46,1-3.73,8.83-36.95-10.47-104.03,18.75-113.04,30.12-9.28,88.83,49.33,94.11,76.63,5.19,27.3,62.16,48.78,49.33,142.89Z"/>
          <path class="cls-1" d="m301.12,813.82c-44.17,13.54-99.95,25.67-112.96,4.43-.35-.44-.62-.8-.8-1.24-14.25-28.06-10.09-62.5-2.57-92.95,3.01-11.86,6.46-23.11,9.56-33.11.35-1.15.8-2.48,1.06-3.72,49.49-54.09,37.09,15.4,57.54-6.73,22.66-24.43,0,35.59,43.11,20.98,33.37-11.33,56.92,63.83,5.05,112.34Z"/>
          <path class="cls-7" d="m165.71,198.14c-43.96,24.85-12.2,56.25-33.13,45.78-12.83-6.46-21.39,8.01-26.12,20.11-8.1-75.45,3.37-99.57,1.27-130.78-1.46-23.12,35.04-22.03,69.26-19.39-22.75,15.93,13.29,70.44-11.29,84.28Z"/>
          <path class="cls-7" d="m366.4,291.06c-13.29-43.96-52.24-31.4-37.31-79.36,18.29-58.89,7.92-47.96-27.85-62.8-29.49-12.1-44.14-28.49-14.02-35.95-3.28,9.01-.27,8.37,8.37,6.83,9.56-1.82,29.58-7.92,47.51,25.67,17.84,33.58,6.1,53.61,13.93,78.82,7.55,24.48,12.38,45.78,9.37,66.8Z"/>
          <path class="cls-7" d="m489.35,699.89c-22.75-47.42-69.81-39.77-57.88-85.64,13.56-51.88,2.18-60.52-63.98-103.66-66.26-43.14,9.56-67.17-8.01-97.66-16.47-28.49-38.5-46.69,10.83-68.9,1.27,2.37,2.73,4.55,4.55,6.64,12.65,14.83,19.57,7.83,30.94,24.39,11.29,16.56,22.66,39.23,18.29,78-4.37,38.77,26.58,53.15,27.49,101.02.82,47.96,10.38,80.18,28.76,119.41,5.64,12.01,8.01,19.93,9.01,26.39Z"/>
          <path class="cls-7" d="m147.87,579.84c-18.75,24.39-27.03-1.27-35.31,22.21-8.28,23.57-28.76-24.85-39.23,9.19-4.37,14.11-12.2,22.84-19.93,28.12.27-13.65-.09-26.21-1.18-39.96-2.82-35.49,11.1-28.3,14.84-49.24,3.73-20.84,7.64-7.37,30.31-39.59,10.74-15.29,16.02-50.42,17.38-92.01,10.83,42.32,32.49,34.31,35.77,83.28,4.28,64.44,16.11,53.61-2.64,78Z"/>
          <path class="cls-12" d="m508.33,343.1c0-8.54-25.26-15.47-56.42-15.47s-56.42,6.93-56.42,15.47c0,6.31,13.82,11.74,33.61,14.14-.8.84-1.37,1.71-1.37,2.63,0,5.29,14.24,9.59,31.81,9.59s31.81-4.29,31.81-9.59c0-1.72-1.62-3.3-4.24-4.7,12.93-2.83,21.23-7.19,21.23-12.08Z"/>
          <path class="cls-13" d="m581.74,150.59c0,9.91-12.39,18.59-31.25,23.72-29.48-3.54-57.63-9.03-80.47-17.09-24.17-8.5-54.27-11.33-85.87-10.71-.35-.53-.53-1.06-.53-1.59,0-1.77,1.86-3.36,5.22-4.87-29.75-2.83-49.04-7.35-49.04-12.48,0-2.12,3.28-4.07,9.21-5.93,91.71-4.25,160.23,10.09,225.03,15.93,4.96,3.9,7.7,8.32,7.7,13.01Z"/>
          <path class="cls-13" d="m498.62,223.36c.53,1.24.97,2.66.97,3.98-8.68-2.3-17-4.78-24.79-7.52-21.25-7.52-46.21-11.42-72.95-12.84,6.2-1.59,13.28-2.83,20.8-3.54-2.83-3.36-4.43-6.99-4.43-10.8,0-2.04.44-4.07,1.33-6.02-27.97-1.77-49.66-6.37-56.83-12.04,74.98-.18,137.39,8.85,195.29,15.94.09.71.18,1.42.18,2.12,0,15.58-25.85,28.51-59.58,30.72Z"/>
          <path class="cls-11" d="m226.4,805.94c-15.76,19.21-28.33,20.18-38.24,12.31-.35-.44-.62-.8-.8-1.24-14.25-28.06-10.09-62.5-2.57-92.95,53.47-26.47,84.72,29.3,41.61,81.89Z"/>
          <path class="cls-2" d="m453.4,981.39H106.01c-2.55-60.71,22.66-117.04,54.88-143.16,32.31-26.21-15.65-47.05,113.31-56.25,128.96-9.1,95.84,32.67,135.06,64.07,9.01,7.19,16.2,18.11,21.93,30.85,19.29,42.69,22.21,104.48,22.21,104.48Z"/>
          <path class="cls-1" d="m453.38,981.4h-250.62c1.77-38.69-37.18-85.87,39.22-73.48-20.01-13.1-3.1-38.95,37.71-26.82,40.72,12.04,59.84-6.29,47.63-39.39-8.59-23.55,35.14-18.5,103.84,35.23,6.37,14.08,10.98,30.28,14.25,45.68,6.64,31.07,7.97,58.78,7.97,58.78Z"/>
          <path class="cls-11" d="m453.38,981.4h-198.92c-29.21-101.45,69.58-32.75,82.15-72.06,9.83-30.54,63.38-25.41,108.8,13.28,6.64,31.07,7.97,58.78,7.97,58.78Z"/>
          <path class="cls-2" d="m477.25,991.58h-148.99c8.74-29.67,31.76-16.11,47.05-28.76,9.19-7.64,17.11-10.47,29.22-10.38,7.92.09,17.66,1.55,30.49,3.82,32.67,5.64,42.23,35.31,42.23,35.31Z"/>
          <path class="cls-1" d="m477.25,991.58h-87.28c-4.28-17.48,1.91-30.94,14.56-39.14,7.92.09,17.66,1.55,30.49,3.82,32.67,5.64,42.23,35.31,42.23,35.31Z"/>
          <polygon class="cls-11" points="77.26 724.17 98.03 674.59 95.91 700.44 77.26 724.17"/>
          <polygon class="cls-11" points="103.54 680.52 113.71 650.86 103.96 665.69 103.54 680.52"/>
          <polygon class="cls-11" points="146.34 627.97 166.26 616.95 177.28 593.22 146.34 627.97"/>
          <polygon class="cls-11" points="82.35 620.77 92.1 608.05 85.74 608.9 82.35 620.77"/>
          <polygon class="cls-11" points="180.95 492.08 184.34 581.92 188.01 523.44 180.95 492.08"/>
          <polygon class="cls-11" points="176.01 600.43 187.24 583.9 181.3 598.73 176.01 600.43"/>
          <polygon class="cls-11" points="184.06 193.16 185.19 221.13 174.74 252.21 184.06 193.16"/>
          <polygon class="cls-11" points="160.89 281.31 171.34 260.69 166.82 262.95 160.89 281.31"/>
          <polygon class="cls-11" points="171.91 253.34 174.45 225.93 171.63 231.59 167.95 257.3 171.91 253.34"/>
          <polygon class="cls-11" points="151.29 292.89 142.81 310.98 143.66 301.37 151.29 292.89"/>
          <polygon class="cls-11" points="182.36 118.57 181.23 128.75 177.56 118.01 182.36 118.57"/>
          <polygon class="cls-11" points="158.63 431.33 178.69 483.04 166.82 440.66 158.63 431.33"/>
          <polygon class="cls-11" points="151.64 412.69 156.72 425.82 162.23 430.91 151.64 412.69"/>
          <polygon class="cls-11" points="281.53 260.4 277.01 310.69 276.44 282.72 281.53 260.4"/>
          <polygon class="cls-11" points="280.97 308.72 281.25 333.58 278.56 315.35 280.97 308.72"/>
          <polygon class="cls-11" points="282.24 340.92 287.32 351.66 284.78 343.04 282.24 340.92"/>
          <polygon class="cls-11" points="259.78 135.24 273.05 176.21 264.15 138.35 259.78 135.24"/>
          <polygon class="cls-11" points="258.22 130.86 259.49 106.57 262.6 104.02 261.33 130.58 258.22 130.86"/>
          <polygon class="cls-11" points="261.7 132.8 265.53 132.8 265.29 134.72 261.7 132.8"/>
          <path class="cls-11" d="m300.46,492.36l11.87,60.18-12.43-33.62s.85-26.28.56-26.56Z"/>
          <path class="cls-11" d="m302.08,531.77c0,.64,6.78,19.07,6.78,19.07l-5.93-9.54-.85-9.54Z"/>
          <polygon class="cls-11" points="311.62 558.05 335.56 573.94 320.73 570.76 311.62 558.05"/>
          <polygon class="cls-11" points="363.75 626.7 376.04 656.79 366.29 652.13 351.88 608.9 363.75 626.7"/>
          <polygon class="cls-11" points="369.47 658.7 385.15 685.18 374.76 659.97 369.47 658.7"/>
          <polygon class="cls-11" points="437.2 766.98 456.98 832.52 476.19 861.91 437.2 766.98"/>
          <polygon class="cls-11" points="333.66 835.21 386.21 857.67 351.46 833.93 333.66 835.21"/>
          <polygon class="cls-11" points="375.05 844.95 415.45 870.95 390.59 850.04 375.05 844.95"/>
          <polygon class="cls-11" points="239.15 890.44 263.45 885.07 250.73 882.81 239.15 890.44"/>
          <path class="cls-11" d="m259.49,890.44c1.13-.57,27.41-3.39,27.41-3.39l-12.43-3.11-14.97,6.5Z"/>
          <polygon class="cls-11" points="194.79 703.12 224.46 671.48 200.16 688.72 194.79 703.12"/>
          <polygon class="cls-11" points="300.18 711.32 325.6 743.81 314.59 711.6 300.18 711.32"/>
          <polygon class="cls-11" points="295.09 707.64 311.76 707.36 303.57 703.12 295.09 707.64"/>
          <polygon class="cls-11" points="305.83 775.73 321.37 776.86 321.93 772.34 305.83 775.73"/>
          <path class="cls-10" d="m245.79,160.06c-6.02-11.51-11.68-19.12-10.89-3.89,1.68,30.45-2.21,105.08-7.35,42.93-5.05-62.15-10.71-87.55-11.86-5.67-.89,64.09-7.61-12.04-18.41-21.95.62-25.58,1.33-44.35,1.59-52.5.09-2.48,1.95-4.6,4.51-4.96l31.43-4.43c3.01-.44,5.67,1.68,6.02,4.6.89,7.88,2.66,24.08,4.96,45.86Z"/>
          <path class="cls-6" d="m209.49,255.04c-4.1,102.48-5.09,273.77.85,222.91,5.93-50.85,9.32-254.27,10.17-154.26.85,100.02,23.73,305.98,16.95,121.2-6.78-184.77,11.02-30.51,17.8,20.34,6.78,50.85,7.63,3.39-3.39-116.97-11.02-120.36-12.71-118.66-10.17-58.48,2.54,60.18-2.54,80.52-11.87-7.63-9.32-88.15-19.49-48.31-20.34-27.12Z"/>
          <path class="cls-6" d="m85.74,860.21c25.44-50.88,41.53-119.51,27.97-85.61-13.56,33.9-28.82,55.09-21.19,19.49,7.63-35.6-5.93,2.54-11.02,35.6-5.09,33.06-10.17,59.33,4.24,30.51Z"/>
          <path class="cls-6" d="m160.89,685.61c-11.78,67.12-28.25,144.09-23.17,93.8,5.09-50.29,28.82-126.01,23.17-93.8Z"/>
        </g>
      </g>
      <path class="cls-5" d="m270.31,1013.19c-3.92-11.95,2.3-24.86,14.09-29.24-6.24-11.56-3.15-25.93,7.28-33.91,10.43-7.98,25.12-7.19,34.64,1.86,2.51-10.02,10.77-17.58,20.98-19.18,10.21-1.6,20.38,3.05,25.85,11.83,6.56-18.75,22.55-32.62,42.04-36.47,19.48-3.85,39.55,2.91,52.74,17.75,1.85-2.65,5.27-3.7,8.28-2.53,3.01,1.17,4.83,4.25,4.4,7.46,4.52-15.61,20.5-24.91,36.3-21.15,15.81,3.76,25.87,19.27,22.88,35.24,17.57-3.32,35.06,6.11,41.95,22.61,6.89,16.5,1.29,35.56-13.42,45.73h-298Z"/>
      <path class="cls-8" d="m532.35,1017.09c2.19-6.67-1.29-13.87-7.86-16.31,3.48-6.45,1.76-14.47-4.06-18.92-5.82-4.45-14.01-4.01-19.33,1.04-1.4-5.59-6.01-9.81-11.7-10.7-5.7-.89-11.37,1.7-14.42,6.6-3.66-10.46-12.58-18.2-23.45-20.35-10.87-2.15-22.07,1.62-29.43,9.91-1.03-1.48-2.94-2.06-4.62-1.41s-2.7,2.37-2.45,4.16c-2.52-8.71-11.44-13.9-20.25-11.8-8.82,2.1-14.44,10.75-12.76,19.66-9.8-1.85-19.56,3.41-23.4,12.62-3.84,9.2-.72,19.84,7.49,25.51h166.27Z"/>
      <g>
        <path class="cls-8" d="m178.87,986.47c3.68-9.71,1.58-20.67-5.45-28.33-7.03-7.65-17.77-10.69-27.76-7.85-.25-10.03-4.76-19.48-12.4-25.99-7.64-6.51-17.69-9.45-27.63-8.11,3.33-13.67-3.54-27.78-16.37-33.58-12.82-5.8-27.95-1.65-36.02,9.88-4.13-3.79-10.48-3.79-14.62,0-2.17-5.22-7.65-8.26-13.23-7.34-5.58.91-9.8,5.54-10.2,11.18-.6-4.81-3.86-8.86-8.43-10.49-4.56-1.62-9.65-.54-13.16,2.81-3.5,3.35-4.82,8.38-3.41,13.01-1.09-5.79-5.46-10.41-11.18-11.82-5.72-1.4-11.74.67-15.38,5.3-3.64,4.63-4.24,10.96-1.52,16.19-3.48-.29-6.83,1.38-8.7,4.33-1.87,2.95-1.94,6.69-.2,9.71-5.57-3.6-12.9-2.76-17.52,2-4.62,4.76-5.23,12.12-1.46,17.57-10.36-1.17-20.46,3.79-25.87,12.7-5.41,8.91-5.15,20.16.67,28.81H178.87Z"/>
        <path class="cls-5" d="m-7.92,991.21c-2.15-5.65-.92-12.03,3.17-16.49,4.09-4.45,10.34-6.22,16.16-4.57.14-5.84,2.77-11.34,7.22-15.13,4.45-3.79,10.3-5.5,16.08-4.72-1.94-7.96,2.06-16.17,9.53-19.55,7.46-3.38,16.27-.96,20.97,5.75,2.41-2.21,6.1-2.21,8.51,0,1.27-3.04,4.45-4.81,7.7-4.28,3.25.53,5.7,3.22,5.94,6.51.35-2.8,2.25-5.16,4.91-6.1,2.66-.94,5.62-.31,7.66,1.64,2.04,1.95,2.81,4.88,1.98,7.57.63-3.37,3.18-6.06,6.51-6.88,3.33-.82,6.83.39,8.95,3.09,2.12,2.7,2.47,6.38.89,9.43,2.02-.17,3.98.8,5.06,2.52,1.09,1.72,1.13,3.9.11,5.65,3.24-2.1,7.51-1.61,10.2,1.16,2.69,2.77,3.04,7.05.85,10.23,6.03-.68,11.91,2.2,15.06,7.39,3.15,5.19,3,11.73-.39,16.77H-7.92Z"/>
      </g>
    </g>
  </g>
</svg>