<?xml version="1.0" encoding="UTF-8"?>
<svg id="Layer_2" data-name="Layer 2" xmlns="http://www.w3.org/2000/svg" viewBox="0 0 45 45">
  <defs>
    <style>
      .cls-1 {
        fill: #c22328;
        stroke-width: 0px;
      }
    </style>
  </defs>
  <g id="Background">
    <g>
      <path class="cls-1" d="m22.5,45C10.09,45,0,34.91,0,22.5S10.09,0,22.5,0s22.5,10.09,22.5,22.5-10.09,22.5-22.5,22.5Zm0-42.86C11.28,2.14,2.14,11.28,2.14,22.5s9.13,20.36,20.36,20.36,20.36-9.13,20.36-20.36S33.72,2.14,22.5,2.14Z"/>
      <path class="cls-1" d="m34.81,25.49c-.3-1.53-1.02-2.97-2.13-4.26-.04-.04-.06-.09-.07-.06.33-1.04.16-2.06-.53-3.13-1.25-1.93-3.88-3.03-6.15-2.54-.08.02-.12.01-.12,0-.35-.15-.69-.31-1.05-.48l-.19-.09s.01-.09.02-.13c.15-.77.34-1.5.96-2.03.17-.15.23-.41.23-.59,0-.48-.23-.9-.68-1.25-1.15-.86-2.46-1.06-3.9-.58-.22.07-.45.32-.52.56l-.03.09c-.13.44-.26.9-.28,1.37-.03.68,0,1.37.02,2.04l.02.5s0,.06,0,.06c0,0,0,0,0-.01-.35.11-.62.22-.86.35-.24.14-.46.18-.77.13-2.24-.29-4.13.48-5.61,2.27-.88,1.07-1.14,2.23-.77,3.38,0,.02-.02.06-.04.09-.11.15-.22.29-.34.44-.17.21-.34.43-.49.65-1.31,1.96-1.77,4.2-1.35,6.67.57,3.34,2.38,5.92,5.38,7.68,1.73,1.02,3.73,1.6,5.94,1.74.37.02.73.03,1.09.03,2.33,0,4.41-.49,6.33-1.49,3.01-1.56,4.94-3.97,5.73-7.14.37-1.49.42-2.94.16-4.3Zm-6.38-8.17c1.08.38,1.85.99,2.34,1.84.3.51.37,1.03.21,1.46-.15.4-.49.7-.97.87-.22.08-.42.12-.6.14-.75.08-1.46-.05-2.22-.4.51-.67.77-1.38.8-2.14.02-.7-.15-1.36-.54-2,.32.03.64.11.98.23Zm-2.79,3.12c-.64.65-1.46,1.02-2.52,1.13-1.41.16-2.58-.14-3.52-.91-.58-.47-.9-1.07-.9-1.68s.32-1.22.91-1.69c.78-.63,1.73-.94,2.89-.94h.03c1.12,0,2.02.29,2.74.86.34.27.63.62.82.96.4.74.23,1.58-.45,2.27Zm-7.84.81c-.51.23-1.02.37-1.56.4-.55.04-1.03-.04-1.46-.24-.7-.33-.98-.95-.78-1.7.18-.64.57-1.18,1.24-1.69.67-.51,1.44-.82,2.29-.93-.8,1.41-.71,2.8.26,4.15Zm1.03,1.38c.28-.14.42-.15.69-.01,2.06.99,4.12.95,6.15-.09.13-.07.18-.07.31,0,1.41.79,2.79,1.02,4.2.7.51-.12.99-.34,1.41-.65.96,1.18,1.5,2.39,1.63,3.71.43,4.14-1.96,7.98-5.96,9.55-1.91.75-3.98,1.03-6.12.81-2.1-.21-3.85-.82-5.36-1.88-2.83-1.98-4.18-4.75-4-8.21.07-1.39.61-2.68,1.66-3.97,1.6,1.04,3.37,1.05,5.41.04Zm3.33-10.79c.43-.17,1.2-.02,1.67.3-.57.79-.8,1.69-.95,2.52h-.8c-.13-1.11-.1-1.98.08-2.81Z"/>
      <g>
        <path class="cls-1" d="m9.08,21.41h-4.52c-.44,0-.8-.36-.8-.8s.36-.8.8-.8h4.52c.44,0,.8.36.8.8s-.36.8-.8.8Z"/>
        <path class="cls-1" d="m6.81,23.67c-.44,0-.8-.36-.8-.8v-4.53c0-.44.36-.8.8-.8s.8.36.8.8v4.53c0,.44-.36.8-.8.8Z"/>
      </g>
      <g>
        <path class="cls-1" d="m19.18,8.6h-4.52c-.44,0-.8-.36-.8-.8s.36-.8.8-.8h4.52c.44,0,.8.36.8.8s-.36.8-.8.8Z"/>
        <path class="cls-1" d="m16.92,10.86c-.44,0-.8-.36-.8-.8v-4.52c0-.44.36-.8.8-.8s.8.36.8.8v4.52c0,.44-.36.8-.8.8Z"/>
      </g>
      <g>
        <path class="cls-1" d="m38.64,19.14h-4.53c-.44,0-.8-.36-.8-.8s.36-.8.8-.8h4.53c.44,0,.8.36.8.8s-.36.8-.8.8Z"/>
        <path class="cls-1" d="m36.38,21.41c-.44,0-.8-.36-.8-.8v-4.53c0-.44.36-.8.8-.8s.8.36.8.8v4.53c0,.44-.36.8-.8.8Z"/>
      </g>
    </g>
  </g>
</svg>