<?xml version="1.0" encoding="UTF-8"?>
<svg id="Layer_2" data-name="Layer 2" xmlns="http://www.w3.org/2000/svg" viewBox="0 0 45.03 45">
  <defs>
    <style>
      .cls-1 {
        fill: #f0522c;
        stroke-width: 0px;
      }
    </style>
  </defs>
  <g id="Background">
    <g id="TOvHUw">
      <path class="cls-1" d="m31.11,14.96c.65.67,1.18,1.24,1.72,1.79.06.06.18.1.27.09,1.97-.26,3.96-.41,5.84-1.11.39-.15.78-.34,1.13-.58,1.02-.7,1.13-1.88.3-2.81-.13-.15-.28-.31-.34-.5-.19-.58.19-1.06.87-1.13,1.16-.13,2.03-.79,2.32-1.79.24-.82-.12-1.7-.86-2.1-.55-.3-.62-.85-.24-1.36.27-.37.52-.78.67-1.22.2-.6.11-1.19-.37-1.66-.48-.47-1.06-.57-1.66-.36-.43.15-.83.41-1.22.67-.49.32-1.05.26-1.32-.25-.54-1.01-1.93-1.24-2.88-.48-.6.48-.93,1.12-1.01,1.88-.04.41-.16.76-.57.91-.41.16-.75,0-1.07-.31-.95-.89-2.13-.74-2.85.34-.68,1.02-.91,2.2-1.15,3.38-.05.26-.08.52-.17.77-.16.43-.59.64-1.03.52-.41-.11-.7-.51-.62-.94.24-1.37.5-2.73,1.12-3.99.6-1.21,1.46-2.15,2.88-2.32.65-.08,1.32.07,2.05.13.14-.23.32-.59.56-.92,1.35-1.84,3.73-2.16,5.48-.74.2.16.32.11.5.02,1.04-.5,2.11-.71,3.21-.21,1.72.78,2.42,2.62,1.64,4.47-.21.51-.22.83.11,1.3,1.22,1.73.59,4.14-1.33,5.31-.22.14-.46.25-.72.39.07.22.15.45.21.69.36,1.56-.31,3.02-1.78,3.91-1.26.76-2.68,1.08-4.1,1.33-.86.15-1.73.26-2.65.4.03.11.05.21.09.31,1.77,4.16.32,8.59-3.57,10.91-5.08,3.02-10.16,6.04-15.24,9.07-3.17,1.88-6.33,3.78-9.51,5.65-2.24,1.33-4.98.26-5.67-2.2-.31-1.11-.09-2.13.49-3.11,2.43-4.07,4.85-8.14,7.28-12.22,2.47-4.15,4.94-8.3,7.4-12.45,1.43-2.4,3.52-3.86,6.29-4.23,2.5-.33,4.77.33,6.68,2.01.57.5,1.03,1.12,1.54,1.68.08,0,.16,0,.24,0,.08-.14.14-.31.25-.42,1.92-1.93,3.84-3.87,5.79-5.78.22-.21.59-.4.87-.38.68.05.97.87.52,1.39-.35.4-.73.76-1.11,1.13-1.62,1.62-3.23,3.24-4.85,4.85-.11.11-.27.17-.42.26Zm-21.4,25.13c2.52-1.5,5.01-2.98,7.54-4.49-.72-.72-1.39-1.38-2.05-2.04-.58-.58-.67-1.06-.27-1.47.41-.42.89-.34,1.47.24.68.68,1.38,1.36,2.05,2.06.23.24.39.29.7.1,1.76-1.07,3.54-2.11,5.31-3.17.62-.37,1.25-.75,1.9-1.14-.13-.14-.22-.25-.32-.35-1.24-1.24-2.49-2.49-3.73-3.73-.47-.47-.52-.97-.14-1.35.36-.37.9-.32,1.35.13,1.35,1.35,2.7,2.69,4.04,4.04.11.11.17.27.26.4.84-.5,1.57-.91,2.27-1.37,3.41-2.23,4.11-6.94,1.44-10.01-1.19-1.37-2.54-2.6-3.82-3.89-1.65-1.67-3.62-2.43-5.97-2.1-1,.14-1.92.48-2.78,1.07.13.14.24.26.35.37,1.25,1.25,2.52,2.5,3.75,3.77.21.22.37.59.35.88-.02.24-.31.53-.55.65-.33.17-.67.03-.95-.25-1.3-1.31-2.61-2.61-3.92-3.92-.11-.11-.23-.22-.38-.36-.27.39-.53.72-.75,1.08-1.21,2.02-2.41,4.05-3.63,6.06-.17.28-.12.42.09.62.69.66,1.37,1.32,2.01,2.03.2.22.36.6.33.88-.02.24-.32.5-.56.64-.33.18-.65.02-.91-.24-.68-.68-1.35-1.36-2.06-2.08-1.53,2.56-3.01,5.06-4.51,7.58.64.64,1.28,1.27,1.91,1.9.56.56.65,1.08.25,1.48-.4.41-.9.33-1.47-.25-.52-.53-1.04-1.05-1.56-1.58-.08.08-.1.1-.12.12-1.56,2.61-3.12,5.22-4.66,7.85-.47.8-.29,1.78.36,2.42.64.64,1.61.79,2.43.33.91-.51,1.79-1.05,2.68-1.58.23-.14.46-.28.73-.44-.47-.46-.9-.88-1.32-1.3-.44-.45-.47-.94-.1-1.32.36-.37.89-.33,1.32.09.53.53,1.05,1.06,1.62,1.63Z"/>
    </g>
  </g>
</svg>