<?xml version="1.0" encoding="UTF-8"?>
<svg id="Layer_2" data-name="Layer 2" xmlns="http://www.w3.org/2000/svg" viewBox="0 0 36.62 45">
  <g id="Background">
    <path d="m31.17,5.82c.27-.07.49-.14.72-.18,1.72-.32,3.2.8,3.24,2.55.02.76.11,1.33.71,1.91.8.77.82,1.89.57,2.93-.19.79-.57,1.54-.85,2.32-.05.15-.13.31-.1.45.19,1,0,1.93-.48,2.8-.78,1.44-1.89,2.53-3.41,3.2-.13.06-.25.16-.33.28-.9,1.46-2.16,2.48-3.7,3.2-1.58.74-3.26,1.1-5,1.16-1.25.04-2.5,0-3.8,0-.13,2.97,0,5.89.51,8.85.08-.18.14-.32.2-.46.62-1.52,1.48-2.87,2.72-3.96.63-.56,1.33-1.01,2.19-1.1.94-.1,1.21-.1,1.63.78.26-.15.52-.3.78-.45.82-.44,1.67-.72,2.62-.6.77.1,1.33.44,1.55,1.22.08.29.25.4.55.37.55-.05,1.1-.09,1.65-.12.29-.02.58-.04.87-.03,1.36.05,1.89.77,1.52,2.1.16.12.34.25.51.39.63.53.76,1.2.39,1.93-.35.67-.88,1.18-1.54,1.53-.94.5-1.9.95-2.86,1.41-.3.14-.44.38-.35.67.34,1.22-.85,2.15-1.93,2.14-.7,0-1.39-.15-2.09-.24-.14-.02-.27-.05-.4-.1-.63-.21-1.15-.18-1.74.29-1.29,1.01-2.78.9-4.27.45-.12-.04-.23-.08-.35-.12-.01,0-.03,0-.09,0,.03.11.04.21.07.3.24.57.48,1.14.74,1.71.3.65.16,1.23-.38,1.49-.56.27-1.11.03-1.44-.63-.93-1.92-1.59-3.94-2.06-6.02-.04-.17-.08-.34-.13-.57-.16.08-.29.14-.42.21-1.42.69-2.85,1.35-4.41,1.62-.12.02-.25.03-.37.04-.99.05-1.43-.34-1.49-1.32-1.33.05-2.66.09-4,.14-.47.02-.84-.24-.84-.71,0-.27-.12-.35-.33-.43-1.26-.52-2.41-1.23-3.48-2.07-.09-.07-.17-.14-.25-.21-1.14-1.01-1.1-2.08.15-2.93.35-.24.48-.45.39-.89-.13-.67.28-1.32,1-1.51.62-.16,1.28-.2,1.92-.21.73-.01,1.44.04,2.17-.12.46-.1,1.02.04,1.48.21.63.23,1.21.58,1.84.9.21-.49.66-.55,1.15-.54,1.57.03,2.96.6,4.27,1.41.11.07.23.14.33.2,0-.78,0-1.53,0-2.28,0-.73,0-1.46.01-2.19,0-.56,0-.58-.58-.52-1.52.15-3.04.07-4.53-.17-2.1-.33-4.11-.93-5.69-2.43-.57-.55-1.03-1.22-1.55-1.82-.12-.14-.27-.26-.43-.35-1.82-.96-3.13-2.34-3.63-4.38-.19-.76-.09-1.5.22-2.23.07-.16.07-.4,0-.56-.41-1.05-.67-2.11-.44-3.23.16-.78.56-1.41,1.26-1.82.23-.13.23-.28.22-.51,0-.42-.03-.86.06-1.27.37-1.59,1.86-2.44,3.44-1.99.14.04.28.09.45.14,0-.47-.05-.9,0-1.32.27-2.1,1.99-3.25,4.04-2.71.28.07.55.17.82.29.77.35,1.16.26,1.72-.41C12.97.67,14.07.05,15.44.02c1.12-.03,2,.46,2.65,1.36.09.12.17.24.26.37,1.19-1.59,2.35-2.05,3.96-1.58.98.29,1.79.85,2.41,1.66.42.55.83.65,1.43.34.75-.39,1.55-.59,2.4-.46,1.75.26,2.78,1.68,2.66,3.61-.01.16-.02.32-.04.5Zm3.94,28.91c-.08-.12-.1-.16-.13-.18-.28-.17-.57-.34-.85-.52-.44-.27-.55-.68-.29-1.13.07-.13.14-.25.24-.43-.26,0-.45,0-.64,0-.76.04-1.51.12-2.27.12-.75,0-1.32-.38-1.55-1.09-.16-.47-.43-.58-.83-.5-.36.07-.73.16-1.06.32-.46.22-.88.51-1.32.78-.6.38-.94.33-1.38-.23-.09-.12-.19-.24-.25-.38-.11-.23-.27-.27-.47-.16-.37.21-.78.37-1.09.65-1.48,1.32-2.39,2.98-2.81,4.91-.04.18-.04.37-.06.53.99-.51,1.94-1.05,2.93-1.48,1.79-.77,3.61-1.48,5.57-1.65.47-.04.96.02,1.42.14.44.11.61.56.47.96-.13.38-.51.55-.94.46-.26-.05-.55-.09-.81-.06-2.66.37-5.11,1.36-7.41,2.72-.3.18-.56.45-.82.69-.18.17-.15.31.05.47,1.15.87,3.08.84,4.16-.1.47-.41,1-.58,1.61-.47.62.12,1.24.28,1.86.39.42.07.85.11,1.27.1.3,0,.47-.15.44-.54-.05-.93.19-1.71,1.05-2.05.46-.18.89-.44,1.33-.66.54-.27,1.11-.5,1.63-.81.35-.21.64-.54.94-.81Zm-18.04,1.49c-.88-.53-1.77-.82-2.69-1.01-1.25-.25-2.5-.45-3.76,0-.36.13-.74-.08-.89-.43-.15-.36-.03-.79.35-.95.39-.16.81-.29,1.23-.34,1.85-.2,3.63.16,5.35.83.12.05.24.09.37.14.03-.02.07-.05.1-.07-.11-.3-.14-.67-.34-.88-1.17-1.18-2.59-1.91-4.25-2.13-.15-.02-.37.07-.48.19-.43.44-.96.58-1.55.32-.28-.12-.52-.31-.79-.45-.45-.23-.91-.46-1.38-.65-.18-.07-.4-.04-.6-.02-.41.04-.81.14-1.22.15-.56.02-1.13-.03-1.7-.03-.25,0-.5.06-.78.1.05.15.07.23.11.3.38.83.33,1-.46,1.5-.32.2-.63.42-.98.66.14.15.22.26.32.34,1.18.96,2.45,1.75,3.89,2.24.38.13.8.17.96.62.02.04.11.09.17.08.89-.03,1.81.03,2.67-.14,1.17-.23,1.82.14,1.94,1.37,1.55-.35,2.96-1,4.41-1.77Zm.71-12.87c.08-.07.11-.09.12-.11.99-2.25,1.86-4.54,2.23-6.99.14-.94.2-1.9-.13-2.82-.28-.81-.89-1.21-1.72-1.28-.9-.08-1.79-.04-2.38.8-.14.2-.25.44-.3.67-.09.42-.17.84-.16,1.26.06,3.01,1.21,5.71,2.34,8.46Zm1.71.08c2.13-1.08,4.14-2.29,5.71-4.09.3-.34.55-.73.77-1.12.62-1.14.48-2.16-.38-3.12-.67-.74-1.16-.8-1.9-.12-1.21,1.12-2.01,2.52-2.6,4.03-.42,1.08-.75,2.19-1.14,3.28-.14.38-.3.76-.46,1.14Zm-3.34.09c-.5-1.43-1-2.77-1.45-4.13-.51-1.56-1.36-2.92-2.43-4.15-.17-.19-.38-.36-.6-.5-.53-.36-.91-.31-1.37.13-1.06,1-1.29,2.14-.56,3.4.36.63.83,1.21,1.35,1.72,1.46,1.47,3.23,2.53,5.07,3.54Zm3.95,1.42c.07.05.1.09.13.09.29,0,.58,0,.87,0,1.65-.02,3.28-.19,4.85-.7,1.46-.48,2.75-1.24,3.65-2.51.31-.43.56-.93.71-1.43.21-.7-.13-1.27-.77-1.49-.86-.29-2.22.14-2.75.86-.25.34-.52.68-.82.99-1.59,1.67-3.52,2.87-5.51,3.98-.12.06-.23.13-.36.21Zm-4.53.01c-.7-.41-1.38-.79-2.03-1.19-1.71-1.07-3.37-2.23-4.58-3.88-.68-.93-1.59-1.12-2.62-1.03-.67.06-1.09.56-1.02,1.22.05.44.2.89.41,1.28.5.9,1.26,1.57,2.12,2.11,1.55.98,3.28,1.34,5.07,1.48.86.07,1.72.01,2.65.01Zm4.33-13.89c.27-1.29.51-2.56.16-3.85-.22-.83-.77-1.33-1.62-1.44-.41-.05-.83-.05-1.24,0-.84.11-1.43.59-1.58,1.42-.13.69-.16,1.42-.14,2.13.02.58.17,1.15.26,1.75,1.43-.6,2.78-.6,4.16,0Zm1.95,3.62c.12-.13.27-.31.43-.47.63-.64,1.33-1.22,2.28-1.18.49.02.77-.16.99-.54.11-.19.25-.37.35-.56.73-1.32.52-2.52-.62-3.53-.4-.35-.76-.41-1.2-.12-.31.2-.64.43-.84.72-.7,1.03-1.35,2.1-2.02,3.16-.04.07-.06.19-.04.27.21.75.44,1.49.66,2.24Zm-8.03-.08c.19-.67.41-1.4.6-2.14.03-.11,0-.27-.05-.38-.36-.67-.69-1.36-1.13-1.97-.42-.6-.91-1.18-1.46-1.67-.58-.53-1.05-.45-1.59.11-1.02,1.06-1.16,2.15-.43,3.42.18.31.39.6.62.88.07.09.23.17.34.16.93-.09,1.66.31,2.32.9.29.25.57.51.77.7Zm12.07-7.67c.02-.58.09-1.1.06-1.61-.06-1.11-.7-1.7-1.81-1.74-1.16-.04-1.96.6-2.64,1.46-.33.41-.52.78-.17,1.32.21.32.24.75.33,1.14.06.26.07.53.11.86,1.12-1.23,2.25-2.32,4.13-1.43Zm-10.78-1.78c-.72-.96-1.55-1.63-2.79-1.56-.72.04-1.33.3-1.59,1.04-.23.64-.22,1.29-.07,1.97,1.46-.13,2.36.77,3.26,1.81.07-1.26.29-2.37,1.2-3.26Zm16.76,14.82c.42-.4.77-.7,1.08-1.04.56-.63.98-1.34,1.07-2.2.12-1.19-.48-1.67-1.64-1.45-1.27.24-1.67,1.4-2.56,2.13,1.26.39,1.91,1.2,2.05,2.57Zm-4.01-3.05s.07.04.11.05c.38-.33.78-.64,1.14-1,.55-.54,1-1.15,1.19-1.91.23-.91-.22-1.55-1.16-1.66-1.07-.12-2.1.43-2.67,1.43.84.85,1.37,1.85,1.39,3.08Zm-18.69-3.09c-.55-.94-1.06-1.27-2.15-1.42-1.35-.18-2.07.72-1.57,1.99.44,1.09,1.25,1.86,2.2,2.51.03.02.08,0,.14,0,0-1.24.56-2.23,1.38-3.08Zm-5.38,6.02c.16-1.3.82-2.08,2-2.43-.36-.41-.76-.77-1.02-1.21-.33-.55-.83-.78-1.4-.92-1.11-.28-1.66.17-1.64,1.32,0,.08,0,.17.02.25.24,1.26,1.01,2.17,2.04,2.99Zm26.33-8.89c.38-.87.74-1.82.57-2.88-.15-.9-.78-1.23-1.57-.76-.53.31-.97.76-1.46,1.14-.22.17-.19.35-.12.61.14.53.2,1.07.29,1.61.02.1,0,.21,0,.28h2.28Zm4.36,3.18c.41-.77.59-1.62.52-2.33-.1-.98-.92-1.53-1.8-1.1-.6.29-1.11.76-1.64,1.16-.07.05-.12.2-.1.28.16.56.35,1.11.54,1.69.8-.22,1.67-.23,2.49.3Zm-25.9-6.01c-.38-.28-.73-.58-1.12-.79-.87-.48-1.56-.11-1.65.89-.08.88.15,1.69.49,2.49.03.07.12.17.2.17.43.04.86.06,1.33.09-.14-1.03.15-1.95.75-2.84Zm-3.85,3.4c-.5-.3-.92-.62-1.39-.83-.87-.38-1.65.07-1.8,1.01-.12.73.07,1.41.32,2.04h1.93c-.02-.81.24-1.54.95-2.21ZM26.92,3.5c.58.96.6,1.98.52,2.92.69-.27,1.37-.53,2.05-.8.09-.04.18-.17.19-.26.05-.72,0-1.44-.66-1.89-.67-.45-1.36-.31-2.1.04Zm-17.83,2.94c-.12-1.01-.04-2.05.54-3.01-.71-.3-1.39-.4-2,.07-.62.47-.67,1.17-.61,1.87,0,.09.08.22.15.25.63.28,1.27.54,1.92.81Zm8.31-2.24c.1-1.07-.47-2.22-1.26-2.56-.71-.31-1.82-.03-2.39.62,1.11.37,1.95,1.08,2.61,2.01.04.06.17.09.24.08.27-.04.54-.1.8-.15Zm2.51.46c.73-1.15,1.66-2.04,2.99-2.45-.04-.06-.05-.11-.08-.13-1.34-.96-2.87-.8-3.38,1.06-.04.16-.08.32-.11.49q-.12.71.58,1.04Zm12.33,4.77c.12-.05.26-.11.4-.16.15-.06.31-.11.47-.15.57-.13.59-.12.54-.72-.02-.28-.1-.57-.24-.82-.27-.48-.87-.63-1.36-.39.06.37.15.73.18,1.1.03.37,0,.74,0,1.14ZM4.42,7.11c-.4-.04-.8.02-1.09.41-.33.44-.34.95-.24,1.46,0,.05.09.1.15.12.35.11.7.21,1.02.31.05-.74.1-1.48.16-2.3Z"/>
  </g>
</svg>