<?xml version="1.0" encoding="UTF-8"?>
<svg id="Layer_2" data-name="Layer 2" xmlns="http://www.w3.org/2000/svg" xmlns:xlink="http://www.w3.org/1999/xlink" viewBox="0 0 208.46 208.46">
  <defs>
    <style>
      .cls-1 {
        fill: #c12026;
      }

      .cls-1, .cls-2, .cls-3, .cls-4, .cls-5 {
        stroke-width: 0px;
      }

      .cls-2 {
        fill: none;
      }

      .cls-3 {
        fill: #fff;
      }

      .cls-4 {
        fill: #ec9226;
      }

      .cls-6 {
        clip-path: url(#clippath);
      }

      .cls-5 {
        fill: #ec9327;
      }
    </style>
    <clipPath id="clippath">
      <rect class="cls-2" y="0" width="208.46" height="208.46"/>
    </clipPath>
  </defs>
  <g id="Layer_1-2" data-name="Layer 1">
    <g>
      <g class="cls-6">
        <circle class="cls-3" cx="80.87" cy="77.84" r="116.7"/>
      </g>
      <g>
        <path class="cls-5" d="m132.15,66.21c-.13,2.89-2.25,6.57-6.4,8.98-4.18,2.43-8.49,2.46-12.61-.06-3.69-2.26-6.6-5.49-9.69-8.48-.83-.8-1.64-1.96-.64-3.12,3.66-4.21,6.76-9.17,12.1-11.42,8.27-3.48,17.3,3.06,17.23,14.1"/>
        <path class="cls-4" d="m61.4,65.87c-.3-5.48,2.19-9.2,6.58-11.34,4.59-2.24,9.39-2.19,13.59,1.22,2.73,2.22,5.23,4.71,7.86,7.05,1.22,1.09,1.9,2.55.87,3.79-3.41,4.08-6.44,8.77-11.47,11-8.5,3.76-17.39-2.53-17.43-11.72"/>
        <path class="cls-4" d="m96.34,29.62c5,.13,8.67,2.47,10.91,6.91,2.4,4.76,1.78,9.37-1.4,13.51-2.06,2.68-4.49,5.06-6.79,7.55-1.59,1.73-3.28,1.94-5.07.24-2.55-2.43-5.24-4.71-7.67-7.25-3.3-3.45-4.2-9.57-2.01-13.85,2.47-4.83,6.53-7.26,12.03-7.12"/>
        <path class="cls-1" d="m70.11,133.12h-6.41c-.22-1.02-.49-3.5-.6-5.22-2.68,3.83-6.47,6.17-14.39,6.17-13.36,0-21.04-9.73-21.04-23.04s8.1-23.48,22.65-23.48c13.06,0,18.68,7.47,19.93,13.99h-8.85c-1.07-2.87-3.86-6.78-11.1-6.78-9.12,0-13.41,6.95-13.41,15.79,0,9.32,4.41,16.26,13.44,16.26,7.57,0,11.33-4.18,11.33-10.62v-.91h-11.21v-7.37h19.67v25.21Z"/>
        <polygon class="cls-1" points="80.07 88.49 113.46 88.49 113.46 96.04 88.8 96.04 88.8 107.6 111.8 107.6 111.8 115.21 88.8 115.21 88.8 133.12 80.07 133.12 80.07 88.49"/>
        <path class="cls-1" d="m120.92,88.49h20.88c9.89,0,15.76,5.4,15.76,13.74,0,9.01-5.91,14.29-15.8,14.29h-12.06v16.6h-8.78v-44.63Zm8.78,20.62h11.26c4.74,0,7.86-1.65,7.86-6.73,0-4.08-2.42-6.52-7.86-6.52h-11.26v13.25Z"/>
      </g>
    </g>
  </g>
</svg>