<?xml version="1.0" encoding="UTF-8"?>
<svg id="Layer_2" data-name="Layer 2" xmlns="http://www.w3.org/2000/svg" viewBox="0 0 35.94 40">
  <defs>
    <style>
      .cls-1 {
        fill: #c22328;
        stroke-width: 0px;
      }
    </style>
  </defs>
  <g id="Background">
    <g id="qx9oue">
      <g>
        <path class="cls-1" d="m4.55,9.49c-.23-.04-.41-.1-.6-.11-.69-.05-1.01-.58-.7-1.21.42-.86.86-1.72,1.28-2.58.06-.11.11-.23.17-.36-.81-.44-1.34-1.07-1.52-1.98C2.85,1.64,4.11.04,5.76,0c.69-.01,1.38,0,2.07,0,7.39,0,14.79,0,22.18,0,1.63,0,2.86,1.25,2.79,2.86-.03.85-.41,1.55-1.1,2.06-.14.11-.3.2-.48.32.49.98.98,1.95,1.46,2.93.31.62-.01,1.16-.7,1.21-.04,0-.08,0-.12,0-.15.03-.29.07-.48.12.11.16.18.28.26.4,1.94,2.79,3.26,5.84,3.87,9.19.46,2.51.52,5.04.27,7.58-.32,3.31-1.06,6.5-2.44,9.54-.34.74-.74,1.46-1.17,2.15-.59.96-1.51,1.44-2.62,1.56-.56.06-1.12.08-1.67.08-6.61,0-13.22,0-19.84,0-.66,0-1.32-.06-1.98-.14-1.03-.13-1.81-.69-2.36-1.55-.98-1.52-1.66-3.17-2.2-4.88C.41,29.96-.1,26.42.02,22.81c.16-4.71,1.56-9.03,4.27-12.91.08-.11.15-.23.27-.41Zm13.81,4.57h-4.74c-3.2,0-6.4,0-9.61,0-.27,0-.42.07-.52.34-.16.44-.37.86-.53,1.3-1.18,3.14-1.55,6.39-1.35,9.73.16,2.73.66,5.38,1.51,7.97.09.28.23.37.52.37,9.54,0,19.08,0,28.62,0,.32,0,.45-.1.54-.4,1.48-4.6,2-9.28,1.16-14.07-.3-1.72-.84-3.37-1.57-4.96-.05-.11-.18-.26-.28-.26-.93-.02-1.87-.01-2.83-.01,0,.18,0,.32,0,.46,0,2,0,4.01,0,6.01,0,1.33-1.03,2.36-2.34,2.36-1.31,0-2.33-1.03-2.34-2.36,0-1.73,0-3.46,0-5.19,0-.1,0-.21,0-.31-.02-.46-.38-.81-.79-.8-.4,0-.74.35-.77.79,0,.14,0,.29,0,.43-.01,1.29-1.05,2.34-2.33,2.35-1.28.01-2.34-1.05-2.35-2.37,0-.44,0-.88,0-1.37Zm-13.28-6.06c.28.19.53.34.75.51.23.17.44.36.67.54.59.45,1.24.45,1.83,0,.25-.19.48-.4.73-.59,1.13-.88,2.62-.88,3.75,0,.25.19.48.4.73.59.57.43,1.23.44,1.8,0,.27-.2.52-.43.79-.63,1.09-.83,2.56-.83,3.66,0,.24.18.46.38.7.56.66.52,1.3.52,1.96.02.24-.18.46-.38.7-.56,1.11-.85,2.58-.85,3.69,0,.25.19.48.4.73.59.62.48,1.27.48,1.9,0,.45-.35.9-.69,1.38-1.06-.35-.7-.72-1.42-1.07-2.16-.12-.26-.27-.35-.56-.35-4.82.01-9.63,0-14.45,0-.72,0-1.08-.25-1.09-.77-.01-.53.36-.79,1.1-.79,5.06,0,10.13,0,15.19,0,.75,0,1.28-.49,1.28-1.17,0-.68-.53-1.17-1.29-1.17-.4,0-.81,0-1.21,0-7.57,0-15.15,0-22.72,0-.79,0-1.33.47-1.34,1.16,0,.71.54,1.19,1.35,1.19.44,0,.89,0,1.33,0,.49,0,.84.34.84.79,0,.45-.35.76-.85.77-.26,0-.52-.01-.78,0-.11,0-.26.08-.3.16-.41.78-.79,1.57-1.19,2.36Zm-1.26,27.32c.46.8.85,1.54,1.29,2.26.3.48.79.71,1.34.78.4.05.8.08,1.21.08,6.82,0,13.64,0,20.46,0,.44,0,.89,0,1.32-.09.39-.09.84-.22,1.12-.48.72-.69,1.06-1.63,1.5-2.54H3.82ZM19.93,10.6c0,.06-.01.13-.01.21,0,1.51,0,3.02,0,4.53,0,.52.32.89.77.9.46,0,.77-.37.8-.91.02-.35.03-.71.13-1.04.33-1.06,1.45-1.76,2.48-1.59,1.23.2,2.07,1.12,2.07,2.31,0,1.83,0,3.67,0,5.5,0,.51.32.83.78.83.44,0,.78-.32.78-.8,0-3.15,0-6.3,0-9.44,0-.1-.05-.23-.13-.28-.55-.38-1.13-.72-1.68-1.11-.62-.43-1.27-.44-1.87.02-.25.19-.48.4-.73.59-.64.49-1.36.71-2.15.61-.41-.05-.82-.21-1.24-.33Zm-1.57,1.89c0-.86,0-1.68,0-2.5,0-.63-.14-.74-.76-.56-.21.06-.4.18-.58.3-.25.18-.48.4-.73.58-1.11.84-2.58.84-3.69,0-.27-.21-.52-.43-.79-.63-.56-.41-1.21-.41-1.77.01-.26.2-.5.41-.76.61-.63.49-1.36.73-2.15.62-.46-.06-.91-.24-1.41-.38-.39.61-.81,1.26-1.25,1.95h13.89Zm13.11,0c-.46-.71-.89-1.36-1.3-2-.26.12-.47.2-.66.3-.09.05-.2.14-.2.22-.02.49,0,.98,0,1.47h2.18Z"/>
        <path class="cls-1" d="m12.66,25.86c0-.38.02-.76,0-1.13-.02-.45.17-.73.55-.94.5-.27,1-.56,1.48-.86.11-.07.22-.25.22-.39.02-.6.02-1.2,0-1.8,0-.38.15-.64.47-.83.7-.4,1.4-.8,2.09-1.21.32-.19.63-.2.96-.01.71.41,1.42.82,2.12,1.23.3.18.46.44.45.8-.01.59,0,1.17,0,1.76,0,.24.08.37.29.49.49.26.97.56,1.46.83.37.2.55.48.54.91-.02.78-.01,1.56,0,2.34,0,.38-.14.65-.46.84-.71.41-1.42.82-2.12,1.23-.32.19-.64.17-.96-.02-.48-.29-.97-.55-1.45-.84-.23-.14-.4-.16-.64,0-.47.3-.97.56-1.45.85-.35.21-.67.2-1.02,0-.67-.4-1.34-.79-2.02-1.17-.35-.2-.53-.47-.51-.89.02-.39,0-.78,0-1.17Zm3.86-3.92c-.22.69.15.99.7,1.32.55.32.94.32,1.49,0,.57-.33.77-.67.76-1.33,0-.64-.2-.97-.75-1.3-.57-.33-.97-.34-1.52,0-.52.33-.92.61-.69,1.3Zm.63,3.93c.23-.69-.16-.99-.71-1.31-.55-.33-.94-.3-1.49,0-.58.32-.76.68-.76,1.33,0,.62.18.96.73,1.27.57.33.98.37,1.56.01.54-.33.89-.64.68-1.31Zm4.53,0c.22-.67-.15-.97-.68-1.3-.58-.36-.99-.32-1.56,0-.55.32-.71.66-.72,1.27-.02.66.2,1.01.76,1.33.55.31.94.35,1.49,0,.53-.33.95-.62.71-1.31Z"/>
        <path class="cls-1" d="m10.95,5.47c-.43,0-.8-.35-.79-.78,0-.41.35-.77.76-.78.43,0,.8.35.8.78,0,.41-.35.77-.76.78Z"/>
      </g>
    </g>
  </g>
</svg>