<?xml version="1.0" encoding="UTF-8"?>
<svg id="Layer_2" data-name="Layer 2" xmlns="http://www.w3.org/2000/svg" viewBox="0 0 76.92 76.92">
  <defs>
    <style>
      .cls-1 {
        fill: #c02227;
      }

      .cls-1, .cls-2 {
        stroke-width: 0px;
      }

      .cls-2 {
        fill: #fff5ea;
      }
    </style>
  </defs>
  <g id="Layer_1-2" data-name="Layer 1">
    <g>
      <circle class="cls-2" cx="38.46" cy="38.46" r="38.46"/>
      <g>
        <path class="cls-1" d="m38.46,18.61c6.47,0,7.23.02,9.78.14,2.36.11,3.64.5,4.5.83,1.13.44,1.94.96,2.78,1.81.85.85,1.37,1.65,1.81,2.78.33.85.73,2.14.83,4.5.12,2.55.14,3.32.14,9.78s-.02,7.23-.14,9.78c-.11,2.36-.5,3.64-.83,4.5-.44,1.13-.96,1.94-1.81,2.78-.85.85-1.65,1.37-2.78,1.81-.85.33-2.14.73-4.5.83-2.55.12-3.32.14-9.78.14s-7.23-.02-9.78-.14c-2.36-.11-3.64-.5-4.5-.83-1.13-.44-1.94-.96-2.78-1.81-.85-.85-1.37-1.65-1.81-2.78-.33-.85-.73-2.14-.83-4.5-.12-2.55-.14-3.32-.14-9.78s.02-7.23.14-9.78c.11-2.36.5-3.64.83-4.5.44-1.13.96-1.94,1.81-2.78.85-.85,1.65-1.37,2.78-1.81.85-.33,2.14-.73,4.5-.83,2.55-.12,3.32-.14,9.78-.14m0-4.36c-6.58,0-7.4.03-9.98.15-2.58.12-4.34.53-5.88,1.13-1.59.62-2.94,1.45-4.29,2.79-1.35,1.35-2.17,2.7-2.79,4.29-.6,1.54-1.01,3.3-1.13,5.88-.12,2.58-.15,3.41-.15,9.98s.03,7.4.15,9.98c.12,2.58.53,4.34,1.13,5.88.62,1.59,1.45,2.94,2.79,4.29,1.35,1.35,2.7,2.17,4.29,2.79,1.54.6,3.3,1.01,5.88,1.13,2.58.12,3.41.15,9.98.15s7.4-.03,9.98-.15c2.58-.12,4.34-.53,5.88-1.13,1.59-.62,2.94-1.45,4.29-2.79,1.35-1.35,2.17-2.7,2.79-4.29.6-1.54,1.01-3.3,1.13-5.88.12-2.58.15-3.41.15-9.98s-.03-7.4-.15-9.98c-.12-2.58-.53-4.34-1.13-5.88-.62-1.59-1.45-2.94-2.79-4.29-1.35-1.35-2.7-2.17-4.29-2.79-1.54-.6-3.3-1.01-5.88-1.13-2.58-.12-3.41-.15-9.98-.15h0Z"/>
        <path class="cls-1" d="m38.46,26.02c-6.87,0-12.43,5.57-12.43,12.43s5.57,12.43,12.43,12.43,12.43-5.57,12.43-12.43-5.57-12.43-12.43-12.43Zm0,20.51c-4.46,0-8.07-3.61-8.07-8.07s3.61-8.07,8.07-8.07,8.07,3.61,8.07,8.07-3.61,8.07-8.07,8.07Z"/>
        <circle class="cls-1" cx="51.38" cy="25.53" r="2.91"/>
      </g>
    </g>
  </g>
</svg>