<?xml version="1.0" encoding="UTF-8"?>
<svg id="Layer_2" data-name="Layer 2" xmlns="http://www.w3.org/2000/svg" viewBox="0 0 76.92 76.92">
  <defs>
    <style>
      .cls-1 {
        fill: #c02227;
      }

      .cls-1, .cls-2 {
        stroke-width: 0px;
      }

      .cls-2 {
        fill: #fff5ea;
      }
    </style>
  </defs>
  <g id="Layer_1-2" data-name="Layer 1">
    <g>
      <circle class="cls-2" cx="38.46" cy="38.46" r="38.46"/>
      <g id="SGX11U">
        <g>
          <path class="cls-1" d="m54.04,28.24c0,1.58-.02,3.17.01,4.75.01.66-.22,1.09-.78,1.43-4.47,2.75-8.93,5.51-13.38,8.3-.75.47-1.37.52-2.14.03-4.47-2.8-8.96-5.57-13.45-8.34-.53-.32-.77-.73-.76-1.36.02-3.25.02-6.5,0-9.75,0-.65.22-1.11.79-1.44,1.72-1.02,3.43-2.06,5.13-3.12.61-.38,1.1-.31,1.68.06,1.65,1.08,3.33,2.11,5.01,3.15,1.78,1.09,3.55,1.1,5.33-.03,1.66-1.06,3.36-2.07,5.02-3.14.59-.38,1.09-.4,1.68-.03,1.69,1.06,3.41,2.09,5.13,3.12.53.32.77.74.76,1.37-.02,1.67,0,3.33,0,5Zm-24.72-2.64s-.06.1-.1.15c2.79,1.6,5.57,3.21,8.38,4.77.61.34.85.73.86,1.43.03,2.23.13,4.46.2,6.7.12,0,.23,0,.35,0,0-2.3.01-4.6-.01-6.91,0-.55.19-.85.66-1.11,2.37-1.33,4.73-2.69,7.09-4.04.23-.13.45-.29.67-.43-.36,0-.64.13-.9.27-2.32,1.2-4.65,2.38-6.95,3.61-.6.32-1.07.34-1.69.02-2.84-1.51-5.71-2.97-8.57-4.45Z"/>
          <path class="cls-1" d="m54.97,58.21h-1.75c-.06-.27-.11-.53-.17-.8-2.79,1.41-4.62,1.2-5.99-.68-1.32-1.8-1.17-4.46.36-6.07,1.5-1.58,3.41-1.66,5.71-.12v-4.74h1.83v12.41Zm-6.85-4.36c-.03,1.62,1.01,2.8,2.51,2.84,1.49.04,2.61-1.11,2.65-2.71.04-1.59-1.03-2.8-2.52-2.83-1.51-.04-2.61,1.09-2.64,2.7Z"/>
          <path class="cls-1" d="m63.2,50.49c.05-.32.08-.56.13-.86h1.79v8.56h-1.76c-.05-.25-.1-.49-.18-.88-1.21,1.08-2.61,1.41-4.02.83-.8-.33-1.58-.98-2.08-1.68-1.27-1.78-.93-4.39.6-5.9,1.51-1.48,3.36-1.53,5.53-.08Zm.21,3.41c0-1.61-1.08-2.76-2.59-2.75-1.49,0-2.57,1.18-2.57,2.78,0,1.6,1.11,2.77,2.6,2.76,1.5-.01,2.57-1.18,2.56-2.79Z"/>
          <path class="cls-1" d="m42.92,50.51c.06-.35.1-.62.14-.91h1.76c.02.32.06.61.06.9,0,2.25-.03,4.49.02,6.74.02.79-.19,1.14-1,1.01-.27-.04-.54,0-.84,0-.05-.31-.09-.55-.15-.92-1.25,1.04-2.67,1.42-4.1.8-.79-.34-1.56-.99-2.06-1.71-1.27-1.83-.88-4.46.71-5.94,1.53-1.42,3.36-1.43,5.45.03Zm.22,3.38c-.01-1.6-1.11-2.76-2.61-2.75-1.5,0-2.56,1.17-2.56,2.79,0,1.61,1.1,2.77,2.6,2.75,1.49-.01,2.58-1.21,2.57-2.79Z"/>
          <path class="cls-1" d="m24.77,50.51c.05-.33.08-.57.12-.87h1.78v8.56h-1.76c-.04-.26-.08-.5-.15-.9-1.18,1.07-2.53,1.42-3.89.89-.83-.32-1.66-.95-2.19-1.67-1.34-1.8-.99-4.5.62-6.01,1.52-1.44,3.39-1.47,5.47,0Zm.22,3.43c0-1.61-1.06-2.78-2.56-2.79-1.5-.02-2.59,1.13-2.61,2.74-.02,1.6,1.06,2.78,2.55,2.8,1.49.02,2.6-1.15,2.61-2.75Z"/>
          <path class="cls-1" d="m30.72,56.52c1.26,0,2.25,0,3.24,0q1.55,0,1.31,1.66h-6.95c-.17-.82-.09-1.5.5-2.16,1.31-1.46,2.53-2.99,3.94-4.67h-4.33c-.05-.26-.11-.41-.11-.57q-.05-1.21,1.19-1.21c1.88,0,3.76,0,5.65,0,.18.88.14,1.56-.46,2.23-1.31,1.47-2.54,3-3.97,4.72Z"/>
          <path class="cls-1" d="m11.8,46.49h1.97c0,.73,0,1.42,0,2.1,0,2.3.02,4.6-.01,6.9,0,.61.17.86.8.81.61-.05,1.22.04,1.83-.02.74-.07,1.02.21.92.94-.04.29,0,.6,0,.96h-5.51v-11.69Z"/>
        </g>
      </g>
    </g>
  </g>
</svg>