<?xml version="1.0" encoding="UTF-8"?>
<svg id="Layer_2" data-name="Layer 2" xmlns="http://www.w3.org/2000/svg" viewBox="0 0 45.1 45">
  <defs>
    <style>
      .cls-1 {
        fill: #c22328;
        stroke-width: 0px;
      }
    </style>
  </defs>
  <g id="Background">
    <g id="oeZreb">
      <g>
        <path class="cls-1" d="m45.09,32.09c0,2.32-.01,4.64,0,6.95,0,.59-.23.95-.77,1.19-3.45,1.53-6.9,3.07-10.34,4.62-.42.19-.79.2-1.22,0-3.28-1.48-6.57-2.94-9.85-4.42-.26-.12-.47-.12-.73,0-3.27,1.47-6.54,2.92-9.81,4.4-.45.2-.84.21-1.29,0-3.45-1.56-6.91-3.1-10.38-4.64C.21,39.98,0,39.65,0,39.11,0,34.46.01,29.81,0,25.16c0-.58.23-.92.75-1.15,3.22-1.43,6.44-2.87,9.67-4.3.32-.14.43-.29.43-.64-.01-4.37,0-8.74-.02-13.12,0-.59.22-.94.77-1.18,3.45-1.53,6.9-3.07,10.34-4.62.42-.19.79-.2,1.21,0,3.44,1.55,6.89,3.09,10.34,4.62.56.25.78.61.78,1.23-.02,4.36,0,8.71-.02,13.07,0,.34.09.51.42.65,3.23,1.42,6.44,2.87,9.67,4.3.54.24.77.58.77,1.18-.03,2.3-.01,4.61-.01,6.91ZM12.62,7.05c-.01.14-.02.2-.02.26,0,3.96,0,7.92-.01,11.88,0,.32.17.39.39.49,2.66,1.18,5.32,2.37,7.98,3.56.22.1.45.2.72.31,0-.85,0-1.64,0-2.43,0-.53.38-.9.88-.9.49,0,.86.37.88.9,0,.18,0,.35,0,.53,0,.62,0,1.24,0,1.89.12-.04.18-.05.23-.08,2.85-1.27,5.69-2.55,8.54-3.81.27-.12.31-.29.3-.55,0-3.87,0-7.74,0-11.62,0-.13-.01-.25-.02-.41-.09.02-.14.03-.19.05-2.87,1.28-5.75,2.56-8.61,3.85-.12.05-.23.25-.23.39-.03.56,0,1.11-.01,1.67,0,.57-.36.95-.87.95-.51,0-.87-.38-.88-.94,0-.53-.02-1.06,0-1.58.01-.3-.09-.43-.36-.55-2.16-.95-4.3-1.91-6.45-2.87-.73-.33-1.46-.65-2.25-1Zm10.83,19.24c0,.12-.02.19-.02.26,0,3.96,0,7.92,0,11.88,0,.28.12.37.34.47,2.69,1.19,5.37,2.39,8.05,3.59.21.09.42.18.66.29.02-.11.03-.16.03-.21,0-3.99,0-7.98-.01-11.97,0-.14-.18-.35-.33-.41-2.09-.95-4.19-1.88-6.29-2.82-.8-.36-1.6-.71-2.42-1.07Zm-21.66,0c-.01.12-.02.17-.02.23,0,3.97,0,7.95,0,11.92,0,.29.14.37.35.46,2.62,1.16,5.23,2.34,7.85,3.5.27.12.55.24.85.37,0-.13.02-.2.02-.27,0-3.96,0-7.92,0-11.88,0-.26-.11-.36-.31-.45-.91-.4-1.82-.81-2.73-1.21-1.99-.89-3.98-1.77-6.02-2.69Zm32.47,16.5c.13-.05.19-.07.24-.09,2.84-1.27,5.69-2.54,8.53-3.8.28-.12.3-.29.3-.54,0-3.88,0-7.77,0-11.65,0-.12-.02-.24-.03-.37-.08.02-.13.03-.16.05-2.87,1.28-5.74,2.57-8.61,3.84-.28.12-.26.3-.26.52,0,3.86,0,7.71,0,11.57,0,.14,0,.29,0,.49Zm-21.66-.01c.16-.05.27-.08.37-.13,2.78-1.24,5.55-2.49,8.33-3.72.28-.12.38-.27.38-.58-.01-3.87,0-7.74,0-11.61v-.43c-.13.05-.23.08-.32.12-2.82,1.26-5.63,2.52-8.45,3.77-.27.12-.31.29-.3.54,0,3.86,0,7.71,0,11.57,0,.14,0,.28,0,.47ZM31.18,5.7c-.13-.08-.18-.11-.23-.13-2.72-1.22-5.45-2.44-8.18-3.65-.14-.06-.37-.03-.52.03-2.45,1.08-4.89,2.18-7.34,3.27-.31.14-.62.28-1,.45.14.08.2.11.26.14,2.71,1.21,5.42,2.43,8.14,3.63.14.06.37.04.52-.03,1.26-.55,2.51-1.12,3.77-1.68,1.49-.67,2.99-1.33,4.57-2.04Zm-10.83,19.24c-.09-.06-.14-.1-.19-.12-2.72-1.22-5.44-2.44-8.17-3.64-.17-.07-.43-.04-.61.03-1.34.58-2.67,1.19-4.01,1.78-1.41.63-2.83,1.26-4.29,1.91.15.07.25.13.35.17,2.2.99,4.4,1.97,6.6,2.96.56.25,1.13.67,1.69.67.56,0,1.13-.42,1.69-.67,2.3-1.02,4.59-2.05,6.94-3.1Zm21.65,0c-.08-.06-.13-.1-.18-.12-2.72-1.22-5.44-2.44-8.17-3.64-.17-.07-.43-.05-.61.03-2.63,1.16-5.26,2.34-7.89,3.51-.12.05-.24.12-.4.21,2.84,1.27,5.63,2.52,8.43,3.74.15.07.4.02.57-.05,1.45-.63,2.89-1.28,4.33-1.92,1.3-.58,2.61-1.17,3.93-1.77Z"/>
        <path class="cls-1" d="m22.55,16.23c.51,0,.89.39.87.89-.01.47-.42.85-.88.85-.47,0-.86-.39-.87-.86,0-.5.37-.88.88-.88Z"/>
      </g>
    </g>
  </g>
</svg>