<?xml version="1.0" encoding="UTF-8"?>
<svg id="Layer_2" data-name="Layer 2" xmlns="http://www.w3.org/2000/svg" viewBox="0 0 50.62 45">
  <g id="Background">
    <g id="MhMa9u">
      <g>
        <path d="m24.45,40.07c-.49-.2-.95-.41-1.43-.57-1.07-.36-1.69-1.1-1.62-2.2.08-1.23-.46-2-1.4-2.65-.81-.56-1.16-1.4-.8-2.33.47-1.21.3-2.21-.51-3.22-.57-.7-.53-1.52-.06-2.31.2-.33.45-.5.84-.49.57.01,1.14,0,1.66,0,.1-1.09.14-2.11.31-3.11.4-2.45,1.49-4.57,3.12-6.42.18-.21.26-.36.1-.63-.24-.43-.43-.89-.61-1.34-.15-.37-.41-.53-.8-.52-.46,0-.92,0-1.38-.01-.6-.01-1.13-.2-1.56-.62-.15-.15-.31-.3-.46-.44-1.06-1-.74-1.04-2.29-.46-.27.1-.4.25-.41.53-.01.26-.02.53-.05.79-.05.45-.38.74-.79.71-.39-.03-.74-.34-.66-.76.15-.82-.3-1.04-.94-1.33-.88-.38-1.53-.36-2.14.44-.69.9-1.65,1.26-2.79,1.15-.24-.02-.49,0-.74,0-.35,0-.59.14-.73.47-.17.41-.38.8-.54,1.21-.26.65-.72,1.08-1.38,1.32-.39.14-.76.33-1.15.44-.47.14-.64.45-.66.91-.02.44-.07.89-.09,1.33-.03.58-.29,1.04-.72,1.41-.38.34-.77.67-1.17.99-.27.22-.36.47-.25.82.14.44.22.89.35,1.33.19.65.07,1.23-.29,1.79-.26.4-.55.79-.74,1.22-.1.21-.1.55,0,.76.22.46.53.87.79,1.3.31.51.42,1.06.25,1.65-.13.46-.21.93-.36,1.38-.12.38,0,.63.28.86.39.31.76.64,1.13.96.88.75.81,1.78.75,2.78-.01.18-.36.46-.58.49-.22.03-.49-.17-.71-.31-.09-.06-.15-.24-.13-.36.18-1.13-.5-1.76-1.3-2.33-.91-.66-1.23-1.55-.83-2.6.4-1.04.31-1.93-.42-2.81-.74-.9-.72-1.91.01-2.8.71-.87.81-1.74.41-2.77-.41-1.07-.1-1.99.85-2.63.9-.61,1.36-1.36,1.3-2.5-.07-1.14.53-1.97,1.66-2.27,1.09-.29,1.76-.92,2.11-2.01.34-1.08,1.18-1.63,2.31-1.52,1.15.12,2.02-.25,2.76-1.14.72-.86,1.65-.99,2.68-.57.39.16.8.3,1.24.47.14-.55.27-1.06.43-1.67-.66.09-1.28.16-1.9.26-3.46.58-6.9-1.93-7.37-5.41-.11-.81-.24-1.62-.37-2.44-.14-.91.42-1.73,1.33-1.88,1.02-.16,2.05-.3,3.07-.43.31-.04.62-.02.93.02.47.05.77.36.75.75-.02.42-.39.68-.85.72-1.18.1-2.35.24-3.52.37-.08,0-.15.05-.29.11.2,1.12.32,2.25.63,3.33.66,2.31,3.02,3.75,5.4,3.4.84-.12,1.69-.26,2.62-.4-.08-.58-.15-1.16-.23-1.73-.16-1.24-.42-2.44-1.3-3.39-.27-.29-.57-.54-.87-.8-.42-.37-.5-.75-.21-1.11.28-.34.71-.37,1.14-.05,1.55,1.15,2.38,2.72,2.63,4.62.02.18.06.35.09.55.53-.5,1.04-.98,1.55-1.44.19-.17.42-.32.65-.45.43-.25.85-.16,1.08.22.22.35.13.77-.27,1.02-1.88,1.15-2.77,2.96-3.37,4.98-.03.11-.04.22-.06.32.05.02.08.04.1.03,1.13-.46,2.1-.22,2.87.71.64.77,1.41,1.1,2.42.99,1.28-.13,2.14.44,2.58,1.66.11.3.27.59.42.91.48-.34.92-.68,1.39-.98,5.3-3.38,12.25-2.55,16.63,1.98.4.41.45.85.15,1.17-.32.33-.79.28-1.2-.14-2.21-2.25-4.9-3.43-8.04-3.6-5.41-.29-10.59,3.62-11.84,8.91-.27,1.16-.39,2.33-.3,3.55h23.4c.12-1.29.02-2.54-.37-3.76-.28-.89-.66-1.75-1.03-2.6-.25-.58-.2-.96.24-1.18.42-.21.78-.05,1.07.48,1.12,2.07,1.66,4.27,1.61,6.62,0,.13,0,.26,0,.47.47,0,.9,0,1.34,0,1.13,0,1.87.92,1.52,2.02-.19.6-.55,1.15-.9,1.68-.28.42-.37.81-.19,1.29.13.37.2.76.3,1.14.2.79-.03,1.46-.61,2.01-.29.27-.58.54-.91.76-.49.33-.68.76-.68,1.33,0,.39-.04.79-.09,1.18-.09.77-.5,1.4-1.22,1.6-1.38.39-2.24,1.17-2.69,2.54-.26.79-1.02,1.22-1.85,1.13-1.35-.14-2.36.3-3.23,1.33-.57.67-1.42.86-2.21.47-1.23-.62-2.36-.62-3.59-.01-.82.41-1.69.21-2.29-.5-.83-.99-1.81-1.42-3.1-1.27-.84.09-1.48-.35-1.97-1.12-.59,1.03-1.53,1.23-2.56,1.13-.81-.07-1.48.14-2,.8-.16.2-.37.37-.57.55-.62.57-1.39.83-2.14.45-1.27-.64-2.46-.64-3.73,0-.75.37-1.58.19-2.12-.45-.89-1.05-1.94-1.5-3.32-1.36-.81.08-1.43-.4-1.82-1.13-.15-.29-.29-.59-.4-.9-.21-.56-.48-1.01-1.12-1.2-.41-.12-.56-.55-.42-.92.15-.39.54-.56.97-.43.82.24,1.43.71,1.74,1.54.14.37.33.72.48,1.08.14.35.38.51.76.5.38,0,.76.02,1.14,0,.82-.02,1.48.27,2.08.84,1.43,1.36.88,1.31,2.8.56.79-.31,1.51-.27,2.29.03,1.8.69,1.32.78,2.64-.52.66-.64,1.39-.97,2.3-.92.08,0,.16,0,.25,0q1.4-.02,1.91-1.48Zm24.71-12.25h-29.43c.1.22.15.38.24.53.23.4.48.79.72,1.17.36.56.47,1.14.28,1.79-.13.44-.21.89-.35,1.33-.11.35-.02.6.26.82.4.32.78.66,1.17.99.43.37.68.83.71,1.41.03.48.07.95.1,1.43.02.39.19.64.56.78,2.52.94,2.14.79,3.14,2.97.17.36.41.51.8.51,2.58,0,2.29.02,3.98,1.64.29.28.58.34.94.2.44-.18.89-.35,1.33-.52.56-.22,1.12-.21,1.68,0,.32.12.66.22.96.38.61.33,1.11.27,1.55-.3.87-1.12,2.03-1.56,3.43-1.4.06,0,.13,0,.2,0,.48.06.76-.16.95-.6.97-2.27.81-1.98,2.95-2.82.49-.19.72-.48.71-.98,0-.16.02-.33.01-.49-.03-1.12.35-2.02,1.32-2.64.14-.09.24-.23.38-.32.56-.33.69-.79.43-1.38-.56-1.32-.4-2.53.54-3.62.09-.11.17-.24.24-.37.07-.14.12-.29.2-.49Z"/>
        <path d="m17.59,36.91c.52,0,.86.3.89.7.03.4-.27.73-.71.78-.21.02-.43.05-.63.03-.37-.04-.59-.26-.62-.64-.03-.39.14-.67.53-.77.2-.05.42-.07.55-.09Z"/>
        <path d="m18.84,21.2c.45,0,1.13.63,1.14,1.06,0,.39-.31.71-.71.73-.47.02-1.14-.58-1.16-1.02-.01-.41.33-.76.73-.77Z"/>
        <path d="m14.85,27.43c-.41,0-.7-.31-.7-.72,0-.47.61-1.13,1.05-1.14.41,0,.74.35.73.76-.01.47-.63,1.11-1.08,1.1Z"/>
        <path d="m7.99,34.33c-.41-.01-.73-.38-.71-.78.03-.44.66-1.09,1.06-1.08.4,0,.76.37.74.76-.02.45-.68,1.12-1.1,1.11Z"/>
        <path d="m8.91,21.92c0,.46-.64,1.13-1.07,1.13-.41,0-.73-.35-.71-.78.02-.46.61-1.08,1.04-1.08.43,0,.75.31.75.73Z"/>
        <path d="m13.85,18.82c-.46,0-1.14-.61-1.15-1.04,0-.41.33-.74.75-.74.46,0,1.09.58,1.11,1.01.02.43-.29.76-.71.77Z"/>
        <path d="m13.93,34.67c0,.39-.38.75-.77.74-.46-.01-1.1-.66-1.09-1.09.01-.41.31-.7.72-.7.47,0,1.14.62,1.14,1.05Z"/>
        <path d="m8.49,27.74c-.04-.48.21-.83.63-.89.38-.05.71.21.81.68.03.14.05.29.06.43.02.5-.24.82-.67.85-.44.03-.74-.24-.81-.73-.01-.11-.02-.23-.03-.34Z"/>
        <path d="m33.07,31.95c-.4,0-.75-.38-.73-.77.02-.45.69-1.11,1.1-1.1.39.02.7.34.69.74,0,.48-.62,1.13-1.06,1.13Z"/>
        <path d="m31.34,36.68c0,.4-.3.71-.71.73-.47.02-1.15-.58-1.16-1.02-.01-.4.33-.76.74-.76.46,0,1.13.63,1.13,1.06Z"/>
        <path d="m26.56,31.57c-.57.01-.92-.25-.93-.7-.01-.43.34-.74.89-.78.77-.06,1.18.28,1.07.87-.07.41-.37.59-1.03.61Z"/>
        <path d="m37.36,37.69c.46,0,1.14.61,1.15,1.04,0,.41-.33.74-.75.74-.45,0-1.09-.58-1.11-1.01-.02-.43.29-.76.71-.77Z"/>
        <path d="m38.84,34.17c-.02.46-.69,1.11-1.11,1.09-.41-.02-.69-.34-.67-.76.02-.5.63-1.11,1.1-1.08.39.02.71.37.69.75Z"/>
        <path d="m43.39,29.97c.5,0,1.13.6,1.12,1.06,0,.4-.33.72-.72.73-.46,0-1.12-.64-1.12-1.08,0-.42.3-.71.72-.71Z"/>
      </g>
    </g>
  </g>
</svg>