<?xml version="1.0" encoding="UTF-8"?>
<svg id="Layer_2" data-name="Layer 2" xmlns="http://www.w3.org/2000/svg" viewBox="0 0 34.81 25.97">
  <defs>
    <style>
      .cls-1 {
        fill: #fff5ea;
        stroke-width: 0px;
      }
    </style>
  </defs>
  <g id="Layer_1-2" data-name="Layer 1">
    <path class="cls-1" d="m31.65,0C28.1,0,24.54,0,20.99,0h-5.92S12.09,0,12.09,0h-2.98C7.12,0,5.13,0,3.14,0,1.29,0,0,1.3,0,3.16v19.66c0,.21,0,.4.04.57.3,1.61,1.49,2.58,3.19,2.58h27.12c.47,0,.95,0,1.42,0,1.77-.03,3.05-1.33,3.05-3.09,0-6.59,0-13.19,0-19.78,0-.18,0-.37-.04-.54C34.47.99,33.27,0,31.65,0ZM2.57,1.74c.08-.01.15-.02.21-.04.15-.03.28-.05.41-.05,9.47,0,18.95,0,28.42,0,.12,0,.24.02.39.04l.24.04c.11.01.2.09.24.2s0,.22-.09.3l-14.8,12.83c-.05.05-.12.07-.19.07s-.13-.02-.19-.07L2.43,2.23c-.08-.07-.12-.19-.09-.29.03-.11.12-.18.23-.2Zm30.59,21c0,1.04-.55,1.59-1.59,1.59H3.23c-1.04,0-1.59-.55-1.59-1.59V4.36c0-.11.06-.21.17-.26.1-.04.22-.03.3.04l.64.55c.83.72,1.62,1.4,2.41,2.09l11.51,9.98c.57.49.9.49,1.47,0l14.56-12.61c.08-.07.2-.09.3-.04.1.05.17.15.17.26v18.38Z"/>
  </g>
</svg>