<?xml version="1.0" encoding="UTF-8"?>
<svg id="Layer_2" data-name="Layer 2" xmlns="http://www.w3.org/2000/svg" viewBox="0 0 52.22 45">
  <g id="Background">
    <g id="AfZJB2">
      <path d="m34.88,8.55c1.21-2.29,1.26-4.51-.27-6.73.8-.6,1.59-1.19,2.42-1.81.91,1.14,1.43,2.42,1.72,3.87.41-.26.77-.52,1.16-.75,3.49-2.04,7.31-1.61,10.24,1.18.72.69,1.37,1.45,2.06,2.19-1.25,1.63-2.63,3.02-4.43,3.93-2.74,1.39-5.4,1.14-7.97-.46-.56-.35-1.08-.76-1.64-1.16-.21.43-.44.83-.61,1.27-.04.11.07.34.18.45,2.18,1.97,3.59,4.41,4.35,7.22,1.33,4.91.6,9.58-1.89,13.98-2.14,3.79-5.26,6.62-8.89,8.93-2.86,1.81-5.93,3.13-9.25,3.81-5.31,1.08-10.46.62-15.36-1.79-2.18-1.07-4.1-2.48-5.46-4.53-1.07-1.6-1.6-3.32-.94-5.24.34-.99,1.04-1.73,1.73-2.48,1.47-1.6,3.01-3.14,4.41-4.79,1.44-1.7,2.22-3.79,3.06-5.83,1.47-3.59,3.5-6.82,6.55-9.31,2.67-2.18,5.73-3.42,9.19-3.7,3.27-.27,6.38.28,9.35,1.64.09.04.18.07.31.13Zm-18.2,33.49c1.28-.14,2.57-.22,3.84-.44,3.33-.56,6.42-1.78,9.28-3.58,3.63-2.29,6.59-5.21,8.46-9.14.95-2,1.46-4.12,1.46-6.33,0-1.95-.41-3.83-1.15-5.64-.92-2.22-2.36-3.99-4.42-5.23-2.07-1.25-4.33-1.78-6.73-1.86-4.33-.13-8.08,1.17-11.05,4.42-1.9,2.08-3.22,4.52-4.22,7.13-1.09,2.84-2.51,5.49-4.58,7.74-1.16,1.26-2.37,2.48-3.59,3.68-1.12,1.1-1.16,2.08-.33,3.47.78,1.31,1.98,2.18,3.23,2.97,2.99,1.9,6.29,2.69,9.82,2.8ZM40.38,6.56c2.57,2.28,5.34,2.19,7.61.04-2.34-2.1-4.87-2.39-7.61-.04Z"/>
    </g>
  </g>
</svg>