<?xml version="1.0" encoding="UTF-8"?>
<svg id="Layer_2" data-name="Layer 2" xmlns="http://www.w3.org/2000/svg" viewBox="0 0 37.36 45">
  <g id="Background">
    <g id="tD9ain">
      <g>
        <path d="m17.73,5.53c-.44-1.56-1.3-2.82-2.52-3.83-.09-.07-.19-.14-.27-.22-.36-.34-.41-.8-.14-1.14.3-.38.78-.46,1.16-.1.71.67,1.42,1.35,2.03,2.11.73.91,1.17,1.98,1.43,3.12.06.25.17.38.44.45,1.57.43,2.95,1.19,4,2.46.21.26.4.14.61.07,2.68-.93,5.22-.68,7.56.96,1.94,1.36,2.99,3.26,3.05,5.64.03.97-.17,1.92-.61,2.8-.14.27-.11.47.06.71,1.38,2.02,2.28,4.24,2.64,6.66.49,3.33.04,6.53-1.46,9.55-2.1,4.21-5.42,7.1-9.75,8.84-2.82,1.13-5.76,1.57-8.81,1.33-3.18-.25-6.15-1.14-8.84-2.84C3.84,39.29.96,35.33.18,30.03c-.62-4.22.32-8.14,2.75-11.66.23-.34.27-.6.12-.99-1.02-2.56-.22-5.69,1.89-7.51,1.97-1.7,4.23-2.35,6.81-1.89.18.03.45-.03.58-.15,1.43-1.36,3.12-2.09,5.08-2.2.07,0,.15-.01.22-.03.03,0,.05-.03.11-.07Zm-13.66,14.09c-2.23,3.38-3.01,7.16-2.1,11.21.97,4.34,3.51,7.61,7.25,9.92,3.87,2.4,8.12,3.15,12.59,2.37,4.21-.73,7.8-2.66,10.47-6.05,3.71-4.71,4.42-9.89,2.06-15.43-.28-.66-.68-1.27-1.03-1.93-.29.27-.49.48-.72.66-2.53,2.04-5.32,2.46-8.34,1.26-.29-.12-.49-.09-.75.1-2.73,2.05-6.61,2.09-9.38.09-.33-.23-.57-.25-.94-.11-2.28.89-4.53.79-6.68-.38-.86-.47-1.61-1.14-2.42-1.74Zm14.69-9c-1.17-.01-2.26.28-3.27.86-3,1.7-3.72,5.49-1.52,8.03,2.17,2.5,6.13,2.86,8.72.79,2.15-1.71,2.74-4.49,1.38-6.75-1.2-1.99-3.05-2.85-5.32-2.93Zm6.35,9.6c.08.04.15.08.22.1,1.63.51,3.23.42,4.78-.29,2.94-1.34,4.12-4.62,2.66-7.37-1.62-3.06-5.92-4-8.91-1.96,2.95,2.82,3.48,5.96,1.25,9.52Zm-11.36-9.63c-2.27-1.28-4.53-1.42-6.79-.13-2.68,1.53-3.61,4.77-2.06,7.29,1.25,2.03,3.17,2.91,5.52,2.87.67-.01,1.33-.2,2.06-.31-2.32-3.3-1.72-7.2,1.27-9.71Zm.1-1.91c.45.3.86.6,1.3.86.1.06.27.02.4-.01.72-.18,1.44-.37,2.15-.57.11-.03.28-.15.29-.24.03-.46.01-.92.01-1.41-1.57,0-2.93.41-4.15,1.36Zm8.7.92c0-.05,0-.1.01-.15-.77-.86-1.7-1.46-2.85-1.78,0,.41-.02.77.01,1.14,0,.09.16.21.26.25.67.2,1.34.39,2.02.55.17.04.37,0,.55,0Z"/>
        <path d="m4.07,29.76c0-.49.3-.92.66-.99.41-.08.8.22.95.73.48,1.71,1.21,3.29,2.31,4.68,1.08,1.36,2.4,2.38,4.15,2.75.14.03.28.08.42.13.45.18.67.56.56.96-.13.47-.57.71-1.06.61-2.19-.45-3.92-1.62-5.3-3.34-1.24-1.55-2.05-3.32-2.62-5.21-.04-.12-.05-.26-.06-.32Z"/>
      </g>
    </g>
  </g>
</svg>