<?xml version="1.0" encoding="UTF-8"?>
<svg id="Layer_2" data-name="Layer 2" xmlns="http://www.w3.org/2000/svg" viewBox="0 0 53.06 45">
  <defs>
    <style>
      .cls-1 {
        fill: #cc823c;
        stroke-width: 0px;
      }
    </style>
  </defs>
  <g id="Background">
    <g>
      <path class="cls-1" d="m46.99,24.04c-.5-.27-1.09-.56-1.78-.56h0c-.67,0-1.25.28-1.62.49t0,0c-.71.4-3.33,2.55-2.9,4.2.11.44.53,1.18,2.03,1.19h.12c.63,0,1.26-.03,1.87-.08.91-.08,1.87-.23,2.71-.78.83-.54,1.56-1.65,1.2-2.8-.26-.83-.97-1.31-1.62-1.66Zm-.48,3.07c-.53.35-1.25.45-1.95.52-.57.05-1.15.08-1.73.08-.23,0-.42-.02-.52-.04.18-.55,1.34-1.82,2.08-2.25.34-.19.59-.28.81-.28h0c.31,0,.67.18.99.36.34.19.75.43.83.7.08.26-.15.67-.52.91Z"/>
      <path class="cls-1" d="m32.3,23.98s0,0,0,0c-.37-.21-.95-.49-1.62-.49h0c-.69,0-1.28.29-1.78.56-.66.36-1.36.83-1.62,1.66-.36,1.15.37,2.26,1.2,2.8.84.55,1.8.7,2.71.78.62.05,1.25.08,1.88.08h.12c1.5,0,1.92-.75,2.03-1.19.43-1.65-2.19-3.8-2.9-4.2Zm.86,3.73c-.62.03-1.23-.02-1.84-.08-.7-.06-1.42-.17-1.95-.52-.37-.24-.6-.65-.52-.91.08-.27.49-.51.83-.7.32-.17.69-.36.99-.36h0c.22,0,.47.09.81.28.74.42,1.91,1.69,2.08,2.25-.08.02-.21.04-.41.04Z"/>
      <path class="cls-1" d="m52.71,25.88c.03-.37.02-.69-.02-.93-.12-.73-.52-.97-.79-1.05-.21-.18-.65-.9-1.01-1.49-.18-.3-.38-.63-.61-.98,1.32-1.59,2.52-6.43,2.76-7.42,0,0,0-.01,0-.02.02-.11.02-.21,0-.32,0,0,0-.02,0-.02-.02-.11-.07-.22-.14-.31,0,0,0-.01,0-.02-.02-.03-.05-.04-.08-.06-.04-.05-.08-.1-.14-.13-.01,0-.03,0-.04-.01-.04-.02-.08-.03-.12-.05-.07-.03-.14-.05-.21-.06-.01,0-.03-.01-.04-.01-2.92-.15-5.45.21-7.62.83,1-2.34,1.94-6.69-.13-13.25,0,0,0,0,0,0,0,0,0,0,0-.01-.03-.09-.08-.16-.13-.24-.01-.02-.03-.04-.05-.05-.07-.07-.14-.13-.23-.18,0,0,0,0,0,0,0,0-.02,0-.02,0-.05-.02-.1-.05-.16-.06-.03,0-.06,0-.1-.01-.02,0-.04,0-.06,0-.1,0-.19,0-.28.04,0,0-.02,0-.03.01-.08.03-.15.07-.22.12-.02.01-.04.03-.05.04-.01.01-.03.02-.04.03-.32.33-7.05,7.29-9.9,11.61-1.83-4.49-5.07-7.92-7.03-9.23-.99-.67-1.67-.82-2.19-.5-.36.22-.54.62-.49,1.07.17,1.52.38,4.05.49,5.69-2.23-1.1-4.73-1.73-7.33-1.73C7.49,7.16,0,14.64,0,23.84s7.49,16.69,16.69,16.69c2.84,0,5.61-.72,8.07-2.09,2.14,3.06,6.08,6.56,12.95,6.56,1.6,0,3.37-.19,5.31-.62,10.64-2.37,10.56-12.86,9.7-18.5Zm-1.79-.66c.04.23.08.48.13.74-.16,1.31-.9,3.73-2.62,4.68-.26.15-.43.42-.43.73v1.72l-.83-.67c-.19-.15-.43-.22-.67-.17-.24.04-.45.19-.57.4-.56.95-1.29,2.08-1.63,2.47h-1.28c.21-.35.34-.75.45-1.12.15-.55.3-1.19.14-1.87-.15-.66-.56-1.15-.85-1.47-.45-.49-2.33-1.97-3.83-2.06.14-.12.29-.27.44-.44.43-.51.83-1.04,1.21-1.59.5-.71,1.02-1.58,1.14-2.58.11-.99-.27-2.26-1.39-2.71-.81-.33-1.62-.09-2.32.18-.53.21-1.13.48-1.57,1.02-.43.52-.58,1.14-.66,1.56-.15.8-.17,4.19,1.37,4.92.12.06.28.1.47.12-.3.33-.54.91-.31,1.94.14.64.32,1.29.53,1.92.27.83.64,1.77,1.37,2.47.48.46,1.2.82,1.94.82.01,0,.03,0,.04,0l-1.48,1.43-2.88-1.1c-.1-.04-.2-.05-.3-.05-.18,0-.36.06-.5.17l-1.24.95c-.49-.29-1.21-.7-1.66-.93.66-.06,1.29-.38,1.73-.8.73-.7,1.1-1.64,1.37-2.47.2-.63.38-1.27.53-1.92.33-1.47-.3-2.04-.7-2.25-1.51-.79-4.2,1.28-4.75,1.88h0c-.29.32-.69.81-.84,1.47-.16.68-.01,1.32.14,1.87.2.72.5,1.51,1.25,1.95.07.04.15.06.23.1-.13.02-.28.04-.45.07-2.97.47-6.16.49-7.41-2.81l.91-2.29c.1-.25.07-.53-.07-.76l-.86-1.34c.16-1.22,1.23-6.31,8.04-8l2.87.5s.05,0,.08,0c.09,0,.18,0,.27-.02.04-.01.08-.03.12-.05.07-.03.14-.07.2-.12.02-.02.05-.02.07-.04l2.34-2.34c2.64-.03,6.11.21,8.17.8.01,0,.03,0,.04.01.77.23,1.34.5,1.58.83.61.84,1.1,1.63,1.52,2.33.57.93.98,1.58,1.45,1.94Zm-13.12,2.14c-.31-.49-.55-2.2-.39-3.04.07-.38.17-.63.3-.8.2-.24.57-.4.91-.54.36-.15.81-.3,1.07-.19.25.1.42.55.37.98-.07.64-.45,1.26-.85,1.83-.35.5-.72.99-1.12,1.46-.13.15-.22.24-.29.29Zm3.73,4.4c.26.28.4.51.45.73.07.3-.03.7-.12,1.05-.1.37-.25.82-.5.97-.24.14-.69,0-1.01-.3-.46-.44-.73-1.12-.94-1.78-.19-.58-.35-1.18-.49-1.77-.04-.19-.05-.32-.05-.4.58.05,2.08.89,2.66,1.53Zm-8.83,3.22c-.24-.14-.39-.59-.49-.97-.1-.35-.19-.75-.12-1.05.05-.21.19-.44.45-.73.58-.63,2.08-1.48,2.66-1.53,0,.08-.01.21-.05.4-.14.6-.3,1.2-.49,1.77-.22.67-.48,1.34-.94,1.79-.32.31-.77.44-1.01.3Zm16.6-15.01c-.17-.23-.42-.44-.7-.63.54-.41,1.08-.92,1.6-1.48-.3.87-.62,1.62-.9,2.12h0Zm1.37-5.34c-1.46,2-3.17,3.79-3.97,3.87-1.99-.58-4.59-.79-6.52-.84.84-.54,1.8-1.07,2.9-1.52.04-.01.08-.03.12-.05,2.03-.83,4.51-1.42,7.45-1.46Zm-15.79,5.52h0S43.49,3.13,43.49,3.13c1.63,7.02-.63,10.77-1.18,11.53-4.19,1.78-6.61,4.44-7.45,5.49Zm5.43-14.41l-5.75,11.34c-.1-1.1-.32-2.15-.61-3.18,1.04-2.02,3.9-5.42,6.36-8.17Zm-7.39,13.66c-.68-4.07-4.52-11.06-6.57-14.58,2.66,2.36,7.01,7.94,6.57,14.58Zm-7.4-12.69c.87,1.54,1.85,3.33,2.75,5.14-.77-.75-1.62-1.41-2.53-2-.03-.7-.12-1.89-.22-3.14Zm-8.83,32.15c-8.28,0-15.02-6.74-15.02-15.02s6.74-15.02,15.02-15.02c6.79,0,12.76,4.64,14.5,11.14-8.17,2.38-8.68,9.51-8.69,9.58,0,.17.04.35.13.5l.79,1.23-.86,2.18s-.01.07-.02.11c-.01.04-.02.08-.03.12,0,.07,0,.14.01.2,0,.03,0,.05,0,.08.01.04.38,1.36,1.34,3.08-2.2,1.2-4.66,1.83-7.18,1.83Zm25.96,3.89c-8.91,1.99-13.72-1.46-16.18-4.7,2.1.69,4.37.33,5.42.16.19-.03.35-.06.47-.07.42.21,1.41.78,2.06,1.17.29.17.66.15.93-.05l1.32-1.01,2.94,1.12c.1.04.2.05.3.05.21,0,.42-.08.58-.23l2.54-2.44h1.55c.37,0,.79,0,2.3-2.46l1.44,1.18c.25.2.59.25.88.11.29-.14.47-.43.47-.75v-3.01c.72-.5,1.29-1.18,1.74-1.92.07,5.05-1.45,11.21-8.74,12.84Z"/>
      <path class="cls-1" d="m26.24,16.64c.16.25.43.39.7.39.15,0,.31-.04.44-.13.39-.25.5-.76.26-1.15-4.48-7.05-10.29-5.95-10.53-5.9-.45.09-.73.53-.65.97s.52.74.97.65c.2-.04,4.96-.88,8.8,5.16Z"/>
      <path class="cls-1" d="m8.49,12.56c-.69,0-1.26.56-1.26,1.26s.56,1.26,1.26,1.26,1.26-.56,1.26-1.26-.56-1.26-1.26-1.26Zm0,1.66c-.22,0-.4-.18-.4-.4s.18-.4.4-.4.4.18.4.4-.18.4-.4.4Z"/>
      <path class="cls-1" d="m8.66,15.77c-.33,0-.6.27-.6.6s.27.6.6.6.6-.27.6-.6-.27-.6-.6-.6Z"/>
      <path class="cls-1" d="m21.25,33.48c0,.33.27.6.6.6s.6-.27.6-.6-.27-.6-.6-.6-.6.27-.6.6Z"/>
      <circle class="cls-1" cx="19.56" cy="35.87" r=".6"/>
      <path class="cls-1" d="m21.25,36.42c0,.5.4.9.9.9s.9-.4.9-.9-.4-.9-.9-.9-.9.4-.9.9Z"/>
      <path class="cls-1" d="m6.17,14.94c-.69,0-1.26.56-1.26,1.26s.56,1.26,1.26,1.26,1.26-.56,1.26-1.26-.56-1.26-1.26-1.26Zm0,1.66c-.22,0-.4-.18-.4-.4s.18-.4.4-.4.4.18.4.4-.18.4-.4.4Z"/>
    </g>
  </g>
</svg>