<?xml version="1.0" encoding="UTF-8"?>
<svg id="Layer_2" data-name="Layer 2" xmlns="http://www.w3.org/2000/svg" viewBox="0 0 40.45 40">
  <g id="Background">
    <g id="zc2hOl">
      <path d="m29.37,26.6c-.72.3-1.4.58-2.08.88-.11.05-.21.18-.25.3-.56,1.92-1.81,3.12-3.74,3.62-.12.03-.27.2-.3.33-.22.93-.68,1.73-1.34,2.42-.24.24-.51.34-.82.17-.36-.2-.39-.62-.06-.97.45-.46.79-.98.98-1.6.02-.07.03-.15.04-.26-.82-.09-1.57-.36-2.25-.81-.68-.45-1.23-1.02-1.65-1.76-.84,1.2-1.96,1.92-3.41,2.18.07.93.5,1.68,1.17,2.28.76.69,1.67,1.03,2.71,1,.67-.02.86.22.75.9-.5,3.14-3.63,4.97-6.61,3.87-.21-.08-.35-.06-.54.06-3.03,1.9-6.86.19-7.5-3.35-.04-.24-.16-.32-.38-.36C1.58,35.02-.07,33,0,30.45c.03-.88.3-1.7.77-2.45.08-.13.1-.35.05-.49-1.02-2.81.5-5.76,3.4-6.53.21-.06.3-.14.36-.34.53-1.9,1.77-3.09,3.66-3.59.24-.07.33-.15.38-.4.21-.92.66-1.71,1.33-2.37.32-.31.64-.35.91-.1.27.25.26.6-.07.93-2.11,2.15-1.05,5.54,1.69,6.28.14.04.28.05.46.07.26-1.34.92-2.43,1.92-3.21-.52-.52-1.11-.97-1.51-1.55-1.16-1.68-1.31-3.49-.29-5.28,1.03-1.8,2.67-2.59,4.73-2.46.41.03.82.16,1.22.28.21.06.35.06.53-.08,2.37-1.82,5.6-1.28,7.24,1.22.04.05.07.11.13.19.11-.11.22-.2.31-.3,1.63-1.63,3.26-3.26,4.89-4.88.09-.09.18-.19.29-.27.28-.19.56-.17.78.08.21.23.22.5.02.75-.11.14-.25.27-.38.4-1.73,1.73-3.47,3.46-5.2,5.19-.19.19-.25.76-.1.93.14.16.76.12.95-.08,3.35-3.35,6.71-6.7,10.05-10.06.16-.16.31-.46.28-.67-.06-.51-.66-.63-1.06-.23-.8.78-1.59,1.58-2.38,2.37-.08.08-.17.17-.26.25-.26.22-.6.21-.82-.01-.23-.24-.26-.56,0-.81.93-.95,1.86-1.91,2.84-2.81.72-.66,1.8-.53,2.45.18.64.7.63,1.73-.04,2.43-.45.47-.88.94-1.37,1.36-1.08.93-1.72,2.15-2.21,3.45-.98,2.58-1.33,5.26-1.3,8.01,0,.42,0,.84,0,1.24.67-.06,1.29-.17,1.91-.17,2.07,0,3.54,1.36,3.81,3.41.25,1.9-.21,3.65-1,5.35-1.17,2.5-2.83,4.67-4.72,6.67-.37.39-.66.38-1.04-.03-1.58-1.67-2.98-3.48-4.1-5.49-.06-.11-.13-.22-.15-.25Zm-7.6-12.05c-2.08,0-3.76,1.7-3.75,3.77,0,2.02,1.7,3.67,3.76,3.67,2.07,0,3.73-1.67,3.73-3.74,0-1.99-1.73-3.7-3.74-3.7Zm.76,8.61c-.07,1.56,1.69,3.2,3.47,3.25,2.19.06,3.95-1.61,3.94-3.74-.01-1.88-1.63-3.68-3.27-3.65-.51,2.23-1.88,3.6-4.14,4.13Zm-1.54-9.77c.12-1.46-1.64-3.16-3.37-3.25-2.18-.12-3.96,1.5-4.02,3.64-.05,1.87,1.59,3.75,3.26,3.74.51-2.25,1.89-3.62,4.13-4.14Zm13.79,17.02c.06-.04.1-.05.12-.08,1.35-1.61,2.57-3.3,3.44-5.22.67-1.48,1.13-3,.85-4.66-.18-1.05-.64-1.9-1.74-2.22-.9-.26-1.79-.11-2.69.16,0,.62.01,1.23,0,1.83,0,.26.09.4.31.53.76.45,1.5.92,2.25,1.39.32.2.39.53.21.82-.18.29-.51.37-.83.19-.55-.33-1.1-.67-1.65-1.01-.08-.05-.17-.08-.29-.14,0,.79,0,1.53,0,2.26,0,.12.1.26.19.34.33.26.69.49,1.02.74.3.23.35.56.15.83-.19.26-.53.31-.84.11-.16-.1-.32-.21-.5-.34v4.45Zm-17.45-3.31c-2.49-.43-3.97-1.91-4.42-4.4-1.61.13-2.98,1.94-2.88,3.79.11,1.99,1.85,3.52,3.96,3.48,1.6-.03,3.32-1.51,3.33-2.87Zm-11.23,3.01c.02.16.03.3.04.44.16,1.62,1.43,3,3.01,3.27,1.69.29,3.35-.55,4.06-2.06.23-.5.17-.61-.37-.7-1.86-.3-3.65-2.08-3.92-3.91-.08-.5-.22-.59-.67-.37-1.37.69-2.06,1.82-2.16,3.32Zm10.74-11.43c-.27.08-.52.1-.73.21-1.46.75-2.3,2.49-1.95,4.04.36,1.61,1.97,2.95,3.59,3.02,1.72.07,2.88-1.02,3.52-2.29.15-.3.07-.47-.27-.52-.83-.13-1.56-.46-2.21-.97-1.09-.86-1.76-1.97-1.94-3.48Zm-8.34-.46c-1.8.36-3.12,2.22-2.89,4.02.23,1.71,1.87,3.34,3.28,3.25.25-1.42,1-2.52,2.17-3.38-1.49-.9-2.34-2.17-2.57-3.89Zm-1.56,7.91c-1.49-.9-2.33-2.23-2.52-3.96-1.81.47-2.93,2.23-2.68,4.17.19,1.53,1.82,3.08,3.2,3.06.68-2.13.94-2.22,2-3.27Zm11.63.93c.21,1.83,1.79,3.21,3.68,3.28,1.61.05,3.34-1.25,3.58-2.71-2.07-.45-2.59-.78-3.98-2.55-.82,1.09-1.92,1.73-3.27,1.98Zm-4.71,5.97c-.83,1.12-1.94,1.76-3.27,2.01.13,1.75,1.67,3.13,3.54,3.25,1.68.11,3.39-1.13,3.71-2.7-1.72-.21-3.06-1.04-3.98-2.56Zm11-18.6c.98.86,1.6,1.89,1.79,3.17.01.08.16.16.26.2.63.25,1.3.43,1.89.74.47.25.86.67,1.28,1.02,1.09-1.5.89-3.53-.5-4.85-1.3-1.23-3.37-1.37-4.73-.29Zm8.66,2.68c-.15-3.1.11-6.12,1.11-9.06-1.71,1.71-3.39,3.41-5.09,5.11,1.37.84,2.2,2.1,2.42,3.72.53.07,1.02.14,1.57.22Zm-22.43,21.26c-.04-.06-.05-.1-.08-.12-.89-.81-1.42-1.81-1.61-3-.01-.09-.15-.19-.25-.22-.46-.16-.96-.22-1.38-.45-.62-.33-1.17-.77-1.75-1.16-.73,1.18-.49,3.06.56,4.19,1.17,1.25,3,1.57,4.5.76Zm15.25-25.82c-.24-1.38-.95-2.39-2.2-2.95-1.29-.57-2.53-.41-3.72.39,1.01.88,1.64,1.93,1.81,3.22,0,.06.1.15.18.17.41.12.83.24,1.25.34.08.02.19-.05.26-.11.69-.55,1.48-.9,2.42-1.06Zm4.74,10.76c-.11.74-.36,1.45-.78,2.1-.06.09-.03.3.03.41.8,1.58,1.84,3,2.96,4.36.07.08.15.15.26.24v-4.48c-.23.15-.4.28-.59.39-.29.16-.57.11-.77-.16-.2-.27-.15-.55.08-.78.09-.09.2-.18.32-.23.84-.38,1.14-1.02.99-1.92-.06-.4-.01-.82-.01-1.25-.89.41-1.54,1.09-2.5,1.32Zm-26.64,11.04c.11-.36.18-.71.31-1.03.17-.4.52-.76.56-1.15.04-.41-.19-.86-.33-1.28-.04-.11-.17-.24-.28-.28-.47-.17-.98-.24-1.41-.48-.59-.32-1.12-.75-1.68-1.13-1.2,2.01.14,5.04,2.83,5.35Zm26.68-12.28c.78-.48,1.56-.96,2.33-1.44.06-.04.11-.15.12-.23,0-.6.01-1.21,0-1.81,0-.08-.1-.22-.18-.24-.47-.11-.94-.19-1.45-.29-.16,1.01-.54,1.84-1.14,2.57-.04.05-.04.17-.02.25.11.39.22.77.35,1.19Z"/>
    </g>
  </g>
</svg>