<?xml version="1.0" encoding="UTF-8"?>
<svg id="Layer_2" data-name="Layer 2" xmlns="http://www.w3.org/2000/svg" viewBox="0 0 76.92 76.92">
  <defs>
    <style>
      .cls-1 {
        fill: #c02227;
      }

      .cls-1, .cls-2 {
        stroke-width: 0px;
      }

      .cls-2 {
        fill: #fff5ea;
      }
    </style>
  </defs>
  <g id="Layer_1-2" data-name="Layer 1">
    <g>
      <circle class="cls-2" cx="38.46" cy="38.46" r="38.46"/>
      <g id="YddgTC">
        <g>
          <path class="cls-1" d="m36.49,23.34c-1.05,1.74-2.12,3.47-3.12,5.23-.36.64-.8.83-1.53.9-1.3.11-2.1-.3-2.71-1.49-.8-1.56-1.81-3.01-2.87-4.48-.01.26-.04.51-.04.77,0,2.43,0,4.87,0,7.3,0,.99-.11,1.1-1.12,1.11-.79,0-1.59,0-2.38,0-.56,0-.85-.22-.85-.85.02-5.14.01-10.29,0-15.43,0-.58.23-.79.8-.78,1.02.03,2.04.04,3.05,0,.53-.02.81.19,1.07.62,1.43,2.41,2.88,4.81,4.33,7.21.12.2.26.4.45.69.89-1.52,1.72-2.95,2.56-4.37.7-1.2,1.37-2.42,2.12-3.59.17-.27.61-.5.93-.52,1.04-.07,2.09,0,3.13-.03.52-.01.71.21.71.71,0,5.19,0,10.38,0,15.58,0,.5-.22.75-.7.75-.97.01-1.94,0-2.91,0-.65,0-.75-.43-.75-.96,0-2.51,0-5.02,0-7.53,0-.27,0-.53,0-.8-.06-.01-.12-.03-.18-.04Z"/>
          <path class="cls-1" d="m57.8,45.08c1.91-1.64,3.97-1.81,6.1-.82,2.26,1.06,3.08,3.09,3.18,5.41.04.99-.12,2.04-.41,2.99-1.06,3.41-4.78,4.86-7.94,3.17-.1-.06-.21-.11-.45-.23,0,1,0,1.91,0,2.81,0,.72,0,1.44-.01,2.16,0,.48-.23.73-.74.72-.97-.01-1.94,0-2.91,0-.54,0-.72-.27-.72-.79.01-5.27.01-10.54,0-15.8,0-.6.24-.78.8-.75.64.03,1.29,0,1.94,0q1.04,0,1.15,1.12Zm4.91,5c0-1.51-1-2.59-2.38-2.58-1.36,0-2.41,1.12-2.43,2.58-.02,1.5,1.02,2.6,2.46,2.58,1.42-.01,2.35-1.04,2.35-2.58Z"/>
          <path class="cls-1" d="m16.42,56.59c-3.11,0-5.41-1.45-6.41-4.04-.32-.83-.27-.94.61-1.17.81-.21,1.64-.38,2.45-.62.48-.14.76-.02.96.41.73,1.56,2.09,1.58,3.27,1.37.36-.06.88-.48.92-.79.05-.36-.26-.93-.58-1.13-.69-.42-1.48-.66-2.24-.98-.82-.34-1.69-.61-2.46-1.04-1.93-1.08-2.92-2.75-2.68-4.98.23-2.11,1.51-3.47,3.44-4.2,2.12-.8,4.24-.71,6.24.42,1.22.69,1.97,1.78,2.45,3.08.17.46.1.75-.43.88-1.01.25-2.01.54-3.01.82-.48.13-.65-.18-.85-.52-.63-1.11-1.47-1.48-2.53-1.06-.3.12-.66.45-.72.74-.05.28.16.77.41.93.57.37,1.23.62,1.87.89,1,.42,2.06.73,3.03,1.22,1.9.96,2.75,2.59,2.69,4.68-.06,2.02-1.08,3.52-2.9,4.32-1.09.48-2.3.67-3.45.98-.02-.07-.04-.14-.06-.21Z"/>
          <path class="cls-1" d="m28.94,44.56c.96-.3,1.87-.75,2.81-.85,3.08-.33,4.95,1.4,5.05,4.62.07,2.36,0,4.72.02,7.08,0,.61-.21.91-.88.88-.89-.04-1.79-.04-2.68,0-.63.02-.82-.24-.82-.84.02-1.81,0-3.63,0-5.44,0-.22,0-.45,0-.67-.06-1.17-.6-1.8-1.54-1.84-.99-.04-1.83.69-1.94,1.77-.07.66-.05,1.34-.05,2.01,0,1.37-.01,2.73,0,4.1,0,.63-.22.96-.93.92-.89-.05-1.79-.03-2.68,0-.53.01-.77-.16-.77-.73.01-5.32.01-10.63,0-15.95,0-.56.25-.74.77-.73.89.02,1.79.04,2.68,0,.7-.04.93.28.92.92-.01,1.39,0,2.78,0,4.17,0,.24.02.48.03.59Z"/>
          <path class="cls-1" d="m38.55,50.07c0-3.84,2.72-6.4,6.77-6.4,4.03,0,6.75,2.6,6.75,6.44,0,3.84-2.71,6.43-6.75,6.43-4.1,0-6.77-2.55-6.77-6.47Zm9.12.06c0-1.55-.92-2.6-2.31-2.63-1.41-.03-2.43,1.06-2.42,2.61,0,1.57.91,2.55,2.36,2.56,1.45,0,2.37-.98,2.37-2.53Z"/>
          <path class="cls-1" d="m49.82,26.71c.45-1.14.85-2.14,1.25-3.14.35-.9.71-1.8,1.05-2.7.16-.43.42-.63.89-.61.89.02,1.79,0,2.68,0,.88,0,.97.13.63.96-1.86,4.54-3.72,9.08-5.58,13.62-.3.73-.55,1.49-.93,2.19-.15.28-.56.57-.87.59-.94.08-1.89.04-2.83.02-.68-.01-.8-.2-.55-.83.6-1.52,1.23-3.03,1.8-4.57.13-.35.12-.83-.02-1.17-1.41-3.25-2.86-6.48-4.3-9.72-.44-.99-.37-1.09.71-1.09.84,0,1.69.04,2.53-.01.71-.05,1.08.2,1.32.88.6,1.65,1.27,3.28,1.91,4.92.07.18.15.35.3.67Z"/>
        </g>
      </g>
    </g>
  </g>
</svg>