<?xml version="1.0" encoding="UTF-8"?>
<svg id="Layer_2" data-name="Layer 2" xmlns="http://www.w3.org/2000/svg" viewBox="0 0 44.99 45">
  <defs>
    <style>
      .cls-1 {
        fill: #c22328;
        stroke-width: 0px;
      }
    </style>
  </defs>
  <g id="Background">
    <g id="MKNL0X">
      <g>
        <path class="cls-1" d="m20.91,0C21.97,0,23.02,0,24.08,0c.13.03.25.07.38.08,2.01.15,3.95.6,5.84,1.29,10.7,3.96,16.7,15.18,14.08,26.36-2.51,10.73-12.91,18.69-25.01,17.05-4.34-.59-8.19-2.33-11.51-5.2-4.04-3.49-6.57-7.86-7.52-13.13C.21,25.67.12,24.87,0,24.08,0,23.02,0,21.97,0,20.91c.1-.72.17-1.45.3-2.17.7-4.05,2.35-7.67,5.03-10.79C8.82,3.88,13.2,1.32,18.49.36,19.29.21,20.11.12,20.91,0Zm14.55,7.5C28,.81,15.49.71,7.82,9.14c-7.52,8.26-6.18,20.02-.24,26.37.1-.1.21-.19.31-.3.99-.99,1.98-1.99,2.99-2.98.4-.39.76-.78.89-1.36.07-.31.24-.6.4-.87,2.02-3.49,4.04-6.99,6.06-10.48.07-.12.13-.27.13-.4,0-3.35,0-6.71,0-10.06,0-.11-.09-.27-.19-.34-.64-.43-.88-.94-.69-1.55.2-.65.65-.97,1.44-.97,1.83,0,3.66,0,5.49,0,.64,0,1.29-.01,1.93.01.62.02,1.06.42,1.22,1.02.13.52-.1,1.09-.59,1.4-.1.06-.2.12-.3.17v7.49c2.92-2.92,5.86-5.85,8.81-8.81Zm-26.02,30.01c5.67,4.58,12.04,6.15,18.98,3.89,8.08-2.63,12.75-8.42,13.79-16.86.7-5.67-1.05-10.71-4.72-15.06-3.52,3.52-6.99,6.99-10.47,10.47.06.1.13.22.2.35,1.86,3.22,3.71,6.43,5.57,9.65.45.77.73,1.59.76,2.49.1,2.92-2.16,5.26-5.14,5.29-1.62.02-3.25,0-4.88,0-2.3,0-4.6,0-6.9,0-2,0-3.51-.87-4.54-2.58-.04-.07-.09-.13-.12-.18-.84.84-1.66,1.66-2.54,2.54Zm13.06-2.43c1.93,0,3.87,0,5.8,0,2.09,0,3.23-1.96,2.2-3.78-.85-1.5-1.73-2.99-2.58-4.49-.13-.22-.27-.29-.52-.29-3.28,0-6.56,0-9.84.02-.16,0-.39.13-.47.27-.89,1.51-1.78,3.02-2.64,4.55-.99,1.77.17,3.71,2.21,3.72,1.95,0,3.89,0,5.84,0Zm-1.51-26.18c0,.19,0,.36,0,.54,0,3.39,0,6.79,0,10.18,0,.31-.07.65-.22.91-.55.98-1.15,1.93-1.73,2.89-.07.12-.13.25-.21.39h7.38c-.62-1.05-1.19-2.05-1.81-3.02-.26-.4-.41-.78-.41-1.26.01-3.38,0-6.76,0-10.14,0-.17,0-.34,0-.5h-3Z"/>
        <path class="cls-1" d="m25.73,30.4c.76,0,1.33.55,1.33,1.31,0,.73-.56,1.31-1.28,1.33-.73.01-1.35-.59-1.35-1.32,0-.72.57-1.31,1.3-1.31Z"/>
        <path class="cls-1" d="m21.01,29.81c0,.74-.56,1.31-1.3,1.32-.73,0-1.32-.57-1.34-1.29-.01-.72.62-1.36,1.34-1.35.72,0,1.3.59,1.3,1.33Z"/>
      </g>
    </g>
  </g>
</svg>