<?xml version="1.0" encoding="UTF-8"?>
<svg id="Layer_2" data-name="Layer 2" xmlns="http://www.w3.org/2000/svg" xmlns:xlink="http://www.w3.org/1999/xlink" viewBox="0 0 498.64 531.02">
  <defs>
    <style>
      .cls-1 {
        fill: url(#linear-gradient);
      }

      .cls-1, .cls-2, .cls-3 {
        stroke-width: 0px;
      }

      .cls-4 {
        font-family: DBHelvethaicaX-77BdCond, 'DB Helvethaica X';
        font-size: 98.18px;
      }

      .cls-4, .cls-3 {
        fill: #353133;
      }

      .cls-2 {
        fill: url(#linear-gradient-2);
      }

      .cls-5 {
        fill: #fff7ed;
        font-family: DBHelvethaicaX-67MedCond, 'DB Helvethaica X';
        font-size: 63.84px;
      }
    </style>
    <linearGradient id="linear-gradient" x1="365.35" y1="-2.87" x2="185.91" y2="390.26" gradientUnits="userSpaceOnUse">
      <stop offset=".06" stop-color="#fdf0a3"/>
      <stop offset=".29" stop-color="#f8df8a"/>
      <stop offset=".77" stop-color="#edb54b"/>
      <stop offset="1" stop-color="#e79f2a"/>
    </linearGradient>
    <linearGradient id="linear-gradient-2" x1="145.95" y1="431.16" x2="268.3" y2="43.74" gradientUnits="userSpaceOnUse">
      <stop offset=".06" stop-color="#fdf0a3"/>
      <stop offset=".35" stop-color="#fceea0"/>
      <stop offset=".51" stop-color="#fbe998"/>
      <stop offset=".64" stop-color="#f8df8a"/>
      <stop offset=".75" stop-color="#f5d277"/>
      <stop offset=".85" stop-color="#f0c15e"/>
      <stop offset=".95" stop-color="#eaad3f"/>
      <stop offset="1" stop-color="#e79f2a"/>
    </linearGradient>
  </defs>
  <g id="Background">
    <g>
      <g>
        <path class="cls-3" d="m449.07,478.36l-399.5,52.2c-27.37,3.58-49.57-13.82-49.57-38.86h0c0-25.04,22.19-48.24,49.57-51.82l399.5-52.2c27.37-3.58,49.57,13.82,49.57,38.86h0c0,25.04-22.19,48.24-49.57,51.82Z"/>
        <text class="cls-5" transform="translate(30.93 506.57) rotate(-7.81) skewX(-7.74)"><tspan x="0" y="0">KETO Friendly / เบาหวาน</tspan></text>
      </g>
      <g>
        <g>
          <path class="cls-1" d="m430.41,157.43c0,49.76-9.23,94.94-27.7,135.56-18.47,40.62-44.22,72.69-77.26,96.21-4.88,3.47-9.85,6.69-14.92,9.64-113.86,23.84-130.75-96.18-132.87-117.9,3.77,32.72,19.4,49.07,46.92,49.07,18.66,0,34.78-9.13,48.39-27.4,13.61-18.27,23.91-40.62,30.91-67.05,6.99-26.43,10.5-51.5,10.5-75.22,0-7.97-.52-15.21-1.58-21.7,0,0,0-.03-.01-.08,0-.02,0-.03,0-.05,0-.06-.02-.13-.04-.22-.02-.09-.04-.2-.06-.32-.36-2.2-.8-4.32-1.29-6.34-6.16-27.2-34.96-123.28-131.72-105.44C209.17,8.72,241.82,0,277.65,0c47.03,0,84.25,13.9,111.65,41.69,27.41,27.8,41.11,66.37,41.11,115.74Z"/>
          <path class="cls-2" d="m310.54,398.84c-29.24,17.09-61.58,25.63-97.03,25.63-47.03,0-84.25-13.89-111.65-41.69-27.41-27.79-41.11-66.37-41.11-115.73s9.23-94.94,27.7-135.56c18.46-40.62,44.21-72.69,77.26-96.21,4.58-3.26,9.24-6.29,13.98-9.1,96.76-17.84,125.56,78.24,131.72,105.44-2.09-8.6-5.28-15.64-9.56-21.12-8.36-10.69-20.11-16.04-35.27-16.04-18.66,0-34.79,9.14-48.39,27.41-13.61,18.27-23.91,40.62-30.9,67.05-7,26.43-10.5,51.51-10.5,75.22,0,6,.3,11.58.89,16.76,0,.02,0,.04,0,.05,2.12,21.72,19.01,141.74,132.87,117.9Z"/>
        </g>
        <g>
          <text class="cls-4" transform="translate(137 187.34) rotate(-7.81) skewX(-7.67)"><tspan x="0" y="0">สูตรใหม่</tspan></text>
          <g>
            <path class="cls-3" d="m97.89,285.92l5.45-.75v8.26l-15.8,2.17v-56.01c0-1.7.3-3.27.91-4.71.6-1.44,1.47-2.7,2.58-3.8l-16.26,2.23,4.17-8.71,24.4-3.35,2.21,7.84c-1.08.15-2.08.51-3.01,1.08-.93.57-1.74,1.29-2.43,2.16-.69.87-1.23,1.85-1.63,2.93-.4,1.09-.6,2.21-.6,3.36v47.3Z"/>
            <path class="cls-3" d="m118.1,291.41l-10.21,1.4v-50.19l10.33-1.42v32.29c.02,1.45.17,2.76.47,3.92.29,1.16.74,2.13,1.33,2.9.6.77,1.36,1.33,2.28,1.67.93.35,2.04.43,3.35.25,1.34-.18,2.44-.51,3.31-.99.86-.48,1.54-1.06,2.03-1.75.49-.69.83-1.47,1.02-2.33.19-.86.28-1.75.28-2.68v-35.21l10.33-1.42v37.39c0,2.31-.32,4.34-.95,6.1s-1.53,3.27-2.7,4.53c-1.16,1.26-2.56,2.26-4.18,3.01-1.63.75-3.42,1.26-5.39,1.53-2.35.32-4.46.11-6.35-.65-1.89-.75-3.54-2.03-4.94-3.85v5.48Z"/>
            <path class="cls-3" d="m132.62,218.17l9.99-1.37v14.64l-9.99,1.37v-14.64Z"/>
            <path class="cls-3" d="m161.9,285.4l-10.21,1.4v-50.19l10.33-1.42v32.29c.02,1.45.17,2.76.47,3.92.29,1.16.74,2.13,1.33,2.9.6.77,1.36,1.33,2.28,1.67.93.35,2.04.43,3.35.25,1.34-.18,2.44-.52,3.3-.99.86-.48,1.54-1.06,2.03-1.75.49-.69.83-1.47,1.02-2.32.19-.86.28-1.75.28-2.68v-35.21l10.33-1.42v37.39c0,2.31-.32,4.34-.95,6.1-.63,1.76-1.53,3.27-2.69,4.53-1.16,1.26-2.56,2.26-4.19,3.01s-3.42,1.26-5.39,1.53c-2.35.32-4.46.11-6.35-.65-1.89-.75-3.54-2.03-4.94-3.85v5.48Z"/>
            <path class="cls-3" d="m154.47,221.93l22.78-3.13v-7.21l9.16-1.26v15.32l-36.03,4.94,4.09-8.68Z"/>
            <path class="cls-3" d="m220.01,271.95c-1.4,2.2-3.04,3.93-4.92,5.2-1.88,1.27-4,2.07-6.34,2.39-1.99.27-3.79.26-5.42-.05-1.63-.31-3.02-.93-4.19-1.87-1.16-.94-2.06-2.2-2.69-3.79-.63-1.59-.95-3.53-.95-5.84v-37.39l10.33-1.42v35.21c0,.93.09,1.79.28,2.6.19.81.53,1.49,1.02,2.04.49.56,1.17.96,2.03,1.2.86.24,1.96.27,3.31.09,1.31-.18,2.42-.57,3.35-1.17.93-.6,1.69-1.37,2.28-2.3.6-.93,1.04-2.02,1.32-3.26.28-1.24.44-2.59.48-4.05v-32.29l10.33-1.42v50.19l-10.21,1.4v-5.48Z"/>
            <path class="cls-3" d="m215.58,215.16c0-1.31.25-2.56.74-3.78.49-1.21,1.16-2.3,2-3.27.84-.97,1.83-1.77,2.95-2.42,1.13-.65,2.33-1.06,3.62-1.23,1.31-.18,2.53-.1,3.67.23,1.14.33,2.14.87,2.99,1.6s1.52,1.64,2.01,2.72c.49,1.08.74,2.27.74,3.57s-.25,2.53-.74,3.72c-.49,1.19-1.16,2.27-2.01,3.23-.85.96-1.85,1.76-2.99,2.41-1.14.65-2.37,1.06-3.67,1.24-1.29.18-2.49.1-3.62-.24-1.13-.34-2.11-.87-2.95-1.6-.84-.73-1.51-1.62-2-2.68-.49-1.06-.74-2.23-.74-3.52Zm6.27-.86c0,.4.08.77.24,1.12.16.35.38.64.65.89.27.25.6.42.96.53.37.11.76.14,1.18.08.44-.06.84-.2,1.22-.41.38-.21.71-.48.99-.8.28-.32.51-.68.67-1.07.16-.39.24-.79.24-1.18,0-.44-.08-.83-.24-1.19-.16-.36-.38-.66-.67-.9-.28-.24-.61-.43-.99-.54s-.78-.15-1.22-.09c-.42.06-.81.2-1.18.42-.37.22-.69.49-.96.81-.27.32-.49.68-.65,1.08-.16.4-.24.82-.24,1.25Z"/>
            <path class="cls-3" d="m211.18,203.56v-7.77l-4.2.58v-6.64l11.75-1.61v7.21c1.08-.26,2.04-.65,2.88-1.16.84-.51,1.56-1.12,2.14-1.83.59-.71,1.04-1.49,1.35-2.37.31-.88.47-1.8.47-2.79l8.37-1.15c0,1.89-.37,3.74-1.12,5.56-.75,1.81-1.83,3.48-3.25,4.99-1.42,1.51-3.15,2.81-5.19,3.89-2.04,1.08-4.35,1.83-6.92,2.24l-6.27.86Z"/>
            <path class="cls-3" d="m235.33,240.45c0-2.57.44-4.91,1.32-7.02.88-2.11,2.04-3.93,3.49-5.47,1.45-1.54,3.1-2.78,4.95-3.73,1.85-.94,3.75-1.55,5.7-1.82,2.29-.31,4.38-.29,6.27.08,1.89.36,3.51,1.08,4.85,2.16,1.34,1.07,2.38,2.51,3.12,4.3.74,1.79,1.11,3.95,1.11,6.49v35.66l-10.36,1.42v-35.66c0-2.12-.42-3.66-1.26-4.62-.84-.96-2.08-1.33-3.73-1.1-1.51.21-2.73,1-3.66,2.39-.93,1.39-1.45,3.23-1.56,5.53l-10.24,1.41Z"/>
            <path class="cls-3" d="m303.22,266v-23.83l-18.73,26.4-9.16,1.26v-36.83c0-1.87.35-3.64,1.05-5.29.7-1.66,1.67-3.17,2.92-4.54,1.25-1.37,2.73-2.57,4.45-3.6s3.59-1.85,5.62-2.44l5.02,3.85,4.51-5.16c2.12,0,4.07.26,5.86.8,1.79.54,3.33,1.32,4.64,2.34s2.32,2.27,3.05,3.75c.73,1.48,1.09,3.17,1.09,5.06v36.83l-10.33,1.42Zm-10.92-21.62l-4.09.56v-7.32l15.01-2.06v-5.59c0-2.19-.7-3.84-2.1-4.93l-4.88,5.44c-.55.62-1.18.98-1.9,1.08-.72.1-1.36-.09-1.93-.56l-4.77-4c-.76.75-1.3,1.57-1.62,2.48-.32.9-.48,1.88-.48,2.92v21.28l6.75-9.3Z"/>
            <path class="cls-3" d="m318.66,229.02c0-2.57.44-4.91,1.32-7.02.88-2.11,2.04-3.93,3.49-5.47s3.1-2.78,4.95-3.73c1.85-.94,3.75-1.55,5.7-1.82,2.29-.31,4.38-.29,6.27.08,1.89.36,3.51,1.08,4.85,2.16,1.34,1.07,2.38,2.51,3.12,4.3.74,1.79,1.11,3.95,1.11,6.49v35.66l-10.36,1.42v-35.66c0-2.12-.42-3.66-1.26-4.62-.84-.96-2.08-1.33-3.73-1.11-1.51.21-2.73,1-3.66,2.39-.93,1.39-1.45,3.23-1.56,5.53l-10.24,1.41Z"/>
            <path class="cls-3" d="m381.9,255.21v-24.4c-.91.71-1.86,1.31-2.87,1.81-1,.5-2.03.97-3.08,1.42s-2.1.9-3.15,1.37c-1.05.47-2.08,1.01-3.11,1.62-.49.29-.92.66-1.29,1.09-.37.43-.67.9-.91,1.42s-.41,1.07-.52,1.66c-.11.59-.17,1.19-.17,1.8,0,.85.13,1.61.38,2.29.26.67.64,1.23,1.15,1.67.51.44,1.14.76,1.89.95.75.19,1.62.22,2.62.08.45-.06,1.05-.23,1.79-.51.74-.28,1.57-.69,2.5-1.24v8.48c-.93.66-1.88,1.17-2.85,1.54-.97.37-1.84.61-2.6.71-2.61.36-4.88.35-6.8-.03-1.92-.38-3.5-1.11-4.75-2.19-1.25-1.08-2.18-2.49-2.78-4.24-.61-1.75-.91-3.82-.91-6.2,0-.34.02-.82.06-1.43.04-.61.14-1.3.3-2.07.16-.77.4-1.59.72-2.47.32-.88.77-1.76,1.36-2.66.59-.89,1.32-1.76,2.21-2.59.89-.83,1.98-1.6,3.26-2.31.47-.25,1.18-.6,2.13-1.03.95-.43,2-.91,3.18-1.43,1.17-.52,2.39-1.07,3.66-1.64,1.27-.57,2.44-1.11,3.52-1.62s2-.97,2.78-1.4c.77-.43,1.26-.76,1.45-.99.21-.16.37-.38.48-.65.11-.27.19-.57.24-.9.05-.33.08-.68.08-1.05,0-.37.01-.74.01-1.12,0-1.1-.13-2-.38-2.7-.26-.7-.64-1.24-1.16-1.6-.52-.36-1.18-.58-1.99-.65-.8-.07-1.75-.03-2.85.12-1.29.18-2.38.51-3.29.99-.91.48-1.66,1.11-2.27,1.87-.61.76-1.07,1.67-1.39,2.72-.32,1.05-.52,2.21-.6,3.49l-10.36,1.42c.11-2.95.67-5.54,1.67-7.79,1-2.25,2.34-4.16,4-5.75,1.66-1.59,3.6-2.86,5.8-3.8,2.2-.95,4.57-1.59,7.11-1.94,2.38-.33,4.44-.37,6.16-.14,1.72.24,3.18.67,4.37,1.29,1.19.62,2.15,1.38,2.87,2.29.72.9,1.28,1.86,1.67,2.86.4,1.01.66,2.01.79,3.03.13,1.01.2,1.94.2,2.77v36.37l-10.36,1.42Z"/>
          </g>
        </g>
      </g>
    </g>
  </g>
</svg>