<?xml version="1.0" encoding="UTF-8"?>
<svg id="Layer_2" data-name="Layer 2" xmlns="http://www.w3.org/2000/svg" viewBox="0 0 44.99 45">
  <defs>
    <style>
      .cls-1 {
        fill: #c22328;
        stroke-width: 0px;
      }
    </style>
  </defs>
  <g id="Background">
    <g id="tdNpSv">
      <path class="cls-1" d="m44.99,22.46c0,12.43-10.05,22.54-22.42,22.54C10.02,45-.05,34.93,0,22.35.05,9.9,10.26-.23,22.95,0c12.2.23,22.03,10.18,22.04,22.46Zm-29.18,5.34c-1.6-.3-3.19-.59-4.79-.9-.94-.18-1.46-.72-1.63-1.65-.55-2.94-1.09-5.89-1.65-8.83-.18-.94.11-1.65.91-2.14,2.04-1.26,4.09-2.5,6.14-3.75.47-.29.96-.41,1.51-.26.21.06.43.07.65.11,2.18.41,4.37.8,6.55,1.23.72.14,1.19.61,1.37,1.32.14.58.23,1.17.35,1.76.16.87.33,1.74.49,2.6.59-.02,1-.27,1.38-.65,2.82-2.85,5.67-5.68,8.51-8.52.11-.11.22-.23.32-.34C28.83,1.05,16.24.25,8.12,8.69c-7.83,8.14-6.91,20.3-.37,27.17,2.68-2.68,5.36-5.36,8.06-8.06Zm-6.76,9.38c7.3,6.84,19.76,7.48,27.79-.83,8.1-8.38,6.77-20.63.45-27.18-2.53,2.53-5.06,5.06-7.59,7.59-.02-.02,0,0,.02.02,2.17,1.22,4.33,2.43,6.5,3.64.79.44,1.15,1.12,1.02,2.01-.43,3.02-.88,6.04-1.33,9.06-.14.9-.65,1.47-1.56,1.67-2.34.52-4.67,1.04-7.01,1.57-.5.11-.96.06-1.4-.19-2.13-1.2-4.26-2.39-6.38-3.6-.7-.4-1.03-1.02-.95-1.83.03-.28.06-.57.09-.82-.51-.22-.79.04-1.1.35-1.82,1.85-3.65,3.68-5.49,5.51-1.01,1-2.03,1.99-3.07,3Zm8.62-10.9c-.5-2.71-1-5.33-1.47-7.96-.06-.31-.25-.34-.48-.39-1.39-.26-2.78-.52-4.18-.78-.59-.11-1.19-.21-1.83-.32.2,1.06.37,2.04.55,3.02.3,1.64.6,3.27.9,4.91.04.24.13.36.41.4.68.09,1.35.25,2.02.37,1.33.25,2.66.49,4.06.75Zm3.99-5.11c-.03.08-.05.12-.05.15-.21,1.39-.41,2.77-.61,4.16-.16,1.1-.33,2.19-.51,3.28-.06.36-.04.6.35.81,1.44.77,2.85,1.6,4.28,2.4.34.19.68.37,1.06.59.14-.93.27-1.79.39-2.66.25-1.73.5-3.47.77-5.2.04-.25-.04-.36-.25-.48-.68-.37-1.35-.76-2.02-1.14-1.13-.64-2.26-1.27-3.4-1.92Zm13.6,2.02c-2.07.46-4.05.9-6.03,1.34-.29.06-.39.2-.43.5-.23,1.69-.5,3.38-.75,5.07-.13.88-.25,1.75-.39,2.68,2.09-.47,4.12-.92,6.15-1.4.11-.03.25-.22.27-.35.3-1.89.58-3.78.87-5.67.11-.7.2-1.41.3-2.16Zm-.48-1.44c-.13-.09-.21-.16-.29-.2-1.75-.99-3.51-1.98-5.27-2.96-.13-.07-.33-.09-.49-.06-1.58.34-3.16.69-4.73,1.05-.47.1-.94.21-1.46.33.1.09.13.12.17.14,1.81,1.02,3.61,2.04,5.42,3.05.09.05.23.1.32.08,2.09-.46,4.17-.93,6.32-1.42Zm-12.6-8.55c-2.05-.38-3.97-.73-5.9-1.07-.22-.04-.51-.03-.69.08-1.66.98-3.3,2-4.95,3-.09.05-.16.13-.29.23,2.04.38,4.01.75,5.98,1.09.19.03.43-.02.6-.12.99-.59,1.97-1.2,2.96-1.8.73-.45,1.46-.9,2.29-1.41Zm-3.14,12.34s.06,0,.08,0c.27-1.88.54-3.76.82-5.63.13-.88.65-1.42,1.54-1.64.79-.19,1.59-.37,2.42-.56-.22-1.14-.43-2.26-.64-3.42-1.8,1.1-3.53,2.17-5.27,3.22-.33.19-.39.39-.32.74.3,1.52.57,3.04.85,4.56.17.91.34,1.83.51,2.74Z"/>
    </g>
  </g>
</svg>