<?xml version="1.0" encoding="UTF-8"?>
<svg id="Layer_2" data-name="Layer 2" xmlns="http://www.w3.org/2000/svg" viewBox="0 0 43.56 45">
  <defs>
    <style>
      .cls-1 {
        fill: #f0522c;
        stroke-width: 0px;
      }
    </style>
  </defs>
  <g id="Background">
    <g id="FraUbo">
      <g>
        <path class="cls-1" d="m8.71,12.49c-.5-.26-.96-.5-1.42-.76C3.57,9.64,1.38,6.4.33,2.32c-.09-.37-.19-.73-.29-1.1C-.14.48.25-.06,1.01,0c1.89.17,3.79.32,5.66.61,2.5.39,4.87,1.22,7.06,2.5,1.4.81,2.66,1.81,3.73,3.03.21.24.39.31.71.21,1.98-.59,4-.88,6.06-.81,6.17.22,11.22,2.74,15.1,7.55,2.19,2.72,3.54,5.85,4.01,9.31.79,5.91-.7,11.2-4.59,15.74-2.92,3.41-6.62,5.6-11.03,6.45-5.85,1.13-11.22-.07-15.97-3.71-3.89-2.98-6.33-6.9-7.32-11.71-.46-2.21-.49-4.44-.18-6.67.42-3.07,1.53-5.86,3.28-8.41.36-.53.77-1.03,1.19-1.6Zm9.54,2.52s-.11-.06-.18-.06c-2.5-.32-4.95-.82-7.34-1.65-.12-.04-.36.02-.44.11-3.1,3.55-4.58,7.69-4.49,12.39.05,2.65.72,5.17,1.93,7.53,1.72,3.37,4.25,5.97,7.58,7.75,3.61,1.93,7.46,2.57,11.5,1.88,3.79-.65,7.06-2.34,9.75-5.08,3.07-3.12,4.82-6.88,5.17-11.27.2-2.46-.11-4.84-.91-7.16-1.33-3.82-3.66-6.88-7.02-9.11-3.98-2.65-8.36-3.58-13.09-2.79-.61.1-1.21.26-1.79.39.4.85.8,1.61,1.11,2.41.31.79.52,1.63.78,2.47.13-.05.26-.11.39-.16.95-.36,1.94-.57,2.96-.47.44.04.74.43.74.84,0,.42-.31.77-.75.83-.29.04-.59.04-.87.08-.38.06-.75.14-1.18.23,1.18,1.18,1.55,1.71,1.78,2.75.06.27.02.65-.13.85-.15.2-.51.35-.78.35-.42,0-.66-.33-.77-.73-.2-.77-.6-1.39-1.27-1.82-.52-.33-.68-.33-.98.18-.32.55-.57,1.14-.83,1.73-.27.59-.88.79-1.36.42-.37-.29-.41-.68-.27-1.07.22-.61.49-1.21.75-1.83ZM2.07,1.78c0,.12,0,.17,0,.2.06.21.13.42.19.63,1.08,3.88,3.53,6.58,7.16,8.25,2.2,1.01,4.52,1.64,6.9,2.04.89.15,1.78.27,2.72.41-.05-.28-.06-.48-.12-.67-.15-.53-.29-1.07-.49-1.59-1.32-3.44-3.84-5.69-7.1-7.21-1.96-.91-4.04-1.43-6.17-1.74-1.02-.15-2.05-.23-3.1-.34Z"/>
        <path class="cls-1" d="m24.37,38.94c-.23,0-.47.02-.7,0-.42-.05-.75-.43-.75-.84,0-.39.3-.78.7-.83.58-.08,1.16-.1,1.75-.17,1.73-.19,3.31-.8,4.79-1.71.22-.14.44-.29.68-.41.42-.2.89-.06,1.11.31.22.37.16.88-.22,1.14-.59.4-1.2.79-1.84,1.11-1.73.87-3.58,1.34-5.52,1.4Z"/>
        <path class="cls-1" d="m10.44,30.42c-.48,0-.87-.4-.86-.87,0-.47.4-.85.89-.85.49,0,.86.38.85.87,0,.48-.39.85-.88.85Z"/>
        <path class="cls-1" d="m12.14,32.25c.47.01.85.4.84.88,0,.46-.41.87-.86.87-.46,0-.9-.45-.88-.91.02-.46.43-.85.9-.83Z"/>
        <path class="cls-1" d="m33.47,34.47c-.48,0-.88-.38-.88-.85,0-.47.39-.86.87-.86.49,0,.87.37.88.85,0,.48-.38.86-.87.86Z"/>
        <path class="cls-1" d="m12.81,25.77c.46.01.86.42.86.88,0,.47-.43.88-.91.86-.47-.02-.84-.41-.83-.89.01-.46.42-.86.88-.85Z"/>
        <path class="cls-1" d="m9.84,25.41c0,.48-.4.87-.87.86-.48-.01-.85-.4-.84-.89,0-.49.4-.87.87-.86.48.01.85.4.84.89Z"/>
        <path class="cls-1" d="m15.37,30.08c0,.49-.37.86-.85.87-.48,0-.87-.38-.88-.85,0-.47.39-.86.86-.87.48,0,.86.37.87.85Z"/>
      </g>
    </g>
  </g>
</svg>