<?xml version="1.0" encoding="UTF-8"?>
<svg id="Layer_2" data-name="Layer 2" xmlns="http://www.w3.org/2000/svg" viewBox="0 0 53.74 45">
  <g id="Background">
    <g id="JgRqf1">
      <path d="m53.74,8.79c-2.27,2.39-4.75,4.6-6.75,7.19-3.87,5.02-7.44,10.27-11.19,15.38-2.11,2.88-2.7,6.16-2.75,9.6-.01.81-.04,1.61-.01,2.42.03,1.05-.47,1.61-1.51,1.61-3.13.01-6.26.02-9.39,0-.97,0-1.42-.52-1.44-1.53-.04-1.79-.06-3.59-.29-5.35-.17-1.3-.46-2.66-1.07-3.8C14.34,24.97,7.96,16.66.53,9.14c-.15-.15-.35-.24-.53-.35,0-.45,0-.9,0-1.34.69-.57,1.38-.6,2.2-.19,2.72,1.36,5.47,2.65,8.2,3.97.81.39,1.6.82,2.67,1.37-.32-.71-.47-1.12-.67-1.51-1.54-2.97-3.08-5.95-4.65-8.91-.36-.69-.67-1.46.14-1.85.44-.21,1.31-.02,1.74.31,1.87,1.46,3.7,2.97,5.44,4.59,2.64,2.45,5.19,5,7.78,7.51.07-.21.18-.5.25-.79.82-3.47,1.59-6.96,2.49-10.42.15-.57.82-1,1.25-1.5.43.49,1.09.92,1.25,1.49.58,2.06.98,4.17,1.46,6.26.4,1.7.82,3.4,1.29,5.34,3.98-4.88,8.58-8.66,13.15-12.47.58-.49,1.3-1,1.84-.28.31.42.26,1.35.01,1.89-.77,1.66-1.75,3.22-2.59,4.84-.89,1.73-1.72,3.49-2.74,5.56.59-.28.81-.38,1.04-.49,3.29-1.61,6.59-3.2,9.86-4.85.85-.43,1.58-.5,2.32.13v1.34ZM12.88,6.7c5.68,11.35,9.77,23.07,10.17,35.87h2.62c2.85-14.47-.09-26.86-12.8-35.87Zm27.86.14c-.11-.11-.23-.21-.34-.32-2.33,2.4-4.74,4.72-6.96,7.22-2.4,2.7-4.12,5.83-5.09,9.33-.16.58-.23,1.25-.12,1.84.71,3.94.94,7.89.55,11.88-.19,1.91-.33,3.82-.5,5.77h2.37c.4-12.8,4.48-24.47,10.1-35.71Zm-22.21,20.83c.05,0,.11-.01.16-.02-1.26-3.6-2.51-7.21-3.78-10.8-.07-.2-.21-.43-.38-.53-2.6-1.49-5.22-2.96-7.99-4.52,4.11,5.44,8.05,10.66,11.98,15.87Zm28.64-15.87c-2.78,1.57-5.33,3-7.87,4.45-.22.12-.44.35-.52.58-1.24,3.5-2.46,7.01-3.69,10.51.05,0,.1,0,.15,0,3.91-5.09,7.81-10.18,11.93-15.54Zm-20.36,8.04c1.53-2.38,2.77-4.67,1.44-7.48-.24-.51-.26-1.13-.39-1.69-.3-1.23-.6-2.45-.9-3.68-.92,2.74-1.59,5.44-2.2,8.16-.08.34.07.79.23,1.13.56,1.16,1.17,2.3,1.83,3.56Z"/>
    </g>
  </g>
</svg>