<?xml version="1.0" encoding="UTF-8"?>
<svg id="Layer_2" data-name="Layer 2" xmlns="http://www.w3.org/2000/svg" viewBox="0 0 39.01 45.5">
  <defs>
    <style>
      .cls-1 {
        fill: #f0522c;
        stroke-width: 0px;
      }
    </style>
  </defs>
  <g id="Background">
    <g>
      <path class="cls-1" d="m38.74,22.89c-1-6.4-4.56-11.23-10.59-14.38-1.44-.75-3.03-1.29-4.88-1.65.12-.16.23-.33.34-.49.29-.42.59-.86.92-1.26,1-1.2,1.08-2.77.2-3.91C24.18.48,23.39.06,22.52,0c-.9-.06-1.75.3-2.42.98-1.45,1.49-2.51,3.33-3.16,5.48-.06.19-.08.22-.25.24-4.25.66-7.94,2.52-10.96,5.51-1.62,1.6-2.94,3.49-3.93,5.62-.1.21-.39.83.21,1.29.23.17.48.23.72.17.3-.07.55-.32.73-.7.78-1.69,1.71-3.11,2.83-4.32,4.35-4.69,9.71-6.62,15.93-5.74,4.51.64,8.26,2.83,11.16,6.5,3.15,3.99,4.37,8.56,3.63,13.6-.63,4.29-2.62,7.89-5.91,10.7-4.41,3.76-9.53,5.09-15.22,3.95-4.07-.82-7.5-2.94-10.2-6.31-2.1-2.62-3.35-5.67-3.74-9.07-.25-2.19-.07-4.42.54-6.65.09-.34.07-.65-.07-.89-.12-.2-.31-.34-.56-.4-.5-.11-.94.2-1.11.79C-.02,23.45-.19,26.18.22,28.88c.74,4.81,2.97,8.83,6.62,11.93,3.67,3.12,7.88,4.69,12.54,4.69.97,0,1.96-.07,2.97-.2,3.76-.51,7.08-2.03,9.88-4.53,5.41-4.83,7.6-10.85,6.5-17.88ZM23.53,2.96c.01.33-.12.66-.37.93-.71.77-1.28,1.62-1.75,2.6-.02.03-.09.09-.11.1-.71-.02-1.41-.05-2.14-.08h-.32s.01-.04.01-.04c.09-.25.18-.49.28-.74.56-1.33,1.32-2.49,2.27-3.46.52-.53,1.23-.58,1.73-.13.25.22.39.51.4.82Z"/>
      <path class="cls-1" d="m4.8,24.73c-.48.83-.48,1.71,0,2.55.28.48.55.85.85,1.14.74.74.95,1.51.65,2.42-.04.11-.06.22-.07.34l-.02.12c-.34,1.74.27,2.86,1.9,3.52.27.11.56.22.85.3.75.21,1.21.67,1.46,1.45.19.59.39,1.1.63,1.54.44.82,1.17,1.27,2.05,1.27h.02c.62,0,1.14-.06,1.62-.18.92-.22,1.64-.03,2.29.63.3.3.66.61,1.07.9.46.33.94.5,1.42.5s.94-.16,1.4-.49c.39-.28.75-.6,1.09-.91l.14-.12c.6-.54,1.19-.71,1.87-.54.33.08.67.13,1,.18.15.02.29.04.44.07h.03c1.23.04,2.05-.43,2.6-1.48.21-.41.36-.79.45-1.15.24-.93.8-1.49,1.76-1.75.44-.12.89-.31,1.38-.59.77-.44,1.19-1.14,1.19-1.97,0-.66-.05-1.19-.17-1.67-.23-.93-.03-1.66.62-2.29.2-.19.41-.41.55-.66l.1-.17c.21-.37.44-.76.54-1.18.24-.93-.07-1.84-.89-2.62-.92-.88-1.17-1.83-.82-3.18.43-1.68-.22-2.87-1.94-3.53-.26-.1-.53-.19-.81-.27-.74-.22-1.19-.67-1.43-1.43-.17-.55-.38-1.05-.61-1.5-.44-.86-1.15-1.31-2.04-1.32-.63,0-1.19.05-1.71.18-.91.22-1.63.02-2.27-.64-.14-.15-.3-.31-.5-.42-.11-.06-.22-.12-.32-.19-.37-.22-.74-.44-1.16-.56-.95-.26-1.87.06-2.73.96-.86.9-1.81,1.14-2.96.75-.04-.01-.08-.03-.12-.03-1.78-.33-2.9.3-3.54,2-.08.21-.16.43-.22.65-.23.84-.73,1.35-1.58,1.6-.51.15-1.03.37-1.54.66-.75.43-1.17,1.11-1.17,1.94,0,.47.01,1.08.16,1.67.23.92.04,1.66-.62,2.33-.32.33-.63.74-.9,1.2Zm3.24-4.21c-.05-.18-.08-.38-.09-.56-.04-.46.12-.77.49-.93.4-.18.81-.32,1.16-.43,1.28-.42,2.13-1.27,2.53-2.55.13-.43.26-.77.4-1.07.22-.47.5-.61,1.02-.54.43.06.85.14,1.28.23,1.18.24,2.24-.07,3.25-.96l.05-.04c.27-.24.55-.49.84-.7.37-.28.74-.27,1.16.02.19.13.37.26.52.42,1.18,1.25,2.66,1.63,4.38,1.12.19-.06.4-.08.55-.09.45-.03.75.12.91.47.16.35.3.71.41,1.07.41,1.36,1.3,2.26,2.65,2.66.34.1.7.24,1.07.41.38.17.54.48.48.93-.05.4-.12.83-.23,1.32-.25,1.19.06,2.25.94,3.25.31.35.56.65.79.96.24.33.24.67-.01,1.03-.14.21-.29.43-.47.6-1.23,1.16-1.6,2.63-1.11,4.35.05.18.07.37.09.56.04.46-.11.77-.49.93-.39.18-.81.32-1.21.45-1.22.4-2.05,1.23-2.46,2.45-.14.42-.28.82-.45,1.21-.17.39-.47.54-.92.5-.4-.05-.83-.12-1.32-.22-1.2-.25-2.31.07-3.29.96l-.06.06c-.22.2-.45.41-.69.59-.52.4-.89.4-1.41,0-.21-.16-.46-.36-.67-.58-.73-.77-1.58-1.15-2.53-1.15-.37,0-.76.06-1.16.18-.26.08-.53.12-.73.15-.07.01-.14.02-.19.03-.66.03-.85-.22-.96-.47-.17-.37-.32-.76-.44-1.16-.4-1.28-1.25-2.14-2.53-2.55-.37-.12-.75-.24-1.12-.42-.44-.21-.59-.48-.52-.99.05-.4.13-.83.22-1.28.25-1.19-.06-2.25-.94-3.25-.26-.3-.53-.6-.77-.93-.26-.36-.26-.72,0-1.1.13-.19.27-.39.43-.54,1.25-1.19,1.64-2.67,1.14-4.38Z"/>
      <path class="cls-1" d="m23.95,25.94c0,.61.32,1.18.9,1.61.9.67,1.92.86,2.61.91h0s.08,0,.13,0c1.57,0,2.72-.97,2.8-2.4.04-.64-.2-1.29-.64-1.78-.45-.5-1.06-.8-1.72-.83-1.2-.05-2.27.25-3.18.91-.58.42-.9.98-.9,1.59Zm3.96-.68c.18,0,.35.09.48.23.13.14.19.32.18.5-.04.62-.66.67-.91.66h-.18s-.02.05-.02.05c-.1-.04-.2-.08-.31-.11-.41-.15-.84-.31-1.23-.51-.12-.06-.14-.11-.14-.11,0-.01.03-.08.16-.16.59-.38,1.25-.57,1.97-.54Z"/>
      <path class="cls-1" d="m23.35,29.03c-.47-.22-.97-.24-1.43-.05-.47.19-.83.58-1.02,1.09-.11.3-.17.62-.22.95-.03.15-.05.31-.09.48v.05s0,.05,0,.05c.04.18.08.37.12.56.09.45.18.91.34,1.36.34.97,1.3,1.59,2.34,1.59.21,0,.42-.03.63-.08,1.24-.31,2.09-1.54,1.87-2.69-.3-1.54-1.18-2.69-2.54-3.33Zm-.27,4.23c-.16-.07-.27-.21-.33-.38-.1-.3-.17-.63-.24-.97-.03-.15-.06-.3-.1-.45.03-.08.05-.18.08-.27.04-.14.11-.42.17-.46.15-.08.31.08.57.4l.06.08c.31.38.56.77.74,1.15.08.17.09.34.03.5-.07.18-.23.32-.43.4-.19.07-.38.07-.55,0Z"/>
      <path class="cls-1" d="m17.07,24.8c-.22,1.29.11,2.55.96,3.65.38.49.89.77,1.44.78.01,0,.02,0,.04,0,.54,0,1.07-.26,1.47-.74.76-.9.97-1.98,1.07-2.93v-.02c.02-1.46-.9-2.56-2.3-2.74-1.24-.15-2.46.76-2.68,2Zm1.75.6c-.03-.2.01-.39.14-.54.13-.16.33-.26.55-.26h.02c.19,0,.35.07.48.19.16.16.24.39.23.66l.05.18c-.04.11-.08.23-.12.34-.15.42-.31.86-.51,1.26-.07.13-.12.17-.13.17-.01,0-.06-.04-.12-.16-.27-.63-.47-1.25-.57-1.84Z"/>
      <path class="cls-1" d="m11.44,28.56c.06,0,.11,0,.17,0h0c.52-.03,1.55-.19,2.49-.84.63-.44.98-1.03.98-1.66,0-.63-.34-1.21-.96-1.65-.78-.54-1.7-.83-2.82-.87-.71,0-1.38.23-1.89.71-.49.47-.77,1.11-.77,1.79,0,.67.26,1.29.73,1.75.52.5,1.25.77,2.06.77Zm-.97-2.5c0-.27.2-.78.9-.79.14.05.28.09.42.14.37.12.75.24,1.11.39.13.06.29.21.31.24-.02.06-.18.22-.32.27-.42.15-.97.34-1.53.42-.27.04-.5-.02-.67-.17-.14-.12-.22-.3-.21-.5Z"/>
      <path class="cls-1" d="m15.73,22.99c.25.11.5.17.76.17.22,0,.44-.04.65-.13.46-.19.81-.58,1-1.08.11-.3.17-.62.23-.95.03-.15.05-.31.09-.48v-.05s0-.05,0-.05c-.04-.18-.08-.37-.12-.57-.09-.45-.18-.91-.34-1.36-.41-1.16-1.67-1.83-2.88-1.54-1.33.32-2.19,1.51-1.97,2.7.29,1.56,1.18,2.72,2.58,3.35Zm.88-2.35l-.25.57s-.03-.02-.05-.03c-.21-.11-.4-.21-.53-.35-.29-.32-.56-.73-.78-1.17-.08-.17-.09-.34-.03-.5.07-.18.22-.33.42-.41.09-.04.19-.06.28-.06.27,0,.51.17.64.48.06.16.11.31.13.45.04.22.06.43.09.65l.04.29.03.08Z"/>
      <path class="cls-1" d="m21.61,22.78c.29.22.64.33,1.01.33.14,0,.27-.02.41-.05.45-.1.94-.35,1.33-.7.99-.86,1.57-1.77,1.66-2.63v-.03c0-1.49-.8-2.57-2.1-2.81-1.16-.21-2.36.5-2.79,1.65-.3.8-.42,1.63-.37,2.47.05.76.35,1.38.84,1.75Zm.96-2.43c.01-.07.03-.14.04-.2.07-.34.14-.66.24-.96.07-.2.2-.36.38-.43.17-.08.37-.08.56,0,.2.09.35.26.41.45.04.12.06.31-.06.5-.32.52-.73.99-1.13,1.43-.06.06-.23.13-.25.14-.05-.03-.1-.22-.13-.32l-.04-.13s0-.09,0-.14c0-.04,0-.09,0-.13v-.2h-.02Z"/>
      <path class="cls-1" d="m18.27,30.95c-.09-.69-.3-1.52-1.18-1.91-.7-.3-1.41-.18-2.17.39-.69.51-1.23,1.18-1.65,2.06-.3.62-.33,1.33-.09,1.99.24.65.74,1.17,1.36,1.44.31.13.64.2.98.2.35,0,.71-.07,1.04-.22.63-.28,1.12-.8,1.35-1.44.16-.45.25-.92.34-1.37.04-.2.08-.4.13-.6l.06-.25-.14-.03c0-.09,0-.18,0-.27Zm-1.78.64c-.02.08-.03.16-.05.24-.07.34-.13.66-.23.96-.07.21-.2.37-.38.45-.17.08-.37.08-.55,0-.2-.08-.35-.24-.41-.43-.06-.19-.04-.39.06-.57.26-.47.59-.91.96-1.33.09-.1.3-.18.42-.18h0c.03.07.07.2.1.29.02.08.04.15.07.21,0,.01,0,.05,0,.08,0,.04,0,.07,0,.11l.03.17Z"/>
    </g>
  </g>
</svg>