<?xml version="1.0" encoding="UTF-8"?>
<svg id="Layer_2" data-name="Layer 2" xmlns="http://www.w3.org/2000/svg" viewBox="0 0 32.68 44">
  <g id="Background">
    <path d="m30.25,35.74c1.45-2.47,2.26-5.3,2.4-8.4.16-3.43-.36-6.35-1.58-8.94-1.61-3.4-3.98-5.57-7.23-6.64l-1.27-.44,1.01-.81c.18-.14.35-.28.52-.42.25-.21.49-.42.72-.65,2.37-2.36,3.59-5.24,3.64-8.57,0-.28-.08-.52-.24-.67-.15-.14-.35-.23-.6-.21-.77.03-1.51.07-2.22.21-4.12.86-7.11,3.27-8.89,7.16-.03.07-.07.14-.13.23l-.44.76-.57-.72c-.04-.06-.08-.11-.12-.15-1.2-1.16-2.67-1.79-4.36-1.86-.29,0-.55.07-.73.23-.15.14-.23.33-.24.55-.02.7.56.83.9.85,1.09.06,2.04.39,2.8.99.97.75,1.55,1.67,1.79,2.8l.16.75-.75-.17.11-.49-.12.49-.21-.05c-.87-.21-1.73-.32-2.57-.32-.99,0-1.97.15-2.92.44-3.59,1.09-6.11,3.48-7.71,7.31C.06,22.13-.3,25.49.25,29.29c.59,4.13,2.38,7.62,5.3,10.38,3.92,3.7,8.67,5.04,14.1,3.97,4.48-.88,8.04-3.54,10.6-7.91Zm-4.15-21c2.32,1.71,3.83,4.17,4.48,7.32.97,4.66.37,9.02-1.79,12.96-1.66,3.03-4.12,5.18-7.3,6.39-.09.03-.18.06-.29.1l-1.12.37.38-1.08c.03-.1.06-.19.1-.27,1.04-2.16,1.75-4.64,2.15-7.56.32-2.3.4-4.55.25-6.68-.3-4.26-1.21-7.52-2.87-10.26-.29-.49-.63-.95-1-1.44-.17-.24-.35-.47-.53-.72l-.46-.64.77-.14c2.65-.48,5.08.08,7.21,1.65Zm-8.78-4.19c.52-4.42,4.37-8.27,8.78-8.77l.52-.06.04.52c.16,2.06-1.45,4.45-3.01,5.99-1.85,1.83-3.9,2.9-5.55,2.9-.11,0-.21,0-.32-.01l-.51-.04.06-.51Zm-1.4,31.78c-.1,0-.21,0-.32-.01-6.05-.46-10.29-3.57-12.61-9.22-2.13-5.22-1.87-10.31.78-15.12,1.42-2.58,3.59-4.21,6.43-4.85,3.58-.8,7.02.81,8.76,4.1,1.19,2.25,1.91,4.78,2.19,7.76.08.85.13,1.71.16,2.34l.03.61c-.04,3.4-.26,7.03-1.66,10.54-.37.93-.9,1.8-1.41,2.61-.52.83-1.32,1.25-2.36,1.25Z"/>
  </g>
</svg>