<?xml version="1.0" encoding="UTF-8"?>
<svg id="Layer_2" data-name="Layer 2" xmlns="http://www.w3.org/2000/svg" viewBox="0 0 56.24 45">
  <defs>
    <style>
      .cls-1 {
        fill: #cc823c;
        stroke-width: 0px;
      }
    </style>
  </defs>
  <g id="Background">
    <g>
      <g>
        <path class="cls-1" d="m33.96,29.23c-3.1,0-9.26-1.1-10.75-3.5-.4-.65-.85-1.97.68-3.54.16-.16.34-.31.51-.46.22-.18.43-.35.5-.5.06-.13.06-.36.07-.6,0-.18,0-.36.03-.54.1-.88.54-1.71,1.22-2.28.29-.24.59-.42.87-.58.27-.16.53-.31.7-.48.26-.26.43-.69.61-1.14l.06-.15c1.2-3.01,3.14-5.73,5.59-7.85,2.08-1.8,4.11-2.44,5.88-1.88.17.05.34.12.52.19.26.11.51.21.7.21,0,0,0,0,0,0,.28,0,.61-.24.99-.51.26-.19.53-.38.85-.54,1.53-.78,3.2-.37,4.78.12l5.09,1.56c.64.2,1.45.44,2.06,1.06.53.53.78,1.22.93,1.69.85,2.79.29,6.12-1.55,9.12-1.55,2.54-3.77,4.59-6.09,6.64-1.86,1.64-4.06,3.37-6.72,3.17-.64-.05-1.25-.21-1.85-.36-1.05-.27-1.95-.5-2.6-.09-.15.09-.27.21-.4.32-.3.26-.67.59-1.18.75-.31.1-.83.15-1.49.15Zm4.68-21.89c-1.23,0-2.5.85-3.42,1.64-2.24,1.94-4,4.41-5.1,7.16l-.06.14c-.23.57-.48,1.22-1,1.74-.34.35-.74.58-1.08.78-.23.13-.45.26-.61.4-.32.27-.54.68-.59,1.09-.01.12-.02.25-.02.38,0,.37-.02.83-.22,1.28-.24.54-.66.89-1,1.17-.12.1-.25.2-.36.32h0c-.78.8-.54,1.18-.44,1.34,1.21,1.94,8.86,3.01,10.16,2.59.16-.05.35-.22.55-.39.2-.17.4-.35.63-.49,1.31-.83,2.74-.46,4.01-.14.55.14,1.07.27,1.55.31,1.94.17,3.8-1.33,5.39-2.73,2.3-2.03,4.32-3.9,5.75-6.23,1.57-2.57,2.07-5.36,1.37-7.66-.14-.46-.29-.76-.48-.95-.3-.3-.84-.47-1.31-.61l-5.09-1.56c-1.28-.39-2.51-.71-3.44-.23-.22.11-.42.26-.62.4-.52.37-1.17.83-2.01.84-.55,0-1-.17-1.4-.34-.13-.05-.26-.11-.39-.15-.24-.08-.49-.11-.74-.11Z"/>
        <path class="cls-1" d="m34.03,17.79c-.38,0-.74-.25-.86-.63-.18-.59,0-1.25.5-1.7.15-.14.33-.25.51-.33.09-.54.34-1.06.73-1.5.63-.71,1.52-1.08,2.38-1.01.5.04.86.47.82.97-.04.5-.48.89-.97.82-.3,0-.64.13-.89.41-.25.28-.36.63-.3.93.07.32-.05.66-.3.87-.2.17-.47.24-.72.2.03.41-.22.8-.63.93-.09.03-.18.04-.27.04Z"/>
        <path class="cls-1" d="m45.25,13.04c-.13,0-.26-.01-.38-.04-.78-.16-1.32-.7-1.72-1.09-.35-.35-.35-.92,0-1.27.35-.35.92-.35,1.27,0,.25.25.56.55.82.61.02,0,.06,0,.08,0,.06-.3.27-.56.56-.67.33-.13.71-.05.96.21.08.08.25.12.36.07s.2-.19.2-.3c-.01-.5.38-.91.88-.92,0,0,.01,0,.02,0,.49,0,.89.39.9.88.02.85-.51,1.67-1.29,2-.43.18-.92.21-1.38.09-.02.02-.04.03-.06.05-.34.26-.78.41-1.22.41Z"/>
        <path class="cls-1" d="m36.61,23.15c-.36,0-.69-.19-.87-.51-.26-.46-.11-1.05.17-1.38l1.22-1.45c.53-.63,1.19-1.42,2.14-1.84.59-.26,1.32-.35,1.99-.19.1-.36.24-.71.42-1.06.52-.96,1.34-1.59,2.27-1.74.9-.14,1.66.18,2.34.47.41.17.8.34,1.15.37.49.04.86.48.82.98s-.48.85-.98.82c-.63-.06-1.19-.29-1.69-.5-.52-.22-.98-.41-1.36-.35-.35.06-.72.37-.96.81-.27.51-.39,1.15-.51,1.78-.07.35-.33.63-.68.71-.35.08-.71-.05-.92-.34-.19-.25-.71-.31-1.14-.11-.57.26-1.04.82-1.5,1.36l-.99,1.18c.06.48-.28.92-.76,1-.05,0-.1.01-.15.01Z"/>
        <path class="cls-1" d="m27.42,24.71c-.21,0-.43-.08-.6-.23-.37-.33-.41-.9-.08-1.27.38-.43.9-.72,1.46-.84.02-.82.22-1.46.61-1.91-.03-.3,0-.63.13-.93.25-.61.79-1.04,1.4-1.12.5-.06.94.29,1.01.78.06.49-.29.94-.78,1.01.17.21.23.49.17.75-.06.26-.23.49-.47.61-.25.13-.34.73-.23,1.59.04.29-.07.58-.29.78-.22.2-.52.27-.81.21-.3-.07-.65.04-.85.27-.18.2-.43.3-.67.3Z"/>
        <path class="cls-1" d="m41.32,24.59s-.05,0-.07,0c-.6-.02-1.13-.32-1.42-.81-.25-.43-.11-.98.31-1.23.39-.23.88-.13,1.16.2,0,0,0-.02,0-.02.06-.14.13-.28.21-.4.46-.68,1.21-.84,1.77-.96l.19-.04c.17-.04.3-.11.36-.15.02-.45.37-.82.83-.85.5-.04.93.33.97.83.07.9-.64,1.68-1.76,1.94l-.22.05c-.18.04-.59.12-.64.2-.03.04-.04.08-.06.13-.07.15-.14.3-.23.43-.31.44-.83.7-1.4.7Zm2.53-3.31h.01-.01Z"/>
      </g>
      <g>
        <path class="cls-1" d="m22.28,45c-.66,0-1.19-.05-1.49-.15-.51-.16-.88-.49-1.18-.75-.13-.11-.26-.23-.4-.32-.65-.41-1.55-.18-2.6.09-.6.15-1.22.31-1.85.36-2.66.2-4.86-1.53-6.72-3.17-2.41-2.13-4.54-4.09-6.09-6.64C.1,31.41-.46,28.08.39,25.29c.14-.47.4-1.16.93-1.7.61-.62,1.42-.86,2.06-1.06l5.09-1.56c1.58-.49,3.25-.9,4.78-.12.31.16.59.35.85.54.38.27.71.51.99.51,0,0,0,0,0,0,.18,0,.43-.1.7-.21.17-.07.34-.14.52-.19,1.77-.57,3.81.09,5.88,1.88,2.45,2.12,4.39,4.84,5.59,7.85l.06.15c.18.45.35.88.61,1.14.17.17.43.32.7.48.27.16.58.34.87.58.68.57,1.12,1.4,1.22,2.28.02.18.02.36.03.54,0,.24.01.47.07.6.07.15.27.32.5.5.18.15.36.3.51.46,1.53,1.57,1.08,2.89.68,3.54-1.49,2.4-7.65,3.5-10.75,3.5Zm-3.94-3.25c.62,0,1.23.13,1.82.5.22.14.42.31.63.49.2.17.39.34.55.39,1.29.42,8.95-.65,10.16-2.59.1-.16.33-.54-.44-1.34h0c-.11-.12-.24-.22-.36-.32-.34-.28-.76-.62-1-1.17-.2-.46-.21-.92-.22-1.28,0-.13,0-.26-.02-.38-.05-.42-.26-.82-.58-1.09-.17-.14-.38-.27-.61-.4-.35-.2-.74-.43-1.08-.78-.52-.53-.77-1.17-1-1.74l-.06-.14c-1.1-2.75-2.86-5.22-5.1-7.16-1.1-.95-2.71-1.99-4.16-1.53-.13.04-.26.09-.39.15-.4.16-.84.33-1.4.34-.84-.01-1.49-.47-2.01-.84-.2-.14-.41-.29-.62-.4-.93-.47-2.15-.16-3.44.23l-5.09,1.56c-.48.15-1.01.31-1.31.61-.19.19-.35.49-.49.95-.7,2.3-.2,5.09,1.37,7.66,1.42,2.33,3.44,4.2,5.75,6.23,1.59,1.4,3.44,2.89,5.39,2.73.48-.04,1-.17,1.55-.31.69-.18,1.44-.37,2.19-.37Z"/>
        <path class="cls-1" d="m22.21,33.56c-.09,0-.18-.01-.27-.04-.41-.13-.66-.52-.63-.93-.26.04-.52-.03-.72-.2-.25-.21-.37-.55-.3-.87.06-.3-.05-.65-.3-.93-.25-.28-.59-.42-.89-.41-.49.05-.93-.33-.97-.82-.04-.5.33-.93.82-.97.87-.07,1.76.31,2.38,1.01.39.44.64.96.73,1.5.18.08.35.19.51.33.49.45.68,1.1.5,1.7-.12.39-.48.63-.86.63Z"/>
        <path class="cls-1" d="m10.99,28.81c-.44,0-.88-.14-1.22-.41-.02-.02-.04-.03-.06-.05-.45.12-.94.1-1.38-.09-.78-.33-1.31-1.15-1.3-2,.01-.5.43-.93.92-.88.5.01.89.42.88.92,0,.12.09.26.2.3.11.04.27.01.35-.07.25-.26.63-.34.96-.21.29.11.5.37.56.67.03,0,.06.01.09,0,.26-.05.57-.36.82-.61.35-.35.92-.35,1.27,0,.35.35.35.92,0,1.27-.39.39-.93.93-1.72,1.09-.13.03-.25.04-.38.04Z"/>
        <path class="cls-1" d="m19.63,38.92c-.05,0-.1,0-.15-.01-.48-.07-.82-.51-.76-1l-.99-1.18c-.43-.52-.93-1.1-1.5-1.36-.43-.19-.95-.14-1.14.11-.21.29-.58.42-.92.34-.35-.08-.61-.36-.68-.71-.12-.62-.24-1.27-.51-1.78-.24-.45-.61-.76-.96-.81-.39-.06-.84.13-1.36.35-.5.21-1.06.45-1.69.5-.5.04-.93-.32-.98-.82s.32-.93.82-.98c.35-.03.74-.2,1.15-.37.68-.29,1.45-.61,2.34-.47.91.14,1.76.8,2.27,1.74.19.34.32.7.42,1.06.67-.17,1.4-.08,1.99.19.95.43,1.61,1.21,2.14,1.84l1.22,1.45c.28.34.43.92.17,1.39-.18.32-.51.51-.87.51Z"/>
        <path class="cls-1" d="m28.83,40.48c-.25,0-.5-.1-.67-.3-.2-.23-.56-.34-.85-.27-.29.07-.59,0-.81-.21-.22-.2-.33-.49-.29-.78.11-.87.02-1.46-.23-1.59-.24-.12-.41-.35-.47-.61-.06-.26,0-.54.17-.75-.49-.06-.84-.51-.78-1.01s.52-.85,1.01-.78c.61.08,1.15.51,1.4,1.12.12.3.17.62.13.93.38.45.59,1.09.61,1.91.56.12,1.08.41,1.46.84.33.37.3.94-.08,1.27-.17.15-.38.23-.6.23Z"/>
        <path class="cls-1" d="m14.92,40.36c-.57,0-1.1-.26-1.41-.71-.09-.13-.16-.28-.23-.42-.02-.04-.04-.09-.06-.13-.05-.08-.47-.17-.64-.2l-.22-.05c-1.12-.26-1.83-1.03-1.76-1.94.04-.5.47-.87.97-.83.46.04.81.41.83.85.06.05.19.12.36.15l.19.04c.55.12,1.31.27,1.77.96.08.13.15.26.21.4,0,0,0,.01,0,.02.28-.34.77-.43,1.16-.2.43.25.57.81.31,1.23-.29.49-.82.79-1.42.81-.02,0-.05,0-.07,0Z"/>
      </g>
      <g>
        <path class="cls-1" d="m25.64,20.99c-.46-.15-.79-.43-1.05-.66-.11-.09-.21-.19-.33-.26-.47-.3-1.1-.16-2.1.09-.51.13-1.04.27-1.6.31-2.3.18-4.19-1.31-5.8-2.72-2.06-1.81-3.87-3.49-5.19-5.66-1.58-2.58-2.06-5.44-1.33-7.85.13-.41.35-1.02.82-1.5.55-.55,1.27-.77,1.8-.94L15.2.48c1.37-.42,2.82-.77,4.16-.09.25.13.5.3.74.47.29.21.57.4.76.41.11,0,.33-.08.54-.16.15-.06.3-.12.45-.17,1.55-.49,3.32.07,5.12,1.62,2.1,1.82,3.75,4.14,4.78,6.71l.05.13c.15.37.28.72.48.92l-1.28,1.26c-.46-.46-.68-1.02-.87-1.52l-.05-.12c-.92-2.31-2.41-4.39-4.29-6.02-.74-.64-2.17-1.66-3.4-1.27-.11.04-.22.08-.32.12-.33.13-.75.28-1.24.29-.76,0-1.33-.42-1.78-.74-.17-.12-.33-.24-.51-.33-.74-.38-1.8-.1-2.81.21l-4.32,1.33c-.39.12-.83.25-1.06.48-.15.15-.26.38-.38.75-.58,1.91-.17,4.24,1.14,6.38,1.2,1.96,2.9,3.54,4.85,5.25,1.39,1.22,2.87,2.42,4.47,2.28.4-.03.83-.14,1.29-.26,1.1-.28,2.35-.6,3.51.13.19.12.37.27.55.43.15.13.31.27.42.31l-.55,1.71Z"/>
        <path class="cls-1" d="m26.89,11.42c-.09,0-.18-.01-.27-.04-.36-.11-.6-.42-.63-.77-.2,0-.4-.07-.56-.21-.25-.21-.37-.55-.31-.87.04-.21-.04-.47-.23-.67-.18-.2-.42-.31-.64-.3-.49.05-.93-.33-.97-.82-.04-.5.33-.93.82-.97.77-.07,1.57.27,2.13.9.33.37.55.81.64,1.27.14.07.28.16.4.28.46.42.63,1.03.46,1.58-.12.39-.48.63-.86.63Z"/>
        <path class="cls-1" d="m17.37,7.39c-.4,0-.79-.13-1.11-.37-.39.09-.81.06-1.19-.1-.73-.31-1.2-1.04-1.18-1.83.01-.5.42-.93.92-.88.5.01.89.42.88.92,0,.04.04.11.08.13.04.01.12,0,.15-.03.25-.26.63-.34.96-.21.25.1.44.3.53.55.18-.07.4-.29.57-.45.35-.35.92-.35,1.27,0,.35.35.35.92,0,1.27-.33.32-.82.81-1.52.96-.12.02-.24.04-.36.04Z"/>
        <path class="cls-1" d="m24.67,15.96s-.08,0-.12,0c-.46-.07-.79-.48-.77-.93l-.8-.96c-.38-.45-.77-.91-1.22-1.12-.3-.13-.68-.11-.8.05-.21.29-.58.42-.92.34-.35-.08-.61-.36-.68-.71-.1-.52-.2-1.05-.42-1.47-.18-.34-.46-.58-.72-.62-.29-.04-.65.11-1.08.29-.43.18-.92.39-1.47.44-.5.04-.93-.32-.98-.82-.04-.5.32-.93.82-.98.27-.02.59-.16.93-.3.59-.25,1.26-.54,2.06-.41.82.13,1.57.71,2.02,1.55.14.26.25.53.33.8.56-.11,1.16-.02,1.65.2.83.37,1.4,1.06,1.86,1.6l1.03,1.23c.26.31.42.86.16,1.33-.16.29-.54.5-.89.5Z"/>
        <path class="cls-1" d="m20.71,17.19c-.53,0-1.01-.24-1.3-.65-.08-.12-.15-.25-.21-.38-.01-.03-.03-.06-.04-.09-.04-.02-.3-.08-.46-.11l-.19-.04c-1.02-.23-1.67-.95-1.6-1.79.04-.5.46-.87.97-.83.43.03.77.37.82.78.05.03.12.06.21.08l.16.04c.46.1,1.16.25,1.58.87.04.07.08.13.12.21.28-.22.68-.25,1.01-.06.43.25.57.81.31,1.23-.27.45-.76.73-1.32.75-.02,0-.04,0-.06,0Z"/>
      </g>
    </g>
  </g>
</svg>