<?xml version="1.0" encoding="UTF-8"?>
<svg id="Layer_2" data-name="Layer 2" xmlns="http://www.w3.org/2000/svg" viewBox="0 0 76.92 76.92">
  <defs>
    <style>
      .cls-1 {
        fill: #c02227;
      }

      .cls-1, .cls-2 {
        stroke-width: 0px;
      }

      .cls-2 {
        fill: #fff5ea;
      }
    </style>
  </defs>
  <g id="Layer_1-2" data-name="Layer 1">
    <g>
      <circle class="cls-2" cx="38.46" cy="38.46" r="38.46"/>
      <g>
        <path class="cls-1" d="m38.46,51.36c-4.39,0-8.78,0-13.17,0-.5,0-1.01-.06-1.49-.18-1.72-.44-2.73-1.82-2.81-3.76-.22-5.15-.44-10.3-.67-15.44-.17-3.77-.36-7.53-.52-11.3-.04-1.07.21-1.32,1.3-1.32,2.35-.01,4.7,0,7.05,0,.96,0,.9-.02,1.15-.92.37-1.34.69-2.73,1.27-3.98,2.58-5.57,10.5-7.7,15.21-1.3,1.2,1.62,1.85,3.47,2.02,5.47.05.56.26.75.81.74,2.41-.02,4.83-.01,7.24,0,1.29,0,1.5.2,1.44,1.5-.21,4.38-.43,8.76-.65,13.14-.14,2.98-.27,5.96-.41,8.94-.08,1.64-.14,3.29-.28,4.93-.17,2.06-1.89,3.51-4.14,3.52-4.46.01-8.91,0-13.37,0Zm-6.01-9.82c-.18.2-.34.35-.48.52-.57.67-.55.94.16,1.44.54.37,1.1.73,1.69,1.01,2.69,1.28,5.45,1.64,8.27.47,1.97-.81,3.03-2.36,3.25-4.43.22-2.11-.68-3.72-2.53-4.75-1.01-.57-2.08-1.04-3.13-1.54-1.4-.67-2.88-1.21-4.2-2.02-1.82-1.11-1.88-3.37-.23-4.72,1.15-.94,2.48-1.36,3.93-1.01,1.36.33,2.69.77,4.01,1.25.74.27.81-.34,1.05-.68.26-.38-.02-.64-.36-.83-2.26-1.25-4.64-1.82-7.22-1.36-2.19.39-4.14,2.24-4.41,4.18-.32,2.32.72,4.25,2.97,5.35.76.38,1.59.62,2.37.97,1.42.64,2.84,1.27,4.22,1.97.72.36,1.23.98,1.5,1.77.53,1.54-.2,3.22-1.79,4.01-2.54,1.27-4.98.8-7.34-.54-.59-.33-1.16-.7-1.75-1.06Zm12.59-22.25c.03-.13.06-.19.05-.25-.04-.3-.07-.61-.13-.91-.46-2.54-1.66-4.59-4.09-5.67-.81-.36-1.78-.57-2.66-.55-1.86.06-3.31,1.06-4.47,2.47-1.15,1.4-1.62,3.06-1.75,4.91h13.05Z"/>
        <path class="cls-1" d="m21.36,64.74c-1.11-.13-2.11-.4-2.99-1.05-.33-.25-.68-.47-.31-1,.34-.49.64-.44,1.1-.19.51.28,1.05.53,1.61.69.86.24,1.72-.16,2.23-.88.36-.51.29-.97-.19-1.31-.37-.27-.79-.47-1.2-.65-.64-.28-1.32-.48-1.95-.77-1.19-.55-1.72-1.5-1.56-2.68.13-.99,1.06-1.9,2.15-2.15,1.1-.25,2.13-.06,3.12.42.59.28.75.68.5,1.15-.29.55-.67.3-1.06.12-.7-.33-1.41-.58-2.21-.33-.58.18-1.01.47-1.06,1.1-.05.62.39.94.89,1.16,1.02.45,2.11.77,3.05,1.35,1.7,1.06,1.57,3.48-.21,4.43-.58.31-1.27.41-1.91.6Z"/>
        <path class="cls-1" d="m40.44,64.2c0,.94-.01,1.8,0,2.65,0,.5-.1.87-.71.86-.55-.01-.7-.34-.7-.82,0-2.46,0-4.91.01-7.37,0-.26.06-.52.12-.77.08-.37.34-.56.68-.39.54.28,1.05.15,1.59.02,1.91-.43,3.52.6,3.93,2.51.44,2.02-1.4,3.96-3.44,3.61-.47-.08-.94-.19-1.49-.3Zm0-2.76c0,1.02.74,1.76,1.78,1.77,1.06.01,1.84-.75,1.84-1.79,0-1.01-.77-1.76-1.79-1.77-1.07,0-1.83.74-1.83,1.79Z"/>
        <path class="cls-1" d="m26.73,58.55c.4-.07.72-.12,1.04-.19,1.67-.35,3.29.76,3.44,2.47.09,1.02.04,2.06.05,3.09,0,.65-.43.63-.9.63-.52,0-.54-.3-.54-.69.01-.88.02-1.75,0-2.63-.03-.91-.7-1.58-1.53-1.56-.89.02-1.55.68-1.56,1.61-.01.83-.01,1.67,0,2.5,0,.54-.19.79-.78.78-.57,0-.63-.29-.62-.75.01-2.81.02-5.62,0-8.43,0-.59.29-.73.74-.76.49-.04.65.32.66.72.02.81.01,1.62.01,2.44,0,.24,0,.47,0,.77Z"/>
        <path class="cls-1" d="m47.81,62.03c.11.73.5,1.15,1.19,1.11.68-.04,1.39-.18,2.03-.43.47-.18.71,0,.83.32.09.25.09.73-.06.84-1.42,1.01-3.42,1.2-4.9-.34-1.2-1.24-1.01-3.42.34-4.53.92-.75,1.96-.96,3.08-.49,1.09.46,1.74,1.3,1.89,2.49.09.75-.14,1.01-.9,1.02-1.16.01-2.32,0-3.48,0Zm2.79-1.5c-.34-.74-.9-.91-1.57-.88-.57.03-1.05.22-1.25.88h2.81Z"/>
        <path class="cls-1" d="m54.52,62.07c.15.7.63.94,1.17,1.07.68.15,1.35.11,1.95-.32.31-.23.65-.34.92.03.28.38.28.77-.09,1.12-.89.83-3,.86-4.22.07-1.17-.77-1.67-2.29-1.2-3.65.46-1.35,1.78-2.21,3.22-2.1,1.32.1,2.61,1.39,2.73,2.72.07.73-.18,1.02-.91,1.03-.97.01-1.93,0-2.9,0-.21,0-.42.02-.67.04Zm2.94-1.49c-.49-.82-1.1-1.01-1.82-.91-.5.07-.88.3-1.09.87.28.01.49.03.7.04.69,0,1.39,0,2.21,0Z"/>
        <path class="cls-1" d="m38.33,61.41c0,1.8-1.43,3.26-3.18,3.24-1.76-.02-3.23-1.49-3.22-3.24,0-1.72,1.46-3.14,3.22-3.14,1.8,0,3.18,1.36,3.18,3.13Zm-3.15-1.76c-1.06,0-1.86.74-1.87,1.77-.01,1.01.8,1.84,1.81,1.86,1.01.02,1.84-.78,1.87-1.8.02-1.03-.75-1.82-1.8-1.83Z"/>
      </g>
    </g>
  </g>
</svg>