<?xml version="1.0" encoding="UTF-8"?>
<svg id="Layer_2" data-name="Layer 2" xmlns="http://www.w3.org/2000/svg" viewBox="0 0 44.01 44">
  <defs>
    <style>
      .cls-1 {
        fill: #4f9442;
        stroke-width: 0px;
      }
    </style>
  </defs>
  <g id="Background">
    <path class="cls-1" d="m44.01,6.44c-.02-.49-.44-.81-1.03-.78-2.82.1-5.28,1.14-7.32,3.1-.07.07-.12.12-.18.16l-.1.08-.6.09-.18-.39c-1.17-3.59-3.36-6.08-6.68-7.62C26.45.4,24.83.04,23.1,0c-.31-.02-.55.07-.71.23-.2.2-.25.51-.25.74.02,5.76,4.17,10.7,9.87,11.76.11.02.22.05.33.08l.6.15-.15.87c-.08.43-.15.86-.24,1.28-.07.34-.41.54-.62.6-2.63.72-4.22,2.35-4.88,4.99-.07.29-.37.58-.67.65-1.41.33-2.56,1-3.53,2.04-.23.25-.64.31-.91.23-1.35-.41-2.67-.41-4.03,0-.27.08-.69.02-.91-.23-.95-1.03-2.1-1.7-3.44-2-.43-.1-.67-.34-.78-.78-.69-2.82-2.79-4.7-5.6-5.03-3.48-.4-6.6,2-7.11,5.48-.49,3.34,1.68,6.51,4.96,7.23.56.12.72.52.82.78.36.9-.02,1.49-.48,1.99-1.75,1.89-2.22,4.07-1.41,6.46.8,2.36,2.48,3.81,4.99,4.3,1.01.2,2.03.13,3.05-.19.13-.04.25-.06.36-.06.27,0,.5.12.72.35,1.19,1.3,2.89,2.06,4.68,2.08,1.78.04,3.51-.7,4.72-1.97.4-.41.8-.52,1.36-.35,1.65.49,3.48.26,5-.62,1.53-.89,2.63-2.36,3.03-4.04.1-.4.27-.8.92-.96,3.06-.76,5.05-3.38,4.95-6.52-.02-.56-.16-1.15-.29-1.65-.12-.47-.02-.82.34-1.16,1.64-1.55,2.34-3.8,1.88-6.04-.46-2.21-1.98-3.98-4.06-4.74l-.14-.05c-.16-.06-.32-.12-.45-.13-.28-.03-.49-.13-.63-.31-.21-.27-.15-.6-.13-.74.58-3.43,3.45-6.44,6.84-7.16.68-.14,1.37-.2,1.97-.25.23-.02.96-.13.93-.85Zm-11.26,4.69c-3.7-.25-8.13-3.67-8.85-8.77l-.09-.64.64.07c4.41.49,8.37,4.43,8.83,8.79l.06.59-.59-.04ZM5.33,26.7c-2.53-.58-4.13-3.15-3.58-5.74.54-2.5,3.04-4.16,5.57-3.71,1.91.35,3.9,2.06,3.98,4.67.02.67.27.92.95.94,1.75.07,3.13.88,4.09,2.41.28.44.69.56,1.12.33,1.64-.88,3.29-.89,4.91,0,.42.23.66.08.73.03.17-.11.34-.3.52-.55.72-1.06,1.66-1.73,2.87-2.05l.77-.21-.15.78s.04.12.06.18c.09.23.3.76-.23,1.23-1,.89-1.66,2.03-1.96,3.39-.12.56-.5.7-.77.76-1.31.28-2.42.93-3.33,1.91-.23.25-.47.37-.75.37-.11,0-.24-.02-.36-.06-1.28-.39-2.57-.39-3.85,0-.56.17-.88-.07-1.1-.31-1.29-1.36-2.86-2.05-4.67-2.05-.42.04-.92.06-1.41.12-.24.03-.5.06-.75.09l-.5.05-.08-.79c-.02-.23-.05-.47-.06-.71-.03-.62-.32-.91-.94-.96h-.12c-.31-.03-.63-.05-.96-.13Zm29.31-9.34c1.91.5,3.15,1.88,3.48,3.89.33,2.02-.41,3.7-2.14,4.84-.68.45-.75.7-.4,1.5.33.75.51,1.41.53,2.02.06,1.28-.37,2.49-1.22,3.42-.89.98-2.15,1.55-3.54,1.6-.59.02-.89.31-.92.9v.19c-.01.18-.02.35-.05.53-.29,1.58-1.25,2.88-2.63,3.56-1.39.68-3.01.65-4.45-.1-.61-.31-.97-.21-1.33.36-.91,1.44-2.45,2.3-4.12,2.3h0c-1.67,0-3.21-.86-4.12-2.3-.36-.58-.73-.68-1.32-.37-.77.41-1.5.59-2.34.59h-.26c-.19-.02-.39-.04-.57-.07-1.89-.35-3.53-1.91-3.89-3.7-.39-1.93.44-3.97,2.07-5.08,1.05-.72,2.33-.97,3.6-.71,1.31.27,2.44,1.05,3.17,2.19.46.73.91.62,1.28.43,1.59-.84,3.2-.83,4.78,0,.5.26.9.15,1.2-.32.97-1.55,2.38-2.35,4.2-2.39.44,0,.76-.3.81-.74l.05-.56c.15-1.56.91-2.79,2.24-3.65.65-.42.73-.72.36-1.43-.92-1.8-.74-3.6.51-5.22,1.26-1.62,2.99-2.2,5.02-1.67Z"/>
  </g>
</svg>