<?xml version="1.0" encoding="UTF-8"?>
<svg id="Layer_2" data-name="Layer 2" xmlns="http://www.w3.org/2000/svg" viewBox="0 0 35.43 35.48">
  <defs>
    <style>
      .cls-1 {
        fill: #fff5ea;
        stroke-width: 0px;
      }
    </style>
  </defs>
  <g id="Layer_1-2" data-name="Layer 1">
    <g>
      <path class="cls-1" d="m11.05,14.91c2.25,4.02,5.4,7.17,9.5,9.46.79-.8,1.55-1.57,2.31-2.34,1.62-1.63,3.62-1.63,5.22,0,1.32,1.33,2.65,2.65,3.97,3.98.87.88,1.46,1.91,1.17,3.19-.13.57-.37,1.19-.75,1.62-1.07,1.2-2.18,2.37-3.38,3.44-1.21,1.08-2.72,1.32-4.3,1.17-3.59-.35-6.72-1.9-9.69-3.79-6.04-3.83-10.6-9-13.57-15.53-.69-1.51-1.21-3.09-1.44-4.74-.32-2.29.09-4.35,1.89-5.99.76-.69,1.45-1.46,2.19-2.18.27-.26.58-.5.91-.69,1.34-.77,2.95-.59,4.05.49,1.47,1.44,2.93,2.89,4.36,4.37,1.54,1.59,1.5,3.46-.06,5.09-.77.8-1.55,1.58-2.39,2.44Zm14.39,18.53c1.04.04,1.97-.26,2.71-.99.87-.85,1.71-1.72,2.54-2.6.79-.84.78-1.55-.04-2.38-1.38-1.39-2.75-2.77-4.15-4.14-.21-.2-.49-.37-.77-.45-.57-.17-1.02.13-1.41.52-.84.84-1.68,1.68-2.52,2.52-.6.59-1.24.69-1.95.34-2.49-1.23-4.63-2.92-6.54-4.92-1.64-1.71-3.13-3.53-4.12-5.72-.45-1.01-.33-1.54.46-2.29.81-.77,1.61-1.56,2.4-2.36.71-.73.71-1.46,0-2.19-1.35-1.37-2.71-2.74-4.08-4.09-.86-.85-1.6-.83-2.46.03-.78.77-1.54,1.56-2.33,2.32-.78.76-1.14,1.68-1.15,2.76-.02,1.61.43,3.12,1,4.6,1.22,3.17,3.05,5.98,5.22,8.57,3.39,4.05,7.48,7.18,12.35,9.27,1.55.66,3.14,1.14,4.84,1.18Z"/>
      <path class="cls-1" d="m34.37,16.8c-.5-.02-.87-.36-.96-.88-.62-3.58-2.24-6.64-4.81-9.19-2.48-2.46-5.45-4.02-8.89-4.67-.23-.04-.47-.11-.66-.23-.4-.25-.54-.76-.37-1.18.18-.45.65-.72,1.16-.63,3.23.58,6.14,1.86,8.68,3.93,3.62,2.95,5.91,6.71,6.84,11.29.03.13.04.26.06.39.11.66-.37,1.2-1.04,1.17Z"/>
      <path class="cls-1" d="m27.97,17.11c-.52,0-.88-.36-.99-.9-.81-3.85-3.12-6.35-6.85-7.56-.29-.09-.59-.13-.89-.19-.67-.14-1.02-.63-.89-1.25.11-.55.65-.85,1.29-.73,4.79.88,8.6,4.73,9.35,9.44.11.67-.35,1.21-1.02,1.2Z"/>
    </g>
  </g>
</svg>