<?xml version="1.0" encoding="UTF-8"?>
<svg id="Layer_2" data-name="Layer 2" xmlns="http://www.w3.org/2000/svg" viewBox="0 0 44.99 45">
  <defs>
    <style>
      .cls-1 {
        fill: #c22328;
        stroke-width: 0px;
      }
    </style>
  </defs>
  <g id="Background">
    <g id="vduZiK">
      <g>
        <path class="cls-1" d="m44.99,22.55c-.06,12.46-10.12,22.49-22.52,22.45C10.01,44.96-.06,34.85,0,22.45.06,9.99,10.12-.04,22.52,0c12.46.04,22.53,10.14,22.47,22.55Zm-43.19-.05c0,11.44,9.28,20.71,20.71,20.7,11.43-.02,20.66-9.24,20.68-20.68.02-11.44-9.24-20.71-20.69-20.72C11.07,1.79,1.8,11.06,1.8,22.5Z"/>
        <path class="cls-1" d="m16.52,29.79c.06-3.19,1.92-5.95,4.67-6.81,1.75-.55,3.4-.26,4.93.72.5.32.64.82.37,1.27-.26.44-.82.59-1.29.27-2.67-1.82-6.04-.06-6.7,3.3-.45,2.27.13,4.28,2.07,5.7,1.37,1,2.87,1.02,4.36.21.11-.06.21-.13.31-.19.49-.25.97-.13,1.24.31.25.41.15.91-.29,1.2-1.07.74-2.27,1.1-3.58,1.02-2.78-.17-5.12-2.22-5.82-5.13-.15-.61-.2-1.24-.29-1.87Z"/>
        <path class="cls-1" d="m15.13,14.82c.66-1.96,1.27-3.76,1.88-5.57.3-.9.7-1.2,1.31-.99.56.19.68.69.39,1.56-.89,2.64-1.78,5.28-2.67,7.92-.15.46-.4.81-.91.82-.5.01-.78-.31-.94-.77-.93-2.77-1.88-5.54-2.78-8.32-.09-.28-.01-.73.17-.95.17-.2.62-.31.88-.23.26.08.53.4.63.68.62,1.73,1.2,3.48,1.79,5.22.05.16.12.32.23.64Z"/>
        <path class="cls-1" d="m30.24,10c0,.42,0,.76,0,1.09,0,2.16,0,4.32,0,6.48,0,.6-.36.98-.87,1-.52.01-.89-.38-.93-1,0-.14,0-.28,0-.42,0-2.16,0-4.32,0-6.48,0-.19,0-.38,0-.66-.68,0-1.32,0-1.96,0-.24,0-.49,0-.73-.04-.46-.09-.7-.39-.7-.85,0-.46.24-.76.69-.86.2-.04.42-.05.63-.05,2,0,4.01,0,6.01,0,.07,0,.14,0,.21,0,.71.03,1.12.37,1.1.93-.02.54-.41.87-1.1.88-.75.01-1.5,0-2.34,0Z"/>
        <path class="cls-1" d="m21.33,13.34c0-1.35,0-2.7,0-4.06,0-.67.33-1.06.89-1.07.56,0,.9.39.9,1.06,0,2.74,0,5.48,0,8.22,0,.65-.36,1.08-.89,1.08-.53,0-.9-.43-.9-1.07,0-1.39,0-2.77,0-4.16Z"/>
      </g>
    </g>
  </g>
</svg>